<?xml version="1.0" encoding="utf-8" standalone="no"?>
<!DOCTYPE svg PUBLIC "-//W3C//DTD SVG 1.1//EN"
  "http://www.w3.org/Graphics/SVG/1.1/DTD/svg11.dtd">
<svg xmlns:xlink="http://www.w3.org/1999/xlink" width="409.691875pt" height="306.380281pt" viewBox="0 0 409.691875 306.380281" xmlns="http://www.w3.org/2000/svg" version="1.1">
 <metadata>
  <rdf:RDF xmlns:dc="http://purl.org/dc/elements/1.1/" xmlns:cc="http://creativecommons.org/ns#" xmlns:rdf="http://www.w3.org/1999/02/22-rdf-syntax-ns#">
   <cc:Work>
    <dc:type rdf:resource="http://purl.org/dc/dcmitype/StillImage"/>
    <dc:date>2024-09-29T20:26:57.778515</dc:date>
    <dc:format>image/svg+xml</dc:format>
    <dc:creator>
     <cc:Agent>
      <dc:title>Matplotlib v3.7.1, https://matplotlib.org/</dc:title>
     </cc:Agent>
    </dc:creator>
   </cc:Work>
  </rdf:RDF>
 </metadata>
 <defs>
  <style type="text/css">*{stroke-linejoin: round; stroke-linecap: butt}</style>
 </defs>
 <g id="figure_1">
  <g id="patch_1">
   <path d="M 0 306.380281 
L 409.691875 306.380281 
L 409.691875 0 
L 0 0 
z
" style="fill: #ffffff"/>
  </g>
  <g id="axes_1">
   <g id="patch_2">
    <path d="M 45.371875 278.630906 
L 402.491875 278.630906 
L 402.491875 12.518906 
L 45.371875 12.518906 
z
" style="fill: #f2f2f2"/>
   </g>
   <g id="matplotlib.axis_1">
    <g id="xtick_1">
     <g id="line2d_1">
      <path d="M 61.604602 278.630906 
L 61.604602 12.518906 
" clip-path="url(#pac9bd16dc0)" style="fill: none; stroke: #ffffff; stroke-linecap: square"/>
     </g>
     <g id="line2d_2">
      <defs>
       <path id="ma3f2fdab49" d="M 0 0 
L 0 3.5 
" style="stroke: #000000; stroke-width: 0.8"/>
      </defs>
      <g>
       <use xlink:href="#ma3f2fdab49" x="61.604602" y="278.630906" style="stroke: #000000; stroke-width: 0.8"/>
      </g>
     </g>
     <g id="text_1">
      <!-- 0 -->
      <g transform="translate(57.150852 296.268719) scale(0.14 -0.14)">
       <defs>
        <path id="DejaVuSans-30" d="M 2034 4250 
Q 1547 4250 1301 3770 
Q 1056 3291 1056 2328 
Q 1056 1369 1301 889 
Q 1547 409 2034 409 
Q 2525 409 2770 889 
Q 3016 1369 3016 2328 
Q 3016 3291 2770 3770 
Q 2525 4250 2034 4250 
z
M 2034 4750 
Q 2819 4750 3233 4129 
Q 3647 3509 3647 2328 
Q 3647 1150 3233 529 
Q 2819 -91 2034 -91 
Q 1250 -91 836 529 
Q 422 1150 422 2328 
Q 422 3509 836 4129 
Q 1250 4750 2034 4750 
z
" transform="scale(0.015625)"/>
       </defs>
       <use xlink:href="#DejaVuSans-30"/>
      </g>
     </g>
    </g>
    <g id="xtick_2">
     <g id="line2d_3">
      <path d="M 102.700114 278.630906 
L 102.700114 12.518906 
" clip-path="url(#pac9bd16dc0)" style="fill: none; stroke: #ffffff; stroke-linecap: square"/>
     </g>
     <g id="line2d_4">
      <g>
       <use xlink:href="#ma3f2fdab49" x="102.700114" y="278.630906" style="stroke: #000000; stroke-width: 0.8"/>
      </g>
     </g>
     <g id="text_2">
      <!-- 10 -->
      <g transform="translate(93.792614 296.268719) scale(0.14 -0.14)">
       <defs>
        <path id="DejaVuSans-31" d="M 794 531 
L 1825 531 
L 1825 4091 
L 703 3866 
L 703 4441 
L 1819 4666 
L 2450 4666 
L 2450 531 
L 3481 531 
L 3481 0 
L 794 0 
L 794 531 
z
" transform="scale(0.015625)"/>
       </defs>
       <use xlink:href="#DejaVuSans-31"/>
       <use xlink:href="#DejaVuSans-30" x="63.623047"/>
      </g>
     </g>
    </g>
    <g id="xtick_3">
     <g id="line2d_5">
      <path d="M 143.795626 278.630906 
L 143.795626 12.518906 
" clip-path="url(#pac9bd16dc0)" style="fill: none; stroke: #ffffff; stroke-linecap: square"/>
     </g>
     <g id="line2d_6">
      <g>
       <use xlink:href="#ma3f2fdab49" x="143.795626" y="278.630906" style="stroke: #000000; stroke-width: 0.8"/>
      </g>
     </g>
     <g id="text_3">
      <!-- 20 -->
      <g transform="translate(134.888126 296.268719) scale(0.14 -0.14)">
       <defs>
        <path id="DejaVuSans-32" d="M 1228 531 
L 3431 531 
L 3431 0 
L 469 0 
L 469 531 
Q 828 903 1448 1529 
Q 2069 2156 2228 2338 
Q 2531 2678 2651 2914 
Q 2772 3150 2772 3378 
Q 2772 3750 2511 3984 
Q 2250 4219 1831 4219 
Q 1534 4219 1204 4116 
Q 875 4013 500 3803 
L 500 4441 
Q 881 4594 1212 4672 
Q 1544 4750 1819 4750 
Q 2544 4750 2975 4387 
Q 3406 4025 3406 3419 
Q 3406 3131 3298 2873 
Q 3191 2616 2906 2266 
Q 2828 2175 2409 1742 
Q 1991 1309 1228 531 
z
" transform="scale(0.015625)"/>
       </defs>
       <use xlink:href="#DejaVuSans-32"/>
       <use xlink:href="#DejaVuSans-30" x="63.623047"/>
      </g>
     </g>
    </g>
    <g id="xtick_4">
     <g id="line2d_7">
      <path d="M 184.891139 278.630906 
L 184.891139 12.518906 
" clip-path="url(#pac9bd16dc0)" style="fill: none; stroke: #ffffff; stroke-linecap: square"/>
     </g>
     <g id="line2d_8">
      <g>
       <use xlink:href="#ma3f2fdab49" x="184.891139" y="278.630906" style="stroke: #000000; stroke-width: 0.8"/>
      </g>
     </g>
     <g id="text_4">
      <!-- 30 -->
      <g transform="translate(175.983639 296.268719) scale(0.14 -0.14)">
       <defs>
        <path id="DejaVuSans-33" d="M 2597 2516 
Q 3050 2419 3304 2112 
Q 3559 1806 3559 1356 
Q 3559 666 3084 287 
Q 2609 -91 1734 -91 
Q 1441 -91 1130 -33 
Q 819 25 488 141 
L 488 750 
Q 750 597 1062 519 
Q 1375 441 1716 441 
Q 2309 441 2620 675 
Q 2931 909 2931 1356 
Q 2931 1769 2642 2001 
Q 2353 2234 1838 2234 
L 1294 2234 
L 1294 2753 
L 1863 2753 
Q 2328 2753 2575 2939 
Q 2822 3125 2822 3475 
Q 2822 3834 2567 4026 
Q 2313 4219 1838 4219 
Q 1578 4219 1281 4162 
Q 984 4106 628 3988 
L 628 4550 
Q 988 4650 1302 4700 
Q 1616 4750 1894 4750 
Q 2613 4750 3031 4423 
Q 3450 4097 3450 3541 
Q 3450 3153 3228 2886 
Q 3006 2619 2597 2516 
z
" transform="scale(0.015625)"/>
       </defs>
       <use xlink:href="#DejaVuSans-33"/>
       <use xlink:href="#DejaVuSans-30" x="63.623047"/>
      </g>
     </g>
    </g>
    <g id="xtick_5">
     <g id="line2d_9">
      <path d="M 225.986651 278.630906 
L 225.986651 12.518906 
" clip-path="url(#pac9bd16dc0)" style="fill: none; stroke: #ffffff; stroke-linecap: square"/>
     </g>
     <g id="line2d_10">
      <g>
       <use xlink:href="#ma3f2fdab49" x="225.986651" y="278.630906" style="stroke: #000000; stroke-width: 0.8"/>
      </g>
     </g>
     <g id="text_5">
      <!-- 40 -->
      <g transform="translate(217.079151 296.268719) scale(0.14 -0.14)">
       <defs>
        <path id="DejaVuSans-34" d="M 2419 4116 
L 825 1625 
L 2419 1625 
L 2419 4116 
z
M 2253 4666 
L 3047 4666 
L 3047 1625 
L 3713 1625 
L 3713 1100 
L 3047 1100 
L 3047 0 
L 2419 0 
L 2419 1100 
L 313 1100 
L 313 1709 
L 2253 4666 
z
" transform="scale(0.015625)"/>
       </defs>
       <use xlink:href="#DejaVuSans-34"/>
       <use xlink:href="#DejaVuSans-30" x="63.623047"/>
      </g>
     </g>
    </g>
    <g id="xtick_6">
     <g id="line2d_11">
      <path d="M 267.082163 278.630906 
L 267.082163 12.518906 
" clip-path="url(#pac9bd16dc0)" style="fill: none; stroke: #ffffff; stroke-linecap: square"/>
     </g>
     <g id="line2d_12">
      <g>
       <use xlink:href="#ma3f2fdab49" x="267.082163" y="278.630906" style="stroke: #000000; stroke-width: 0.8"/>
      </g>
     </g>
     <g id="text_6">
      <!-- 50 -->
      <g transform="translate(258.174663 296.268719) scale(0.14 -0.14)">
       <defs>
        <path id="DejaVuSans-35" d="M 691 4666 
L 3169 4666 
L 3169 4134 
L 1269 4134 
L 1269 2991 
Q 1406 3038 1543 3061 
Q 1681 3084 1819 3084 
Q 2600 3084 3056 2656 
Q 3513 2228 3513 1497 
Q 3513 744 3044 326 
Q 2575 -91 1722 -91 
Q 1428 -91 1123 -41 
Q 819 9 494 109 
L 494 744 
Q 775 591 1075 516 
Q 1375 441 1709 441 
Q 2250 441 2565 725 
Q 2881 1009 2881 1497 
Q 2881 1984 2565 2268 
Q 2250 2553 1709 2553 
Q 1456 2553 1204 2497 
Q 953 2441 691 2322 
L 691 4666 
z
" transform="scale(0.015625)"/>
       </defs>
       <use xlink:href="#DejaVuSans-35"/>
       <use xlink:href="#DejaVuSans-30" x="63.623047"/>
      </g>
     </g>
    </g>
    <g id="xtick_7">
     <g id="line2d_13">
      <path d="M 308.177675 278.630906 
L 308.177675 12.518906 
" clip-path="url(#pac9bd16dc0)" style="fill: none; stroke: #ffffff; stroke-linecap: square"/>
     </g>
     <g id="line2d_14">
      <g>
       <use xlink:href="#ma3f2fdab49" x="308.177675" y="278.630906" style="stroke: #000000; stroke-width: 0.8"/>
      </g>
     </g>
     <g id="text_7">
      <!-- 60 -->
      <g transform="translate(299.270175 296.268719) scale(0.14 -0.14)">
       <defs>
        <path id="DejaVuSans-36" d="M 2113 2584 
Q 1688 2584 1439 2293 
Q 1191 2003 1191 1497 
Q 1191 994 1439 701 
Q 1688 409 2113 409 
Q 2538 409 2786 701 
Q 3034 994 3034 1497 
Q 3034 2003 2786 2293 
Q 2538 2584 2113 2584 
z
M 3366 4563 
L 3366 3988 
Q 3128 4100 2886 4159 
Q 2644 4219 2406 4219 
Q 1781 4219 1451 3797 
Q 1122 3375 1075 2522 
Q 1259 2794 1537 2939 
Q 1816 3084 2150 3084 
Q 2853 3084 3261 2657 
Q 3669 2231 3669 1497 
Q 3669 778 3244 343 
Q 2819 -91 2113 -91 
Q 1303 -91 875 529 
Q 447 1150 447 2328 
Q 447 3434 972 4092 
Q 1497 4750 2381 4750 
Q 2619 4750 2861 4703 
Q 3103 4656 3366 4563 
z
" transform="scale(0.015625)"/>
       </defs>
       <use xlink:href="#DejaVuSans-36"/>
       <use xlink:href="#DejaVuSans-30" x="63.623047"/>
      </g>
     </g>
    </g>
    <g id="xtick_8">
     <g id="line2d_15">
      <path d="M 349.273187 278.630906 
L 349.273187 12.518906 
" clip-path="url(#pac9bd16dc0)" style="fill: none; stroke: #ffffff; stroke-linecap: square"/>
     </g>
     <g id="line2d_16">
      <g>
       <use xlink:href="#ma3f2fdab49" x="349.273187" y="278.630906" style="stroke: #000000; stroke-width: 0.8"/>
      </g>
     </g>
     <g id="text_8">
      <!-- 70 -->
      <g transform="translate(340.365687 296.268719) scale(0.14 -0.14)">
       <defs>
        <path id="DejaVuSans-37" d="M 525 4666 
L 3525 4666 
L 3525 4397 
L 1831 0 
L 1172 0 
L 2766 4134 
L 525 4134 
L 525 4666 
z
" transform="scale(0.015625)"/>
       </defs>
       <use xlink:href="#DejaVuSans-37"/>
       <use xlink:href="#DejaVuSans-30" x="63.623047"/>
      </g>
     </g>
    </g>
    <g id="xtick_9">
     <g id="line2d_17">
      <path d="M 390.368699 278.630906 
L 390.368699 12.518906 
" clip-path="url(#pac9bd16dc0)" style="fill: none; stroke: #ffffff; stroke-linecap: square"/>
     </g>
     <g id="line2d_18">
      <g>
       <use xlink:href="#ma3f2fdab49" x="390.368699" y="278.630906" style="stroke: #000000; stroke-width: 0.8"/>
      </g>
     </g>
     <g id="text_9">
      <!-- 80 -->
      <g transform="translate(381.461199 296.268719) scale(0.14 -0.14)">
       <defs>
        <path id="DejaVuSans-38" d="M 2034 2216 
Q 1584 2216 1326 1975 
Q 1069 1734 1069 1313 
Q 1069 891 1326 650 
Q 1584 409 2034 409 
Q 2484 409 2743 651 
Q 3003 894 3003 1313 
Q 3003 1734 2745 1975 
Q 2488 2216 2034 2216 
z
M 1403 2484 
Q 997 2584 770 2862 
Q 544 3141 544 3541 
Q 544 4100 942 4425 
Q 1341 4750 2034 4750 
Q 2731 4750 3128 4425 
Q 3525 4100 3525 3541 
Q 3525 3141 3298 2862 
Q 3072 2584 2669 2484 
Q 3125 2378 3379 2068 
Q 3634 1759 3634 1313 
Q 3634 634 3220 271 
Q 2806 -91 2034 -91 
Q 1263 -91 848 271 
Q 434 634 434 1313 
Q 434 1759 690 2068 
Q 947 2378 1403 2484 
z
M 1172 3481 
Q 1172 3119 1398 2916 
Q 1625 2713 2034 2713 
Q 2441 2713 2670 2916 
Q 2900 3119 2900 3481 
Q 2900 3844 2670 4047 
Q 2441 4250 2034 4250 
Q 1625 4250 1398 4047 
Q 1172 3844 1172 3481 
z
" transform="scale(0.015625)"/>
       </defs>
       <use xlink:href="#DejaVuSans-38"/>
       <use xlink:href="#DejaVuSans-30" x="63.623047"/>
      </g>
     </g>
    </g>
   </g>
   <g id="matplotlib.axis_2">
    <g id="ytick_1">
     <g id="line2d_19">
      <defs>
       <path id="m9721ae9273" d="M 0 0 
L -3.5 0 
" style="stroke: #000000; stroke-width: 0.8"/>
      </defs>
      <g>
       <use xlink:href="#m9721ae9273" x="45.371875" y="278.630906" style="stroke: #000000; stroke-width: 0.8"/>
      </g>
     </g>
     <g id="text_10">
      <!-- 0.70 -->
      <g transform="translate(7.2 283.949813) scale(0.14 -0.14)">
       <defs>
        <path id="DejaVuSans-2e" d="M 684 794 
L 1344 794 
L 1344 0 
L 684 0 
L 684 794 
z
" transform="scale(0.015625)"/>
       </defs>
       <use xlink:href="#DejaVuSans-30"/>
       <use xlink:href="#DejaVuSans-2e" x="63.623047"/>
       <use xlink:href="#DejaVuSans-37" x="95.410156"/>
       <use xlink:href="#DejaVuSans-30" x="159.033203"/>
      </g>
     </g>
    </g>
    <g id="ytick_2">
     <g id="line2d_20">
      <g>
       <use xlink:href="#m9721ae9273" x="45.371875" y="240.614906" style="stroke: #000000; stroke-width: 0.8"/>
      </g>
     </g>
     <g id="text_11">
      <!-- 0.75 -->
      <g transform="translate(7.2 245.933812) scale(0.14 -0.14)">
       <use xlink:href="#DejaVuSans-30"/>
       <use xlink:href="#DejaVuSans-2e" x="63.623047"/>
       <use xlink:href="#DejaVuSans-37" x="95.410156"/>
       <use xlink:href="#DejaVuSans-35" x="159.033203"/>
      </g>
     </g>
    </g>
    <g id="ytick_3">
     <g id="line2d_21">
      <g>
       <use xlink:href="#m9721ae9273" x="45.371875" y="202.598906" style="stroke: #000000; stroke-width: 0.8"/>
      </g>
     </g>
     <g id="text_12">
      <!-- 0.80 -->
      <g transform="translate(7.2 207.917813) scale(0.14 -0.14)">
       <use xlink:href="#DejaVuSans-30"/>
       <use xlink:href="#DejaVuSans-2e" x="63.623047"/>
       <use xlink:href="#DejaVuSans-38" x="95.410156"/>
       <use xlink:href="#DejaVuSans-30" x="159.033203"/>
      </g>
     </g>
    </g>
    <g id="ytick_4">
     <g id="line2d_22">
      <g>
       <use xlink:href="#m9721ae9273" x="45.371875" y="164.582906" style="stroke: #000000; stroke-width: 0.8"/>
      </g>
     </g>
     <g id="text_13">
      <!-- 0.85 -->
      <g transform="translate(7.2 169.901812) scale(0.14 -0.14)">
       <use xlink:href="#DejaVuSans-30"/>
       <use xlink:href="#DejaVuSans-2e" x="63.623047"/>
       <use xlink:href="#DejaVuSans-38" x="95.410156"/>
       <use xlink:href="#DejaVuSans-35" x="159.033203"/>
      </g>
     </g>
    </g>
    <g id="ytick_5">
     <g id="line2d_23">
      <g>
       <use xlink:href="#m9721ae9273" x="45.371875" y="126.566906" style="stroke: #000000; stroke-width: 0.8"/>
      </g>
     </g>
     <g id="text_14">
      <!-- 0.90 -->
      <g transform="translate(7.2 131.885812) scale(0.14 -0.14)">
       <defs>
        <path id="DejaVuSans-39" d="M 703 97 
L 703 672 
Q 941 559 1184 500 
Q 1428 441 1663 441 
Q 2288 441 2617 861 
Q 2947 1281 2994 2138 
Q 2813 1869 2534 1725 
Q 2256 1581 1919 1581 
Q 1219 1581 811 2004 
Q 403 2428 403 3163 
Q 403 3881 828 4315 
Q 1253 4750 1959 4750 
Q 2769 4750 3195 4129 
Q 3622 3509 3622 2328 
Q 3622 1225 3098 567 
Q 2575 -91 1691 -91 
Q 1453 -91 1209 -44 
Q 966 3 703 97 
z
M 1959 2075 
Q 2384 2075 2632 2365 
Q 2881 2656 2881 3163 
Q 2881 3666 2632 3958 
Q 2384 4250 1959 4250 
Q 1534 4250 1286 3958 
Q 1038 3666 1038 3163 
Q 1038 2656 1286 2365 
Q 1534 2075 1959 2075 
z
" transform="scale(0.015625)"/>
       </defs>
       <use xlink:href="#DejaVuSans-30"/>
       <use xlink:href="#DejaVuSans-2e" x="63.623047"/>
       <use xlink:href="#DejaVuSans-39" x="95.410156"/>
       <use xlink:href="#DejaVuSans-30" x="159.033203"/>
      </g>
     </g>
    </g>
    <g id="ytick_6">
     <g id="line2d_24">
      <g>
       <use xlink:href="#m9721ae9273" x="45.371875" y="88.550906" style="stroke: #000000; stroke-width: 0.8"/>
      </g>
     </g>
     <g id="text_15">
      <!-- 0.95 -->
      <g transform="translate(7.2 93.869813) scale(0.14 -0.14)">
       <use xlink:href="#DejaVuSans-30"/>
       <use xlink:href="#DejaVuSans-2e" x="63.623047"/>
       <use xlink:href="#DejaVuSans-39" x="95.410156"/>
       <use xlink:href="#DejaVuSans-35" x="159.033203"/>
      </g>
     </g>
    </g>
    <g id="ytick_7">
     <g id="line2d_25">
      <g>
       <use xlink:href="#m9721ae9273" x="45.371875" y="50.534906" style="stroke: #000000; stroke-width: 0.8"/>
      </g>
     </g>
     <g id="text_16">
      <!-- 1.00 -->
      <g transform="translate(7.2 55.853813) scale(0.14 -0.14)">
       <use xlink:href="#DejaVuSans-31"/>
       <use xlink:href="#DejaVuSans-2e" x="63.623047"/>
       <use xlink:href="#DejaVuSans-30" x="95.410156"/>
       <use xlink:href="#DejaVuSans-30" x="159.033203"/>
      </g>
     </g>
    </g>
    <g id="ytick_8">
     <g id="line2d_26">
      <g>
       <use xlink:href="#m9721ae9273" x="45.371875" y="12.518906" style="stroke: #000000; stroke-width: 0.8"/>
      </g>
     </g>
     <g id="text_17">
      <!-- 1.05 -->
      <g transform="translate(7.2 17.837812) scale(0.14 -0.14)">
       <use xlink:href="#DejaVuSans-31"/>
       <use xlink:href="#DejaVuSans-2e" x="63.623047"/>
       <use xlink:href="#DejaVuSans-30" x="95.410156"/>
       <use xlink:href="#DejaVuSans-35" x="159.033203"/>
      </g>
     </g>
    </g>
   </g>
   <g id="line2d_27">
    <path d="M 61.604602 53.777981 
L 65.714153 53.487416 
L 69.823705 54.189821 
L 73.933256 59.050721 
L 78.042807 58.312511 
L 82.152358 63.423551 
L 86.26191 63.932246 
L 90.371461 64.006496 
L 94.481012 74.900951 
L 98.590563 75.136406 
L 102.700114 74.212406 
L 106.809666 82.083731 
L 110.919217 86.043071 
L 115.028768 113.370701 
L 119.138319 111.831086 
L 123.24787 122.599646 
L 127.357422 135.760376 
L 131.466973 150.720349 
L 135.576524 157.180429 
L 139.686075 177.157474 
L 143.795626 170.555329 
L 147.905178 188.249186 
L 152.014729 182.077444 
L 156.12428 195.991646 
L 160.233831 200.972336 
L 164.343382 196.243106 
L 168.452934 195.988511 
L 172.562485 204.233149 
L 176.672036 220.739914 
L 180.781587 220.987001 
L 184.891139 233.510336 
L 189.00069 242.519254 
L 193.110241 236.276891 
L 197.219792 232.320521 
L 201.329343 236.864621 
L 205.438895 242.866826 
L 209.548446 239.035691 
L 213.657997 229.068784 
L 217.767548 234.344494 
L 221.877099 218.145784 
L 225.986651 189.386036 
L 230.096202 200.985536 
L 234.205753 199.225316 
L 238.315304 187.053431 
L 242.424855 186.954679 
L 246.534407 196.528061 
L 250.643958 198.679826 
L 254.753509 191.015906 
L 258.86306 192.170246 
L 262.972611 199.843654 
L 267.082163 192.460151 
L 271.191714 191.981239 
L 275.301265 189.654409 
L 279.410816 185.689459 
L 283.520368 186.556451 
L 287.629919 186.488636 
L 291.73947 181.970936 
L 295.849021 189.661174 
L 299.958572 182.775476 
L 304.068124 180.840769 
L 308.177675 186.506209 
L 312.287226 189.691946 
L 316.396777 170.408726 
L 320.506328 177.589196 
L 324.61588 185.472814 
L 328.725431 179.866361 
L 332.834982 180.852896 
L 336.944533 179.894081 
L 341.054084 165.059096 
L 345.163636 173.267269 
L 349.273187 164.818444 
L 353.382738 169.732721 
L 357.492289 159.777776 
L 361.60184 156.400886 
L 365.711392 149.403566 
L 369.820943 144.122081 
L 373.930494 132.212876 
L 378.040045 130.332866 
L 382.149597 117.521276 
L 386.259148 107.722834 
" clip-path="url(#pac9bd16dc0)" style="fill: none; stroke: #443983; stroke-width: 1.5; stroke-linecap: square"/>
   </g>
   <g id="line2d_28">
    <path d="M 61.604602 53.622881 
L 65.714153 53.429996 
L 69.823705 54.182891 
L 73.933256 59.144936 
L 78.042807 58.240406 
L 82.152358 63.206081 
L 86.26191 63.737216 
L 90.371461 63.869546 
L 94.481012 75.153896 
L 98.590563 75.545606 
L 102.700114 74.541086 
L 106.809666 82.590281 
L 110.919217 86.367626 
L 115.028768 112.669781 
L 119.138319 111.544646 
L 123.24787 122.523581 
L 127.357422 134.439551 
L 131.466973 146.977736 
L 135.576524 152.919469 
L 139.686075 171.033829 
L 143.795626 166.557379 
L 147.905178 182.789914 
L 152.014729 176.801074 
L 156.12428 191.612711 
L 160.233831 195.380816 
L 164.343382 190.521236 
L 168.452934 189.770981 
L 172.562485 196.337734 
L 176.672036 210.440531 
L 180.781587 208.901494 
L 184.891139 220.876864 
L 189.00069 223.161124 
L 193.110241 219.872426 
L 197.219792 213.155029 
L 201.329343 222.003896 
L 205.438895 227.938286 
L 209.548446 222.653501 
L 213.657997 212.414426 
L 217.767548 219.196339 
L 221.877099 200.329661 
L 225.986651 172.231151 
L 230.096202 174.995396 
L 234.205753 165.819581 
L 238.315304 162.558026 
L 242.424855 158.775731 
L 246.534407 155.320796 
L 250.643958 161.396921 
L 254.753509 154.608574 
L 258.86306 158.436574 
L 262.972611 155.353219 
L 267.082163 149.010289 
L 271.191714 143.205506 
L 275.301265 150.721916 
L 279.410816 148.418351 
L 283.520368 148.550351 
L 287.629919 151.730066 
L 291.73947 148.867976 
L 295.849021 151.262786 
L 299.958572 151.412276 
L 304.068124 150.345056 
L 308.177675 151.375069 
L 312.287226 148.798676 
L 316.396777 143.435516 
L 320.506328 151.658869 
L 324.61588 152.445836 
L 328.725431 152.577424 
L 332.834982 152.256911 
L 336.944533 148.580216 
L 341.054084 138.653981 
L 345.163636 140.946656 
L 349.273187 137.684029 
L 353.382738 138.469099 
L 357.492289 139.001471 
L 361.60184 126.492574 
L 365.711392 127.065536 
L 369.820943 120.425936 
L 373.930494 113.543456 
L 378.040045 113.123861 
L 382.149597 104.252141 
L 386.259148 98.153494 
" clip-path="url(#pac9bd16dc0)" style="fill: none; stroke: #31688e; stroke-width: 1.5; stroke-linecap: square"/>
   </g>
   <g id="line2d_29">
    <path d="M 61.604602 53.242391 
L 65.714153 53.156096 
L 69.823705 53.738381 
L 73.933256 58.611491 
L 78.042807 57.663071 
L 82.152358 62.312111 
L 86.26191 62.768006 
L 90.371461 62.958416 
L 94.481012 74.651966 
L 98.590563 75.062156 
L 102.700114 73.787201 
L 106.809666 80.711096 
L 110.919217 84.689246 
L 115.028768 114.337106 
L 119.138319 113.001431 
L 123.24787 126.030821 
L 127.357422 139.443506 
L 131.466973 155.630254 
L 135.576524 166.099256 
L 139.686075 183.211984 
L 143.795626 179.263781 
L 147.905178 195.298069 
L 152.014729 188.337296 
L 156.12428 202.745674 
L 160.233831 204.851486 
L 164.343382 195.659419 
L 168.452934 192.945911 
L 172.562485 198.013144 
L 176.672036 212.214776 
L 180.781587 209.512571 
L 184.891139 216.547676 
L 189.00069 220.914071 
L 193.110241 212.582066 
L 197.219792 199.253036 
L 201.329343 210.524599 
L 205.438895 214.113844 
L 209.548446 208.249331 
L 213.657997 194.029301 
L 217.767548 200.422721 
L 221.877099 182.060201 
L 225.986651 158.149061 
L 230.096202 154.066054 
L 234.205753 138.986621 
L 238.315304 132.885086 
L 242.424855 125.481371 
L 246.534407 120.527246 
L 250.643958 120.696041 
L 254.753509 114.686576 
L 258.86306 116.465441 
L 262.972611 116.466926 
L 267.082163 114.769819 
L 271.191714 112.492076 
L 275.301265 113.728586 
L 279.410816 112.207121 
L 283.520368 112.810856 
L 287.629919 113.852831 
L 291.73947 114.048521 
L 295.849021 115.813031 
L 299.958572 117.473839 
L 304.068124 115.639121 
L 308.177675 117.862249 
L 312.287226 117.617884 
L 316.396777 116.416766 
L 320.506328 119.281991 
L 324.61588 119.109401 
L 328.725431 117.896486 
L 332.834982 116.856821 
L 336.944533 116.360501 
L 341.054084 110.123336 
L 345.163636 110.626174 
L 349.273187 109.348496 
L 353.382738 112.673246 
L 357.492289 107.529536 
L 361.60184 105.959396 
L 365.711392 104.986391 
L 369.820943 101.183141 
L 373.930494 95.774936 
L 378.040045 98.935511 
L 382.149597 90.201566 
L 386.259148 84.018026 
" clip-path="url(#pac9bd16dc0)" style="fill: none; stroke: #21918c; stroke-width: 1.5; stroke-linecap: square"/>
   </g>
   <g id="line2d_30">
    <path d="M 61.604602 53.171606 
L 65.714153 52.982516 
L 69.823705 53.655716 
L 73.933256 58.578656 
L 78.042807 57.534206 
L 82.152358 62.194136 
L 86.26191 62.540966 
L 90.371461 62.656961 
L 94.481012 74.631836 
L 98.590563 75.213626 
L 102.700114 73.860296 
L 106.809666 80.728091 
L 110.919217 84.266846 
L 115.028768 114.268796 
L 119.138319 113.151416 
L 123.24787 127.559876 
L 127.357422 141.463271 
L 131.466973 159.994669 
L 135.576524 173.455369 
L 139.686075 188.827511 
L 143.795626 184.874606 
L 147.905178 199.910809 
L 152.014729 193.092679 
L 156.12428 204.407554 
L 160.233831 204.915259 
L 164.343382 191.953189 
L 168.452934 189.821801 
L 172.562485 193.730899 
L 176.672036 206.243179 
L 180.781587 199.733351 
L 184.891139 207.264034 
L 189.00069 207.397849 
L 193.110241 202.130884 
L 197.219792 187.296806 
L 201.329343 195.896194 
L 205.438895 195.816334 
L 209.548446 191.839009 
L 213.657997 177.512554 
L 217.767548 181.965986 
L 221.877099 169.199771 
L 225.986651 145.878836 
L 230.096202 136.990286 
L 234.205753 120.776396 
L 238.315304 119.416631 
L 242.424855 108.296126 
L 246.534407 107.541911 
L 250.643958 105.240326 
L 254.753509 100.935311 
L 258.86306 103.218581 
L 262.972611 102.204821 
L 267.082163 99.594191 
L 271.191714 99.223436 
L 275.301265 100.656791 
L 279.410816 100.386191 
L 283.520368 101.459681 
L 287.629919 102.914816 
L 291.73947 102.662366 
L 295.849021 103.855151 
L 299.958572 105.124166 
L 304.068124 106.613291 
L 308.177675 108.899366 
L 312.287226 108.157856 
L 316.396777 107.498681 
L 320.506328 110.188181 
L 324.61588 109.228541 
L 328.725431 111.101869 
L 332.834982 111.825311 
L 336.944533 110.559761 
L 341.054084 108.057536 
L 345.163636 110.541281 
L 349.273187 109.627676 
L 353.382738 106.129676 
L 357.492289 105.445421 
L 361.60184 101.596796 
L 365.711392 100.443611 
L 369.820943 96.562481 
L 373.930494 93.776126 
L 378.040045 94.938881 
L 382.149597 85.264106 
L 386.259148 76.118981 
" clip-path="url(#pac9bd16dc0)" style="fill: none; stroke: #35b779; stroke-width: 1.5; stroke-linecap: square"/>
   </g>
   <g id="line2d_31">
    <path d="M 61.604602 53.083991 
L 65.714153 52.953971 
L 69.823705 53.505896 
L 73.933256 58.393196 
L 78.042807 57.381086 
L 82.152358 61.882781 
L 86.26191 62.311781 
L 90.371461 62.511926 
L 94.481012 74.601641 
L 98.590563 75.326816 
L 102.700114 73.781096 
L 106.809666 80.103566 
L 110.919217 83.578961 
L 115.028768 112.422446 
L 119.138319 110.486171 
L 123.24787 123.791936 
L 127.357422 137.207756 
L 131.466973 155.795831 
L 135.576524 173.197474 
L 139.686075 187.224536 
L 143.795626 185.250064 
L 147.905178 198.059096 
L 152.014729 193.350904 
L 156.12428 200.079109 
L 160.233831 199.846789 
L 164.343382 185.545249 
L 168.452934 184.375069 
L 172.562485 189.095224 
L 176.672036 199.636084 
L 180.781587 193.943584 
L 184.891139 199.440889 
L 189.00069 196.074806 
L 193.110241 192.371381 
L 197.219792 178.775711 
L 201.329343 184.276811 
L 205.438895 182.083714 
L 209.548446 182.026871 
L 213.657997 165.955294 
L 217.767548 171.548876 
L 221.877099 153.444911 
L 225.986651 134.241881 
L 230.096202 125.659159 
L 234.205753 112.968184 
L 238.315304 110.019386 
L 242.424855 104.492381 
L 246.534407 97.251851 
L 250.643958 96.667091 
L 254.753509 96.256984 
L 258.86306 94.852834 
L 262.972611 97.960114 
L 267.082163 96.810311 
L 271.191714 96.547219 
L 275.301265 97.738766 
L 279.410816 97.643396 
L 283.520368 98.651051 
L 287.629919 99.512929 
L 291.73947 100.741354 
L 295.849021 102.593644 
L 299.958572 103.63533 
L 304.068124 105.245111 
L 308.177675 105.784661 
L 312.287226 106.917469 
L 316.396777 107.357441 
L 320.506328 107.786524 
L 324.61588 108.179471 
L 328.725431 110.253934 
L 332.834982 110.142394 
L 336.944533 110.118881 
L 341.054084 108.460466 
L 345.163636 109.810249 
L 349.273187 110.111704 
L 353.382738 108.586774 
L 357.492289 107.534899 
L 361.60184 101.824661 
L 365.711392 102.381619 
L 369.820943 98.914144 
L 373.930494 95.120546 
L 378.040045 94.111406 
L 382.149597 86.566616 
L 386.259148 73.722851 
" clip-path="url(#pac9bd16dc0)" style="fill: none; stroke: #90d743; stroke-width: 1.5; stroke-linecap: square"/>
   </g>
   <g id="patch_3">
    <path d="M 45.371875 278.630906 
L 45.371875 12.518906 
" style="fill: none; stroke: #000000; stroke-width: 0.8; stroke-linejoin: miter; stroke-linecap: square"/>
   </g>
   <g id="patch_4">
    <path d="M 402.491875 278.630906 
L 402.491875 12.518906 
" style="fill: none; stroke: #000000; stroke-width: 0.8; stroke-linejoin: miter; stroke-linecap: square"/>
   </g>
   <g id="patch_5">
    <path d="M 45.371875 278.630906 
L 402.491875 278.630906 
" style="fill: none; stroke: #000000; stroke-width: 0.8; stroke-linejoin: miter; stroke-linecap: square"/>
   </g>
   <g id="patch_6">
    <path d="M 45.371875 12.518906 
L 402.491875 12.518906 
" style="fill: none; stroke: #000000; stroke-width: 0.8; stroke-linejoin: miter; stroke-linecap: square"/>
   </g>
  </g>
 </g>
 <defs>
  <clipPath id="pac9bd16dc0">
   <rect x="45.371875" y="12.518906" width="357.12" height="266.112"/>
  </clipPath>
 </defs>
</svg>
