<?xml version="1.0" encoding="utf-8" standalone="no"?>
<!DOCTYPE svg PUBLIC "-//W3C//DTD SVG 1.1//EN"
  "http://www.w3.org/Graphics/SVG/1.1/DTD/svg11.dtd">
<svg xmlns:xlink="http://www.w3.org/1999/xlink" width="409.691875pt" height="306.380281pt" viewBox="0 0 409.691875 306.380281" xmlns="http://www.w3.org/2000/svg" version="1.1">
 <metadata>
  <rdf:RDF xmlns:dc="http://purl.org/dc/elements/1.1/" xmlns:cc="http://creativecommons.org/ns#" xmlns:rdf="http://www.w3.org/1999/02/22-rdf-syntax-ns#">
   <cc:Work>
    <dc:type rdf:resource="http://purl.org/dc/dcmitype/StillImage"/>
    <dc:date>2024-09-29T20:27:00.141949</dc:date>
    <dc:format>image/svg+xml</dc:format>
    <dc:creator>
     <cc:Agent>
      <dc:title>Matplotlib v3.7.1, https://matplotlib.org/</dc:title>
     </cc:Agent>
    </dc:creator>
   </cc:Work>
  </rdf:RDF>
 </metadata>
 <defs>
  <style type="text/css">*{stroke-linejoin: round; stroke-linecap: butt}</style>
 </defs>
 <g id="figure_1">
  <g id="patch_1">
   <path d="M 0 306.380281 
L 409.691875 306.380281 
L 409.691875 0 
L 0 0 
z
" style="fill: #ffffff"/>
  </g>
  <g id="axes_1">
   <g id="patch_2">
    <path d="M 45.371875 278.630906 
L 402.491875 278.630906 
L 402.491875 12.518906 
L 45.371875 12.518906 
z
" style="fill: #f2f2f2"/>
   </g>
   <g id="matplotlib.axis_1">
    <g id="xtick_1">
     <g id="line2d_1">
      <path d="M 61.604602 278.630906 
L 61.604602 12.518906 
" clip-path="url(#p9370eadbee)" style="fill: none; stroke: #ffffff; stroke-linecap: square"/>
     </g>
     <g id="line2d_2">
      <defs>
       <path id="m290d79262a" d="M 0 0 
L 0 3.5 
" style="stroke: #000000; stroke-width: 0.8"/>
      </defs>
      <g>
       <use xlink:href="#m290d79262a" x="61.604602" y="278.630906" style="stroke: #000000; stroke-width: 0.8"/>
      </g>
     </g>
     <g id="text_1">
      <!-- 0 -->
      <g transform="translate(57.150852 296.268719) scale(0.14 -0.14)">
       <defs>
        <path id="DejaVuSans-30" d="M 2034 4250 
Q 1547 4250 1301 3770 
Q 1056 3291 1056 2328 
Q 1056 1369 1301 889 
Q 1547 409 2034 409 
Q 2525 409 2770 889 
Q 3016 1369 3016 2328 
Q 3016 3291 2770 3770 
Q 2525 4250 2034 4250 
z
M 2034 4750 
Q 2819 4750 3233 4129 
Q 3647 3509 3647 2328 
Q 3647 1150 3233 529 
Q 2819 -91 2034 -91 
Q 1250 -91 836 529 
Q 422 1150 422 2328 
Q 422 3509 836 4129 
Q 1250 4750 2034 4750 
z
" transform="scale(0.015625)"/>
       </defs>
       <use xlink:href="#DejaVuSans-30"/>
      </g>
     </g>
    </g>
    <g id="xtick_2">
     <g id="line2d_3">
      <path d="M 102.700114 278.630906 
L 102.700114 12.518906 
" clip-path="url(#p9370eadbee)" style="fill: none; stroke: #ffffff; stroke-linecap: square"/>
     </g>
     <g id="line2d_4">
      <g>
       <use xlink:href="#m290d79262a" x="102.700114" y="278.630906" style="stroke: #000000; stroke-width: 0.8"/>
      </g>
     </g>
     <g id="text_2">
      <!-- 10 -->
      <g transform="translate(93.792614 296.268719) scale(0.14 -0.14)">
       <defs>
        <path id="DejaVuSans-31" d="M 794 531 
L 1825 531 
L 1825 4091 
L 703 3866 
L 703 4441 
L 1819 4666 
L 2450 4666 
L 2450 531 
L 3481 531 
L 3481 0 
L 794 0 
L 794 531 
z
" transform="scale(0.015625)"/>
       </defs>
       <use xlink:href="#DejaVuSans-31"/>
       <use xlink:href="#DejaVuSans-30" x="63.623047"/>
      </g>
     </g>
    </g>
    <g id="xtick_3">
     <g id="line2d_5">
      <path d="M 143.795626 278.630906 
L 143.795626 12.518906 
" clip-path="url(#p9370eadbee)" style="fill: none; stroke: #ffffff; stroke-linecap: square"/>
     </g>
     <g id="line2d_6">
      <g>
       <use xlink:href="#m290d79262a" x="143.795626" y="278.630906" style="stroke: #000000; stroke-width: 0.8"/>
      </g>
     </g>
     <g id="text_3">
      <!-- 20 -->
      <g transform="translate(134.888126 296.268719) scale(0.14 -0.14)">
       <defs>
        <path id="DejaVuSans-32" d="M 1228 531 
L 3431 531 
L 3431 0 
L 469 0 
L 469 531 
Q 828 903 1448 1529 
Q 2069 2156 2228 2338 
Q 2531 2678 2651 2914 
Q 2772 3150 2772 3378 
Q 2772 3750 2511 3984 
Q 2250 4219 1831 4219 
Q 1534 4219 1204 4116 
Q 875 4013 500 3803 
L 500 4441 
Q 881 4594 1212 4672 
Q 1544 4750 1819 4750 
Q 2544 4750 2975 4387 
Q 3406 4025 3406 3419 
Q 3406 3131 3298 2873 
Q 3191 2616 2906 2266 
Q 2828 2175 2409 1742 
Q 1991 1309 1228 531 
z
" transform="scale(0.015625)"/>
       </defs>
       <use xlink:href="#DejaVuSans-32"/>
       <use xlink:href="#DejaVuSans-30" x="63.623047"/>
      </g>
     </g>
    </g>
    <g id="xtick_4">
     <g id="line2d_7">
      <path d="M 184.891139 278.630906 
L 184.891139 12.518906 
" clip-path="url(#p9370eadbee)" style="fill: none; stroke: #ffffff; stroke-linecap: square"/>
     </g>
     <g id="line2d_8">
      <g>
       <use xlink:href="#m290d79262a" x="184.891139" y="278.630906" style="stroke: #000000; stroke-width: 0.8"/>
      </g>
     </g>
     <g id="text_4">
      <!-- 30 -->
      <g transform="translate(175.983639 296.268719) scale(0.14 -0.14)">
       <defs>
        <path id="DejaVuSans-33" d="M 2597 2516 
Q 3050 2419 3304 2112 
Q 3559 1806 3559 1356 
Q 3559 666 3084 287 
Q 2609 -91 1734 -91 
Q 1441 -91 1130 -33 
Q 819 25 488 141 
L 488 750 
Q 750 597 1062 519 
Q 1375 441 1716 441 
Q 2309 441 2620 675 
Q 2931 909 2931 1356 
Q 2931 1769 2642 2001 
Q 2353 2234 1838 2234 
L 1294 2234 
L 1294 2753 
L 1863 2753 
Q 2328 2753 2575 2939 
Q 2822 3125 2822 3475 
Q 2822 3834 2567 4026 
Q 2313 4219 1838 4219 
Q 1578 4219 1281 4162 
Q 984 4106 628 3988 
L 628 4550 
Q 988 4650 1302 4700 
Q 1616 4750 1894 4750 
Q 2613 4750 3031 4423 
Q 3450 4097 3450 3541 
Q 3450 3153 3228 2886 
Q 3006 2619 2597 2516 
z
" transform="scale(0.015625)"/>
       </defs>
       <use xlink:href="#DejaVuSans-33"/>
       <use xlink:href="#DejaVuSans-30" x="63.623047"/>
      </g>
     </g>
    </g>
    <g id="xtick_5">
     <g id="line2d_9">
      <path d="M 225.986651 278.630906 
L 225.986651 12.518906 
" clip-path="url(#p9370eadbee)" style="fill: none; stroke: #ffffff; stroke-linecap: square"/>
     </g>
     <g id="line2d_10">
      <g>
       <use xlink:href="#m290d79262a" x="225.986651" y="278.630906" style="stroke: #000000; stroke-width: 0.8"/>
      </g>
     </g>
     <g id="text_5">
      <!-- 40 -->
      <g transform="translate(217.079151 296.268719) scale(0.14 -0.14)">
       <defs>
        <path id="DejaVuSans-34" d="M 2419 4116 
L 825 1625 
L 2419 1625 
L 2419 4116 
z
M 2253 4666 
L 3047 4666 
L 3047 1625 
L 3713 1625 
L 3713 1100 
L 3047 1100 
L 3047 0 
L 2419 0 
L 2419 1100 
L 313 1100 
L 313 1709 
L 2253 4666 
z
" transform="scale(0.015625)"/>
       </defs>
       <use xlink:href="#DejaVuSans-34"/>
       <use xlink:href="#DejaVuSans-30" x="63.623047"/>
      </g>
     </g>
    </g>
    <g id="xtick_6">
     <g id="line2d_11">
      <path d="M 267.082163 278.630906 
L 267.082163 12.518906 
" clip-path="url(#p9370eadbee)" style="fill: none; stroke: #ffffff; stroke-linecap: square"/>
     </g>
     <g id="line2d_12">
      <g>
       <use xlink:href="#m290d79262a" x="267.082163" y="278.630906" style="stroke: #000000; stroke-width: 0.8"/>
      </g>
     </g>
     <g id="text_6">
      <!-- 50 -->
      <g transform="translate(258.174663 296.268719) scale(0.14 -0.14)">
       <defs>
        <path id="DejaVuSans-35" d="M 691 4666 
L 3169 4666 
L 3169 4134 
L 1269 4134 
L 1269 2991 
Q 1406 3038 1543 3061 
Q 1681 3084 1819 3084 
Q 2600 3084 3056 2656 
Q 3513 2228 3513 1497 
Q 3513 744 3044 326 
Q 2575 -91 1722 -91 
Q 1428 -91 1123 -41 
Q 819 9 494 109 
L 494 744 
Q 775 591 1075 516 
Q 1375 441 1709 441 
Q 2250 441 2565 725 
Q 2881 1009 2881 1497 
Q 2881 1984 2565 2268 
Q 2250 2553 1709 2553 
Q 1456 2553 1204 2497 
Q 953 2441 691 2322 
L 691 4666 
z
" transform="scale(0.015625)"/>
       </defs>
       <use xlink:href="#DejaVuSans-35"/>
       <use xlink:href="#DejaVuSans-30" x="63.623047"/>
      </g>
     </g>
    </g>
    <g id="xtick_7">
     <g id="line2d_13">
      <path d="M 308.177675 278.630906 
L 308.177675 12.518906 
" clip-path="url(#p9370eadbee)" style="fill: none; stroke: #ffffff; stroke-linecap: square"/>
     </g>
     <g id="line2d_14">
      <g>
       <use xlink:href="#m290d79262a" x="308.177675" y="278.630906" style="stroke: #000000; stroke-width: 0.8"/>
      </g>
     </g>
     <g id="text_7">
      <!-- 60 -->
      <g transform="translate(299.270175 296.268719) scale(0.14 -0.14)">
       <defs>
        <path id="DejaVuSans-36" d="M 2113 2584 
Q 1688 2584 1439 2293 
Q 1191 2003 1191 1497 
Q 1191 994 1439 701 
Q 1688 409 2113 409 
Q 2538 409 2786 701 
Q 3034 994 3034 1497 
Q 3034 2003 2786 2293 
Q 2538 2584 2113 2584 
z
M 3366 4563 
L 3366 3988 
Q 3128 4100 2886 4159 
Q 2644 4219 2406 4219 
Q 1781 4219 1451 3797 
Q 1122 3375 1075 2522 
Q 1259 2794 1537 2939 
Q 1816 3084 2150 3084 
Q 2853 3084 3261 2657 
Q 3669 2231 3669 1497 
Q 3669 778 3244 343 
Q 2819 -91 2113 -91 
Q 1303 -91 875 529 
Q 447 1150 447 2328 
Q 447 3434 972 4092 
Q 1497 4750 2381 4750 
Q 2619 4750 2861 4703 
Q 3103 4656 3366 4563 
z
" transform="scale(0.015625)"/>
       </defs>
       <use xlink:href="#DejaVuSans-36"/>
       <use xlink:href="#DejaVuSans-30" x="63.623047"/>
      </g>
     </g>
    </g>
    <g id="xtick_8">
     <g id="line2d_15">
      <path d="M 349.273187 278.630906 
L 349.273187 12.518906 
" clip-path="url(#p9370eadbee)" style="fill: none; stroke: #ffffff; stroke-linecap: square"/>
     </g>
     <g id="line2d_16">
      <g>
       <use xlink:href="#m290d79262a" x="349.273187" y="278.630906" style="stroke: #000000; stroke-width: 0.8"/>
      </g>
     </g>
     <g id="text_8">
      <!-- 70 -->
      <g transform="translate(340.365687 296.268719) scale(0.14 -0.14)">
       <defs>
        <path id="DejaVuSans-37" d="M 525 4666 
L 3525 4666 
L 3525 4397 
L 1831 0 
L 1172 0 
L 2766 4134 
L 525 4134 
L 525 4666 
z
" transform="scale(0.015625)"/>
       </defs>
       <use xlink:href="#DejaVuSans-37"/>
       <use xlink:href="#DejaVuSans-30" x="63.623047"/>
      </g>
     </g>
    </g>
    <g id="xtick_9">
     <g id="line2d_17">
      <path d="M 390.368699 278.630906 
L 390.368699 12.518906 
" clip-path="url(#p9370eadbee)" style="fill: none; stroke: #ffffff; stroke-linecap: square"/>
     </g>
     <g id="line2d_18">
      <g>
       <use xlink:href="#m290d79262a" x="390.368699" y="278.630906" style="stroke: #000000; stroke-width: 0.8"/>
      </g>
     </g>
     <g id="text_9">
      <!-- 80 -->
      <g transform="translate(381.461199 296.268719) scale(0.14 -0.14)">
       <defs>
        <path id="DejaVuSans-38" d="M 2034 2216 
Q 1584 2216 1326 1975 
Q 1069 1734 1069 1313 
Q 1069 891 1326 650 
Q 1584 409 2034 409 
Q 2484 409 2743 651 
Q 3003 894 3003 1313 
Q 3003 1734 2745 1975 
Q 2488 2216 2034 2216 
z
M 1403 2484 
Q 997 2584 770 2862 
Q 544 3141 544 3541 
Q 544 4100 942 4425 
Q 1341 4750 2034 4750 
Q 2731 4750 3128 4425 
Q 3525 4100 3525 3541 
Q 3525 3141 3298 2862 
Q 3072 2584 2669 2484 
Q 3125 2378 3379 2068 
Q 3634 1759 3634 1313 
Q 3634 634 3220 271 
Q 2806 -91 2034 -91 
Q 1263 -91 848 271 
Q 434 634 434 1313 
Q 434 1759 690 2068 
Q 947 2378 1403 2484 
z
M 1172 3481 
Q 1172 3119 1398 2916 
Q 1625 2713 2034 2713 
Q 2441 2713 2670 2916 
Q 2900 3119 2900 3481 
Q 2900 3844 2670 4047 
Q 2441 4250 2034 4250 
Q 1625 4250 1398 4047 
Q 1172 3844 1172 3481 
z
" transform="scale(0.015625)"/>
       </defs>
       <use xlink:href="#DejaVuSans-38"/>
       <use xlink:href="#DejaVuSans-30" x="63.623047"/>
      </g>
     </g>
    </g>
   </g>
   <g id="matplotlib.axis_2">
    <g id="ytick_1">
     <g id="line2d_19">
      <defs>
       <path id="mc8e7ea44a2" d="M 0 0 
L -3.5 0 
" style="stroke: #000000; stroke-width: 0.8"/>
      </defs>
      <g>
       <use xlink:href="#mc8e7ea44a2" x="45.371875" y="278.630906" style="stroke: #000000; stroke-width: 0.8"/>
      </g>
     </g>
     <g id="text_10">
      <!-- 0.70 -->
      <g transform="translate(7.2 283.949813) scale(0.14 -0.14)">
       <defs>
        <path id="DejaVuSans-2e" d="M 684 794 
L 1344 794 
L 1344 0 
L 684 0 
L 684 794 
z
" transform="scale(0.015625)"/>
       </defs>
       <use xlink:href="#DejaVuSans-30"/>
       <use xlink:href="#DejaVuSans-2e" x="63.623047"/>
       <use xlink:href="#DejaVuSans-37" x="95.410156"/>
       <use xlink:href="#DejaVuSans-30" x="159.033203"/>
      </g>
     </g>
    </g>
    <g id="ytick_2">
     <g id="line2d_20">
      <g>
       <use xlink:href="#mc8e7ea44a2" x="45.371875" y="240.614906" style="stroke: #000000; stroke-width: 0.8"/>
      </g>
     </g>
     <g id="text_11">
      <!-- 0.75 -->
      <g transform="translate(7.2 245.933812) scale(0.14 -0.14)">
       <use xlink:href="#DejaVuSans-30"/>
       <use xlink:href="#DejaVuSans-2e" x="63.623047"/>
       <use xlink:href="#DejaVuSans-37" x="95.410156"/>
       <use xlink:href="#DejaVuSans-35" x="159.033203"/>
      </g>
     </g>
    </g>
    <g id="ytick_3">
     <g id="line2d_21">
      <g>
       <use xlink:href="#mc8e7ea44a2" x="45.371875" y="202.598906" style="stroke: #000000; stroke-width: 0.8"/>
      </g>
     </g>
     <g id="text_12">
      <!-- 0.80 -->
      <g transform="translate(7.2 207.917813) scale(0.14 -0.14)">
       <use xlink:href="#DejaVuSans-30"/>
       <use xlink:href="#DejaVuSans-2e" x="63.623047"/>
       <use xlink:href="#DejaVuSans-38" x="95.410156"/>
       <use xlink:href="#DejaVuSans-30" x="159.033203"/>
      </g>
     </g>
    </g>
    <g id="ytick_4">
     <g id="line2d_22">
      <g>
       <use xlink:href="#mc8e7ea44a2" x="45.371875" y="164.582906" style="stroke: #000000; stroke-width: 0.8"/>
      </g>
     </g>
     <g id="text_13">
      <!-- 0.85 -->
      <g transform="translate(7.2 169.901812) scale(0.14 -0.14)">
       <use xlink:href="#DejaVuSans-30"/>
       <use xlink:href="#DejaVuSans-2e" x="63.623047"/>
       <use xlink:href="#DejaVuSans-38" x="95.410156"/>
       <use xlink:href="#DejaVuSans-35" x="159.033203"/>
      </g>
     </g>
    </g>
    <g id="ytick_5">
     <g id="line2d_23">
      <g>
       <use xlink:href="#mc8e7ea44a2" x="45.371875" y="126.566906" style="stroke: #000000; stroke-width: 0.8"/>
      </g>
     </g>
     <g id="text_14">
      <!-- 0.90 -->
      <g transform="translate(7.2 131.885812) scale(0.14 -0.14)">
       <defs>
        <path id="DejaVuSans-39" d="M 703 97 
L 703 672 
Q 941 559 1184 500 
Q 1428 441 1663 441 
Q 2288 441 2617 861 
Q 2947 1281 2994 2138 
Q 2813 1869 2534 1725 
Q 2256 1581 1919 1581 
Q 1219 1581 811 2004 
Q 403 2428 403 3163 
Q 403 3881 828 4315 
Q 1253 4750 1959 4750 
Q 2769 4750 3195 4129 
Q 3622 3509 3622 2328 
Q 3622 1225 3098 567 
Q 2575 -91 1691 -91 
Q 1453 -91 1209 -44 
Q 966 3 703 97 
z
M 1959 2075 
Q 2384 2075 2632 2365 
Q 2881 2656 2881 3163 
Q 2881 3666 2632 3958 
Q 2384 4250 1959 4250 
Q 1534 4250 1286 3958 
Q 1038 3666 1038 3163 
Q 1038 2656 1286 2365 
Q 1534 2075 1959 2075 
z
" transform="scale(0.015625)"/>
       </defs>
       <use xlink:href="#DejaVuSans-30"/>
       <use xlink:href="#DejaVuSans-2e" x="63.623047"/>
       <use xlink:href="#DejaVuSans-39" x="95.410156"/>
       <use xlink:href="#DejaVuSans-30" x="159.033203"/>
      </g>
     </g>
    </g>
    <g id="ytick_6">
     <g id="line2d_24">
      <g>
       <use xlink:href="#mc8e7ea44a2" x="45.371875" y="88.550906" style="stroke: #000000; stroke-width: 0.8"/>
      </g>
     </g>
     <g id="text_15">
      <!-- 0.95 -->
      <g transform="translate(7.2 93.869813) scale(0.14 -0.14)">
       <use xlink:href="#DejaVuSans-30"/>
       <use xlink:href="#DejaVuSans-2e" x="63.623047"/>
       <use xlink:href="#DejaVuSans-39" x="95.410156"/>
       <use xlink:href="#DejaVuSans-35" x="159.033203"/>
      </g>
     </g>
    </g>
    <g id="ytick_7">
     <g id="line2d_25">
      <g>
       <use xlink:href="#mc8e7ea44a2" x="45.371875" y="50.534906" style="stroke: #000000; stroke-width: 0.8"/>
      </g>
     </g>
     <g id="text_16">
      <!-- 1.00 -->
      <g transform="translate(7.2 55.853813) scale(0.14 -0.14)">
       <use xlink:href="#DejaVuSans-31"/>
       <use xlink:href="#DejaVuSans-2e" x="63.623047"/>
       <use xlink:href="#DejaVuSans-30" x="95.410156"/>
       <use xlink:href="#DejaVuSans-30" x="159.033203"/>
      </g>
     </g>
    </g>
    <g id="ytick_8">
     <g id="line2d_26">
      <g>
       <use xlink:href="#mc8e7ea44a2" x="45.371875" y="12.518906" style="stroke: #000000; stroke-width: 0.8"/>
      </g>
     </g>
     <g id="text_17">
      <!-- 1.05 -->
      <g transform="translate(7.2 17.837812) scale(0.14 -0.14)">
       <use xlink:href="#DejaVuSans-31"/>
       <use xlink:href="#DejaVuSans-2e" x="63.623047"/>
       <use xlink:href="#DejaVuSans-30" x="95.410156"/>
       <use xlink:href="#DejaVuSans-35" x="159.033203"/>
      </g>
     </g>
    </g>
   </g>
   <g id="line2d_27">
    <path d="M 61.604602 52.333736 
L 65.714153 53.556881 
L 69.823705 53.152631 
L 73.933256 56.981126 
L 78.042807 55.846586 
L 82.152358 60.353231 
L 86.26191 62.651186 
L 90.371461 62.347916 
L 94.481012 77.222831 
L 98.590563 83.624831 
L 102.700114 81.201146 
L 106.809666 89.728676 
L 110.919217 94.004156 
L 115.028768 115.798016 
L 119.138319 115.220186 
L 123.24787 128.664551 
L 127.357422 136.365266 
L 131.466973 144.746111 
L 135.576524 143.955266 
L 139.686075 166.095131 
L 143.795626 164.104571 
L 147.905178 175.134326 
L 152.014729 183.083531 
L 156.12428 199.419026 
L 160.233831 195.381064 
L 164.343382 212.503444 
L 168.452934 214.759736 
L 172.562485 221.283836 
L 176.672036 220.455701 
L 180.781587 208.038626 
L 184.891139 230.042861 
L 189.00069 206.973469 
L 193.110241 231.268316 
L 197.219792 234.753529 
L 201.329343 243.308284 
L 205.438895 250.548319 
L 209.548446 234.521291 
L 213.657997 230.294651 
L 217.767548 234.151609 
L 221.877099 212.152736 
L 225.986651 202.033121 
L 230.096202 201.366769 
L 234.205753 191.623024 
L 238.315304 201.742226 
L 242.424855 190.694404 
L 246.534407 197.419433 
L 250.643958 202.014023 
L 254.753509 191.890324 
L 258.86306 205.35684 
L 262.972611 204.769522 
L 267.082163 186.981904 
L 271.191714 202.633886 
L 275.301265 200.859476 
L 279.410816 198.471019 
L 283.520368 208.284683 
L 287.629919 201.20016 
L 291.73947 208.048382 
L 295.849021 198.464501 
L 299.958572 201.234501 
L 304.068124 205.328666 
L 308.177675 203.431208 
L 312.287226 214.095405 
L 316.396777 201.068304 
L 320.506328 201.24603 
L 324.61588 201.767677 
L 328.725431 199.198875 
L 332.834982 197.223949 
L 336.944533 189.525544 
L 341.054084 182.250529 
L 345.163636 187.531766 
L 349.273187 186.73824 
L 353.382738 191.460581 
L 357.492289 162.419839 
L 361.60184 180.152554 
L 365.711392 172.964576 
L 369.820943 169.294316 
L 373.930494 163.146169 
L 378.040045 156.129544 
L 382.149597 136.966361 
L 386.259148 89.783786 
" clip-path="url(#p9370eadbee)" style="fill: none; stroke: #443983; stroke-width: 1.5; stroke-linecap: square"/>
   </g>
   <g id="line2d_28">
    <path d="M 61.604602 52.370861 
L 65.714153 53.586416 
L 69.823705 53.098346 
L 73.933256 56.946806 
L 78.042807 55.877771 
L 82.152358 60.541001 
L 86.26191 62.885486 
L 90.371461 62.561921 
L 94.481012 77.023841 
L 98.590563 83.661791 
L 102.700114 81.376541 
L 106.809666 90.193316 
L 110.919217 93.913901 
L 115.028768 115.713206 
L 119.138319 114.955691 
L 123.24787 127.952741 
L 127.357422 135.964646 
L 131.466973 144.232631 
L 135.576524 143.015426 
L 139.686075 163.871261 
L 143.795626 161.881526 
L 147.905178 171.913856 
L 152.014729 180.529166 
L 156.12428 196.947491 
L 160.233831 192.140381 
L 164.343382 209.437414 
L 168.452934 211.668131 
L 172.562485 218.435854 
L 176.672036 217.206191 
L 180.781587 204.773606 
L 184.891139 226.204301 
L 189.00069 203.893826 
L 193.110241 229.791731 
L 197.219792 234.401336 
L 201.329343 242.811799 
L 205.438895 248.551819 
L 209.548446 233.884721 
L 213.657997 229.203176 
L 217.767548 240.102994 
L 221.877099 214.806926 
L 225.986651 210.337571 
L 230.096202 228.195934 
L 234.205753 226.574314 
L 238.315304 237.656044 
L 242.424855 231.304823 
L 246.534407 235.79769 
L 250.643958 242.639539 
L 254.753509 227.760746 
L 258.86306 246.678553 
L 262.972611 246.510645 
L 267.082163 236.055956 
L 271.191714 255.657812 
L 275.301265 247.881692 
L 279.410816 253.396817 
L 283.520368 260.461292 
L 287.629919 261.468844 
L 291.73947 256.445254 
L 295.849021 252.463422 
L 299.958572 247.7196 
L 304.068124 252.861433 
L 308.177675 257.550217 
L 312.287226 260.421011 
L 316.396777 256.261073 
L 320.506328 249.355781 
L 324.61588 247.687095 
L 328.725431 247.413525 
L 332.834982 243.746256 
L 336.944533 234.852034 
L 341.054084 224.927696 
L 345.163636 228.954563 
L 349.273187 222.228255 
L 353.382738 233.254916 
L 357.492289 208.427944 
L 361.60184 215.72247 
L 365.711392 206.777531 
L 369.820943 199.129534 
L 373.930494 192.599164 
L 378.040045 189.963619 
L 382.149597 157.531631 
L 386.259148 99.467141 
" clip-path="url(#p9370eadbee)" style="fill: none; stroke: #31688e; stroke-width: 1.5; stroke-linecap: square"/>
   </g>
   <g id="line2d_29">
    <path d="M 61.604602 52.363931 
L 65.714153 53.556386 
L 69.823705 53.106431 
L 73.933256 56.982116 
L 78.042807 55.892786 
L 82.152358 60.444146 
L 86.26191 62.782361 
L 90.371461 62.524961 
L 94.481012 76.878146 
L 98.590563 83.521376 
L 102.700114 81.325391 
L 106.809666 90.361451 
L 110.919217 94.096391 
L 115.028768 115.374131 
L 119.138319 114.791186 
L 123.24787 127.893341 
L 127.357422 135.515846 
L 131.466973 143.755121 
L 135.576524 141.094001 
L 139.686075 162.235946 
L 143.795626 160.464176 
L 147.905178 170.340581 
L 152.014729 178.905071 
L 156.12428 195.820459 
L 160.233831 191.195921 
L 164.343382 210.259196 
L 168.452934 212.044991 
L 172.562485 218.260789 
L 176.672036 217.783774 
L 180.781587 205.622366 
L 184.891139 227.424394 
L 189.00069 204.371996 
L 193.110241 230.070581 
L 197.219792 234.206801 
L 201.329343 242.755616 
L 205.438895 247.691426 
L 209.548446 233.344264 
L 213.657997 229.270084 
L 217.767548 238.935866 
L 221.877099 215.320819 
L 225.986651 208.597564 
L 230.096202 224.445236 
L 234.205753 220.66158 
L 238.315304 231.475886 
L 242.424855 224.85885 
L 246.534407 234.808268 
L 250.643958 245.631319 
L 254.753509 224.634615 
L 258.86306 243.281966 
L 262.972611 242.257234 
L 267.082163 233.334694 
L 271.191714 251.472071 
L 275.301265 236.542706 
L 279.410816 247.064406 
L 283.520368 249.021512 
L 287.629919 255.187232 
L 291.73947 260.02398 
L 295.849021 242.546809 
L 299.958572 254.049598 
L 304.068124 250.952713 
L 308.177675 245.8782 
L 312.287226 254.049722 
L 316.396777 249.933776 
L 320.506328 244.267099 
L 324.61588 243.502056 
L 328.725431 244.412175 
L 332.834982 235.092315 
L 336.944533 228.078454 
L 341.054084 218.167729 
L 345.163636 224.057198 
L 349.273187 219.632104 
L 353.382738 225.745808 
L 357.492289 201.08334 
L 361.60184 211.751951 
L 365.711392 197.502716 
L 369.820943 194.576936 
L 373.930494 185.226469 
L 378.040045 182.770031 
L 382.149597 151.415246 
L 386.259148 96.468761 
" clip-path="url(#p9370eadbee)" style="fill: none; stroke: #21918c; stroke-width: 1.5; stroke-linecap: square"/>
   </g>
   <g id="line2d_30">
    <path d="M 61.604602 52.348586 
L 65.714153 53.549291 
L 69.823705 53.091086 
L 73.933256 56.846981 
L 78.042807 55.769036 
L 82.152358 60.287396 
L 86.26191 62.680721 
L 90.371461 62.487176 
L 94.481012 77.136206 
L 98.590563 83.841971 
L 102.700114 81.513656 
L 106.809666 90.378116 
L 110.919217 94.089131 
L 115.028768 115.905101 
L 119.138319 115.127621 
L 123.24787 128.548391 
L 127.357422 135.999461 
L 131.466973 143.744066 
L 135.576524 141.795416 
L 139.686075 162.535256 
L 143.795626 160.298351 
L 147.905178 169.668536 
L 152.014729 178.874216 
L 156.12428 195.409691 
L 160.233831 191.202851 
L 164.343382 210.090154 
L 168.452934 211.682981 
L 172.562485 218.634844 
L 176.672036 217.261384 
L 180.781587 205.175876 
L 184.891139 226.801024 
L 189.00069 204.317876 
L 193.110241 230.239211 
L 197.219792 233.985949 
L 201.329343 242.814026 
L 205.438895 246.717019 
L 209.548446 231.450971 
L 213.657997 226.688989 
L 217.767548 238.220344 
L 221.877099 213.596486 
L 225.986651 207.237139 
L 230.096202 223.943347 
L 234.205753 220.415606 
L 238.315304 230.711441 
L 242.424855 225.208939 
L 246.534407 229.811614 
L 250.643958 240.732015 
L 254.753509 220.956806 
L 258.86306 243.52365 
L 262.972611 236.991197 
L 267.082163 230.071984 
L 271.191714 249.176199 
L 275.301265 235.658832 
L 279.410816 246.352988 
L 283.520368 247.567553 
L 287.629919 249.058534 
L 291.73947 258.560884 
L 295.849021 236.23362 
L 299.958572 248.098131 
L 304.068124 243.787279 
L 308.177675 241.468493 
L 312.287226 249.538148 
L 316.396777 242.988555 
L 320.506328 243.294259 
L 324.61588 239.933436 
L 328.725431 234.659891 
L 332.834982 232.006114 
L 336.944533 222.138454 
L 341.054084 217.048534 
L 345.163636 218.477393 
L 349.273187 217.556362 
L 353.382738 221.920984 
L 357.492289 199.879087 
L 361.60184 208.644712 
L 365.711392 198.147206 
L 369.820943 194.067664 
L 373.930494 183.943099 
L 378.040045 180.018821 
L 382.149597 149.836526 
L 386.259148 94.353626 
" clip-path="url(#p9370eadbee)" style="fill: none; stroke: #35b779; stroke-width: 1.5; stroke-linecap: square"/>
   </g>
   <g id="line2d_31">
    <path d="M 61.604602 52.357496 
L 65.714153 53.551436 
L 69.823705 53.047526 
L 73.933256 56.883446 
L 78.042807 55.842461 
L 82.152358 60.488861 
L 86.26191 62.736326 
L 90.371461 62.611916 
L 94.481012 77.128946 
L 98.590563 83.968361 
L 102.700114 81.746636 
L 106.809666 90.773126 
L 110.919217 94.477046 
L 115.028768 116.372051 
L 119.138319 115.725746 
L 123.24787 128.974421 
L 127.357422 137.230361 
L 131.466973 145.146731 
L 135.576524 144.153101 
L 139.686075 165.661016 
L 143.795626 163.347716 
L 147.905178 172.925801 
L 152.014729 181.929686 
L 156.12428 198.902081 
L 160.233831 193.956784 
L 164.343382 211.821664 
L 168.452934 213.433631 
L 172.562485 220.465684 
L 176.672036 219.916564 
L 180.781587 207.538511 
L 184.891139 229.305559 
L 189.00069 206.237981 
L 193.110241 232.087046 
L 197.219792 236.377871 
L 201.329343 244.434986 
L 205.438895 248.917294 
L 209.548446 234.779351 
L 213.657997 230.427559 
L 217.767548 241.584364 
L 221.877099 219.502084 
L 225.986651 212.883769 
L 230.096202 231.155085 
L 234.205753 225.448436 
L 238.315304 239.466052 
L 242.424855 229.856576 
L 246.534407 234.593004 
L 250.643958 245.808632 
L 254.753509 227.246709 
L 258.86306 249.447913 
L 262.972611 243.770696 
L 267.082163 238.016528 
L 271.191714 254.017464 
L 275.301265 242.562546 
L 279.410816 251.571422 
L 283.520368 256.476294 
L 287.629919 256.154421 
L 291.73947 265.10665 
L 295.849021 247.491054 
L 299.958572 255.466371 
L 304.068124 253.191536 
L 308.177675 251.408505 
L 312.287226 255.412973 
L 316.396777 257.075719 
L 320.506328 255.464679 
L 324.61588 250.19097 
L 328.725431 247.918652 
L 332.834982 239.206796 
L 336.944533 234.042049 
L 341.054084 223.823558 
L 345.163636 228.719314 
L 349.273187 227.025176 
L 353.382738 233.430187 
L 357.492289 206.772416 
L 361.60184 214.823261 
L 365.711392 206.349109 
L 369.820943 201.130736 
L 373.930494 191.684981 
L 378.040045 188.158931 
L 382.149597 157.711069 
L 386.259148 99.417971 
" clip-path="url(#p9370eadbee)" style="fill: none; stroke: #90d743; stroke-width: 1.5; stroke-linecap: square"/>
   </g>
   <g id="patch_3">
    <path d="M 45.371875 278.630906 
L 45.371875 12.518906 
" style="fill: none; stroke: #000000; stroke-width: 0.8; stroke-linejoin: miter; stroke-linecap: square"/>
   </g>
   <g id="patch_4">
    <path d="M 402.491875 278.630906 
L 402.491875 12.518906 
" style="fill: none; stroke: #000000; stroke-width: 0.8; stroke-linejoin: miter; stroke-linecap: square"/>
   </g>
   <g id="patch_5">
    <path d="M 45.371875 278.630906 
L 402.491875 278.630906 
" style="fill: none; stroke: #000000; stroke-width: 0.8; stroke-linejoin: miter; stroke-linecap: square"/>
   </g>
   <g id="patch_6">
    <path d="M 45.371875 12.518906 
L 402.491875 12.518906 
" style="fill: none; stroke: #000000; stroke-width: 0.8; stroke-linejoin: miter; stroke-linecap: square"/>
   </g>
  </g>
 </g>
 <defs>
  <clipPath id="p9370eadbee">
   <rect x="45.371875" y="12.518906" width="357.12" height="266.112"/>
  </clipPath>
 </defs>
</svg>
