<?xml version="1.0" encoding="utf-8" standalone="no"?>
<!DOCTYPE svg PUBLIC "-//W3C//DTD SVG 1.1//EN"
  "http://www.w3.org/Graphics/SVG/1.1/DTD/svg11.dtd">
<svg xmlns:xlink="http://www.w3.org/1999/xlink" width="409.691875pt" height="306.380281pt" viewBox="0 0 409.691875 306.380281" xmlns="http://www.w3.org/2000/svg" version="1.1">
 <metadata>
  <rdf:RDF xmlns:dc="http://purl.org/dc/elements/1.1/" xmlns:cc="http://creativecommons.org/ns#" xmlns:rdf="http://www.w3.org/1999/02/22-rdf-syntax-ns#">
   <cc:Work>
    <dc:type rdf:resource="http://purl.org/dc/dcmitype/StillImage"/>
    <dc:date>2024-09-29T20:27:02.856799</dc:date>
    <dc:format>image/svg+xml</dc:format>
    <dc:creator>
     <cc:Agent>
      <dc:title>Matplotlib v3.7.1, https://matplotlib.org/</dc:title>
     </cc:Agent>
    </dc:creator>
   </cc:Work>
  </rdf:RDF>
 </metadata>
 <defs>
  <style type="text/css">*{stroke-linejoin: round; stroke-linecap: butt}</style>
 </defs>
 <g id="figure_1">
  <g id="patch_1">
   <path d="M 0 306.380281 
L 409.691875 306.380281 
L 409.691875 0 
L 0 0 
z
" style="fill: #ffffff"/>
  </g>
  <g id="axes_1">
   <g id="patch_2">
    <path d="M 45.371875 278.630906 
L 402.491875 278.630906 
L 402.491875 12.518906 
L 45.371875 12.518906 
z
" style="fill: #f2f2f2"/>
   </g>
   <g id="matplotlib.axis_1">
    <g id="xtick_1">
     <g id="line2d_1">
      <path d="M 61.604602 278.630906 
L 61.604602 12.518906 
" clip-path="url(#p645ef5efbf)" style="fill: none; stroke: #ffffff; stroke-linecap: square"/>
     </g>
     <g id="line2d_2">
      <defs>
       <path id="m8cb4b1b80c" d="M 0 0 
L 0 3.5 
" style="stroke: #000000; stroke-width: 0.8"/>
      </defs>
      <g>
       <use xlink:href="#m8cb4b1b80c" x="61.604602" y="278.630906" style="stroke: #000000; stroke-width: 0.8"/>
      </g>
     </g>
     <g id="text_1">
      <!-- 0 -->
      <g transform="translate(57.150852 296.268719) scale(0.14 -0.14)">
       <defs>
        <path id="DejaVuSans-30" d="M 2034 4250 
Q 1547 4250 1301 3770 
Q 1056 3291 1056 2328 
Q 1056 1369 1301 889 
Q 1547 409 2034 409 
Q 2525 409 2770 889 
Q 3016 1369 3016 2328 
Q 3016 3291 2770 3770 
Q 2525 4250 2034 4250 
z
M 2034 4750 
Q 2819 4750 3233 4129 
Q 3647 3509 3647 2328 
Q 3647 1150 3233 529 
Q 2819 -91 2034 -91 
Q 1250 -91 836 529 
Q 422 1150 422 2328 
Q 422 3509 836 4129 
Q 1250 4750 2034 4750 
z
" transform="scale(0.015625)"/>
       </defs>
       <use xlink:href="#DejaVuSans-30"/>
      </g>
     </g>
    </g>
    <g id="xtick_2">
     <g id="line2d_3">
      <path d="M 102.700114 278.630906 
L 102.700114 12.518906 
" clip-path="url(#p645ef5efbf)" style="fill: none; stroke: #ffffff; stroke-linecap: square"/>
     </g>
     <g id="line2d_4">
      <g>
       <use xlink:href="#m8cb4b1b80c" x="102.700114" y="278.630906" style="stroke: #000000; stroke-width: 0.8"/>
      </g>
     </g>
     <g id="text_2">
      <!-- 10 -->
      <g transform="translate(93.792614 296.268719) scale(0.14 -0.14)">
       <defs>
        <path id="DejaVuSans-31" d="M 794 531 
L 1825 531 
L 1825 4091 
L 703 3866 
L 703 4441 
L 1819 4666 
L 2450 4666 
L 2450 531 
L 3481 531 
L 3481 0 
L 794 0 
L 794 531 
z
" transform="scale(0.015625)"/>
       </defs>
       <use xlink:href="#DejaVuSans-31"/>
       <use xlink:href="#DejaVuSans-30" x="63.623047"/>
      </g>
     </g>
    </g>
    <g id="xtick_3">
     <g id="line2d_5">
      <path d="M 143.795626 278.630906 
L 143.795626 12.518906 
" clip-path="url(#p645ef5efbf)" style="fill: none; stroke: #ffffff; stroke-linecap: square"/>
     </g>
     <g id="line2d_6">
      <g>
       <use xlink:href="#m8cb4b1b80c" x="143.795626" y="278.630906" style="stroke: #000000; stroke-width: 0.8"/>
      </g>
     </g>
     <g id="text_3">
      <!-- 20 -->
      <g transform="translate(134.888126 296.268719) scale(0.14 -0.14)">
       <defs>
        <path id="DejaVuSans-32" d="M 1228 531 
L 3431 531 
L 3431 0 
L 469 0 
L 469 531 
Q 828 903 1448 1529 
Q 2069 2156 2228 2338 
Q 2531 2678 2651 2914 
Q 2772 3150 2772 3378 
Q 2772 3750 2511 3984 
Q 2250 4219 1831 4219 
Q 1534 4219 1204 4116 
Q 875 4013 500 3803 
L 500 4441 
Q 881 4594 1212 4672 
Q 1544 4750 1819 4750 
Q 2544 4750 2975 4387 
Q 3406 4025 3406 3419 
Q 3406 3131 3298 2873 
Q 3191 2616 2906 2266 
Q 2828 2175 2409 1742 
Q 1991 1309 1228 531 
z
" transform="scale(0.015625)"/>
       </defs>
       <use xlink:href="#DejaVuSans-32"/>
       <use xlink:href="#DejaVuSans-30" x="63.623047"/>
      </g>
     </g>
    </g>
    <g id="xtick_4">
     <g id="line2d_7">
      <path d="M 184.891139 278.630906 
L 184.891139 12.518906 
" clip-path="url(#p645ef5efbf)" style="fill: none; stroke: #ffffff; stroke-linecap: square"/>
     </g>
     <g id="line2d_8">
      <g>
       <use xlink:href="#m8cb4b1b80c" x="184.891139" y="278.630906" style="stroke: #000000; stroke-width: 0.8"/>
      </g>
     </g>
     <g id="text_4">
      <!-- 30 -->
      <g transform="translate(175.983639 296.268719) scale(0.14 -0.14)">
       <defs>
        <path id="DejaVuSans-33" d="M 2597 2516 
Q 3050 2419 3304 2112 
Q 3559 1806 3559 1356 
Q 3559 666 3084 287 
Q 2609 -91 1734 -91 
Q 1441 -91 1130 -33 
Q 819 25 488 141 
L 488 750 
Q 750 597 1062 519 
Q 1375 441 1716 441 
Q 2309 441 2620 675 
Q 2931 909 2931 1356 
Q 2931 1769 2642 2001 
Q 2353 2234 1838 2234 
L 1294 2234 
L 1294 2753 
L 1863 2753 
Q 2328 2753 2575 2939 
Q 2822 3125 2822 3475 
Q 2822 3834 2567 4026 
Q 2313 4219 1838 4219 
Q 1578 4219 1281 4162 
Q 984 4106 628 3988 
L 628 4550 
Q 988 4650 1302 4700 
Q 1616 4750 1894 4750 
Q 2613 4750 3031 4423 
Q 3450 4097 3450 3541 
Q 3450 3153 3228 2886 
Q 3006 2619 2597 2516 
z
" transform="scale(0.015625)"/>
       </defs>
       <use xlink:href="#DejaVuSans-33"/>
       <use xlink:href="#DejaVuSans-30" x="63.623047"/>
      </g>
     </g>
    </g>
    <g id="xtick_5">
     <g id="line2d_9">
      <path d="M 225.986651 278.630906 
L 225.986651 12.518906 
" clip-path="url(#p645ef5efbf)" style="fill: none; stroke: #ffffff; stroke-linecap: square"/>
     </g>
     <g id="line2d_10">
      <g>
       <use xlink:href="#m8cb4b1b80c" x="225.986651" y="278.630906" style="stroke: #000000; stroke-width: 0.8"/>
      </g>
     </g>
     <g id="text_5">
      <!-- 40 -->
      <g transform="translate(217.079151 296.268719) scale(0.14 -0.14)">
       <defs>
        <path id="DejaVuSans-34" d="M 2419 4116 
L 825 1625 
L 2419 1625 
L 2419 4116 
z
M 2253 4666 
L 3047 4666 
L 3047 1625 
L 3713 1625 
L 3713 1100 
L 3047 1100 
L 3047 0 
L 2419 0 
L 2419 1100 
L 313 1100 
L 313 1709 
L 2253 4666 
z
" transform="scale(0.015625)"/>
       </defs>
       <use xlink:href="#DejaVuSans-34"/>
       <use xlink:href="#DejaVuSans-30" x="63.623047"/>
      </g>
     </g>
    </g>
    <g id="xtick_6">
     <g id="line2d_11">
      <path d="M 267.082163 278.630906 
L 267.082163 12.518906 
" clip-path="url(#p645ef5efbf)" style="fill: none; stroke: #ffffff; stroke-linecap: square"/>
     </g>
     <g id="line2d_12">
      <g>
       <use xlink:href="#m8cb4b1b80c" x="267.082163" y="278.630906" style="stroke: #000000; stroke-width: 0.8"/>
      </g>
     </g>
     <g id="text_6">
      <!-- 50 -->
      <g transform="translate(258.174663 296.268719) scale(0.14 -0.14)">
       <defs>
        <path id="DejaVuSans-35" d="M 691 4666 
L 3169 4666 
L 3169 4134 
L 1269 4134 
L 1269 2991 
Q 1406 3038 1543 3061 
Q 1681 3084 1819 3084 
Q 2600 3084 3056 2656 
Q 3513 2228 3513 1497 
Q 3513 744 3044 326 
Q 2575 -91 1722 -91 
Q 1428 -91 1123 -41 
Q 819 9 494 109 
L 494 744 
Q 775 591 1075 516 
Q 1375 441 1709 441 
Q 2250 441 2565 725 
Q 2881 1009 2881 1497 
Q 2881 1984 2565 2268 
Q 2250 2553 1709 2553 
Q 1456 2553 1204 2497 
Q 953 2441 691 2322 
L 691 4666 
z
" transform="scale(0.015625)"/>
       </defs>
       <use xlink:href="#DejaVuSans-35"/>
       <use xlink:href="#DejaVuSans-30" x="63.623047"/>
      </g>
     </g>
    </g>
    <g id="xtick_7">
     <g id="line2d_13">
      <path d="M 308.177675 278.630906 
L 308.177675 12.518906 
" clip-path="url(#p645ef5efbf)" style="fill: none; stroke: #ffffff; stroke-linecap: square"/>
     </g>
     <g id="line2d_14">
      <g>
       <use xlink:href="#m8cb4b1b80c" x="308.177675" y="278.630906" style="stroke: #000000; stroke-width: 0.8"/>
      </g>
     </g>
     <g id="text_7">
      <!-- 60 -->
      <g transform="translate(299.270175 296.268719) scale(0.14 -0.14)">
       <defs>
        <path id="DejaVuSans-36" d="M 2113 2584 
Q 1688 2584 1439 2293 
Q 1191 2003 1191 1497 
Q 1191 994 1439 701 
Q 1688 409 2113 409 
Q 2538 409 2786 701 
Q 3034 994 3034 1497 
Q 3034 2003 2786 2293 
Q 2538 2584 2113 2584 
z
M 3366 4563 
L 3366 3988 
Q 3128 4100 2886 4159 
Q 2644 4219 2406 4219 
Q 1781 4219 1451 3797 
Q 1122 3375 1075 2522 
Q 1259 2794 1537 2939 
Q 1816 3084 2150 3084 
Q 2853 3084 3261 2657 
Q 3669 2231 3669 1497 
Q 3669 778 3244 343 
Q 2819 -91 2113 -91 
Q 1303 -91 875 529 
Q 447 1150 447 2328 
Q 447 3434 972 4092 
Q 1497 4750 2381 4750 
Q 2619 4750 2861 4703 
Q 3103 4656 3366 4563 
z
" transform="scale(0.015625)"/>
       </defs>
       <use xlink:href="#DejaVuSans-36"/>
       <use xlink:href="#DejaVuSans-30" x="63.623047"/>
      </g>
     </g>
    </g>
    <g id="xtick_8">
     <g id="line2d_15">
      <path d="M 349.273187 278.630906 
L 349.273187 12.518906 
" clip-path="url(#p645ef5efbf)" style="fill: none; stroke: #ffffff; stroke-linecap: square"/>
     </g>
     <g id="line2d_16">
      <g>
       <use xlink:href="#m8cb4b1b80c" x="349.273187" y="278.630906" style="stroke: #000000; stroke-width: 0.8"/>
      </g>
     </g>
     <g id="text_8">
      <!-- 70 -->
      <g transform="translate(340.365687 296.268719) scale(0.14 -0.14)">
       <defs>
        <path id="DejaVuSans-37" d="M 525 4666 
L 3525 4666 
L 3525 4397 
L 1831 0 
L 1172 0 
L 2766 4134 
L 525 4134 
L 525 4666 
z
" transform="scale(0.015625)"/>
       </defs>
       <use xlink:href="#DejaVuSans-37"/>
       <use xlink:href="#DejaVuSans-30" x="63.623047"/>
      </g>
     </g>
    </g>
    <g id="xtick_9">
     <g id="line2d_17">
      <path d="M 390.368699 278.630906 
L 390.368699 12.518906 
" clip-path="url(#p645ef5efbf)" style="fill: none; stroke: #ffffff; stroke-linecap: square"/>
     </g>
     <g id="line2d_18">
      <g>
       <use xlink:href="#m8cb4b1b80c" x="390.368699" y="278.630906" style="stroke: #000000; stroke-width: 0.8"/>
      </g>
     </g>
     <g id="text_9">
      <!-- 80 -->
      <g transform="translate(381.461199 296.268719) scale(0.14 -0.14)">
       <defs>
        <path id="DejaVuSans-38" d="M 2034 2216 
Q 1584 2216 1326 1975 
Q 1069 1734 1069 1313 
Q 1069 891 1326 650 
Q 1584 409 2034 409 
Q 2484 409 2743 651 
Q 3003 894 3003 1313 
Q 3003 1734 2745 1975 
Q 2488 2216 2034 2216 
z
M 1403 2484 
Q 997 2584 770 2862 
Q 544 3141 544 3541 
Q 544 4100 942 4425 
Q 1341 4750 2034 4750 
Q 2731 4750 3128 4425 
Q 3525 4100 3525 3541 
Q 3525 3141 3298 2862 
Q 3072 2584 2669 2484 
Q 3125 2378 3379 2068 
Q 3634 1759 3634 1313 
Q 3634 634 3220 271 
Q 2806 -91 2034 -91 
Q 1263 -91 848 271 
Q 434 634 434 1313 
Q 434 1759 690 2068 
Q 947 2378 1403 2484 
z
M 1172 3481 
Q 1172 3119 1398 2916 
Q 1625 2713 2034 2713 
Q 2441 2713 2670 2916 
Q 2900 3119 2900 3481 
Q 2900 3844 2670 4047 
Q 2441 4250 2034 4250 
Q 1625 4250 1398 4047 
Q 1172 3844 1172 3481 
z
" transform="scale(0.015625)"/>
       </defs>
       <use xlink:href="#DejaVuSans-38"/>
       <use xlink:href="#DejaVuSans-30" x="63.623047"/>
      </g>
     </g>
    </g>
   </g>
   <g id="matplotlib.axis_2">
    <g id="ytick_1">
     <g id="line2d_19">
      <defs>
       <path id="mfc95da1ffb" d="M 0 0 
L -3.5 0 
" style="stroke: #000000; stroke-width: 0.8"/>
      </defs>
      <g>
       <use xlink:href="#mfc95da1ffb" x="45.371875" y="278.630906" style="stroke: #000000; stroke-width: 0.8"/>
      </g>
     </g>
     <g id="text_10">
      <!-- 0.70 -->
      <g transform="translate(7.2 283.949813) scale(0.14 -0.14)">
       <defs>
        <path id="DejaVuSans-2e" d="M 684 794 
L 1344 794 
L 1344 0 
L 684 0 
L 684 794 
z
" transform="scale(0.015625)"/>
       </defs>
       <use xlink:href="#DejaVuSans-30"/>
       <use xlink:href="#DejaVuSans-2e" x="63.623047"/>
       <use xlink:href="#DejaVuSans-37" x="95.410156"/>
       <use xlink:href="#DejaVuSans-30" x="159.033203"/>
      </g>
     </g>
    </g>
    <g id="ytick_2">
     <g id="line2d_20">
      <g>
       <use xlink:href="#mfc95da1ffb" x="45.371875" y="240.614906" style="stroke: #000000; stroke-width: 0.8"/>
      </g>
     </g>
     <g id="text_11">
      <!-- 0.75 -->
      <g transform="translate(7.2 245.933812) scale(0.14 -0.14)">
       <use xlink:href="#DejaVuSans-30"/>
       <use xlink:href="#DejaVuSans-2e" x="63.623047"/>
       <use xlink:href="#DejaVuSans-37" x="95.410156"/>
       <use xlink:href="#DejaVuSans-35" x="159.033203"/>
      </g>
     </g>
    </g>
    <g id="ytick_3">
     <g id="line2d_21">
      <g>
       <use xlink:href="#mfc95da1ffb" x="45.371875" y="202.598906" style="stroke: #000000; stroke-width: 0.8"/>
      </g>
     </g>
     <g id="text_12">
      <!-- 0.80 -->
      <g transform="translate(7.2 207.917813) scale(0.14 -0.14)">
       <use xlink:href="#DejaVuSans-30"/>
       <use xlink:href="#DejaVuSans-2e" x="63.623047"/>
       <use xlink:href="#DejaVuSans-38" x="95.410156"/>
       <use xlink:href="#DejaVuSans-30" x="159.033203"/>
      </g>
     </g>
    </g>
    <g id="ytick_4">
     <g id="line2d_22">
      <g>
       <use xlink:href="#mfc95da1ffb" x="45.371875" y="164.582906" style="stroke: #000000; stroke-width: 0.8"/>
      </g>
     </g>
     <g id="text_13">
      <!-- 0.85 -->
      <g transform="translate(7.2 169.901812) scale(0.14 -0.14)">
       <use xlink:href="#DejaVuSans-30"/>
       <use xlink:href="#DejaVuSans-2e" x="63.623047"/>
       <use xlink:href="#DejaVuSans-38" x="95.410156"/>
       <use xlink:href="#DejaVuSans-35" x="159.033203"/>
      </g>
     </g>
    </g>
    <g id="ytick_5">
     <g id="line2d_23">
      <g>
       <use xlink:href="#mfc95da1ffb" x="45.371875" y="126.566906" style="stroke: #000000; stroke-width: 0.8"/>
      </g>
     </g>
     <g id="text_14">
      <!-- 0.90 -->
      <g transform="translate(7.2 131.885812) scale(0.14 -0.14)">
       <defs>
        <path id="DejaVuSans-39" d="M 703 97 
L 703 672 
Q 941 559 1184 500 
Q 1428 441 1663 441 
Q 2288 441 2617 861 
Q 2947 1281 2994 2138 
Q 2813 1869 2534 1725 
Q 2256 1581 1919 1581 
Q 1219 1581 811 2004 
Q 403 2428 403 3163 
Q 403 3881 828 4315 
Q 1253 4750 1959 4750 
Q 2769 4750 3195 4129 
Q 3622 3509 3622 2328 
Q 3622 1225 3098 567 
Q 2575 -91 1691 -91 
Q 1453 -91 1209 -44 
Q 966 3 703 97 
z
M 1959 2075 
Q 2384 2075 2632 2365 
Q 2881 2656 2881 3163 
Q 2881 3666 2632 3958 
Q 2384 4250 1959 4250 
Q 1534 4250 1286 3958 
Q 1038 3666 1038 3163 
Q 1038 2656 1286 2365 
Q 1534 2075 1959 2075 
z
" transform="scale(0.015625)"/>
       </defs>
       <use xlink:href="#DejaVuSans-30"/>
       <use xlink:href="#DejaVuSans-2e" x="63.623047"/>
       <use xlink:href="#DejaVuSans-39" x="95.410156"/>
       <use xlink:href="#DejaVuSans-30" x="159.033203"/>
      </g>
     </g>
    </g>
    <g id="ytick_6">
     <g id="line2d_24">
      <g>
       <use xlink:href="#mfc95da1ffb" x="45.371875" y="88.550906" style="stroke: #000000; stroke-width: 0.8"/>
      </g>
     </g>
     <g id="text_15">
      <!-- 0.95 -->
      <g transform="translate(7.2 93.869813) scale(0.14 -0.14)">
       <use xlink:href="#DejaVuSans-30"/>
       <use xlink:href="#DejaVuSans-2e" x="63.623047"/>
       <use xlink:href="#DejaVuSans-39" x="95.410156"/>
       <use xlink:href="#DejaVuSans-35" x="159.033203"/>
      </g>
     </g>
    </g>
    <g id="ytick_7">
     <g id="line2d_25">
      <g>
       <use xlink:href="#mfc95da1ffb" x="45.371875" y="50.534906" style="stroke: #000000; stroke-width: 0.8"/>
      </g>
     </g>
     <g id="text_16">
      <!-- 1.00 -->
      <g transform="translate(7.2 55.853813) scale(0.14 -0.14)">
       <use xlink:href="#DejaVuSans-31"/>
       <use xlink:href="#DejaVuSans-2e" x="63.623047"/>
       <use xlink:href="#DejaVuSans-30" x="95.410156"/>
       <use xlink:href="#DejaVuSans-30" x="159.033203"/>
      </g>
     </g>
    </g>
    <g id="ytick_8">
     <g id="line2d_26">
      <g>
       <use xlink:href="#mfc95da1ffb" x="45.371875" y="12.518906" style="stroke: #000000; stroke-width: 0.8"/>
      </g>
     </g>
     <g id="text_17">
      <!-- 1.05 -->
      <g transform="translate(7.2 17.837812) scale(0.14 -0.14)">
       <use xlink:href="#DejaVuSans-31"/>
       <use xlink:href="#DejaVuSans-2e" x="63.623047"/>
       <use xlink:href="#DejaVuSans-30" x="95.410156"/>
       <use xlink:href="#DejaVuSans-35" x="159.033203"/>
      </g>
     </g>
    </g>
   </g>
   <g id="line2d_27">
    <path d="M 61.604602 54.955256 
L 65.714153 55.046501 
L 69.823705 54.265556 
L 73.933256 57.179786 
L 78.042807 54.670631 
L 82.152358 63.277361 
L 86.26191 64.235846 
L 90.371461 67.803476 
L 94.481012 102.192116 
L 98.590563 109.350146 
L 102.700114 103.420871 
L 106.809666 111.547616 
L 110.919217 113.724131 
L 115.028768 134.845781 
L 119.138319 134.706521 
L 123.24787 144.119441 
L 127.357422 147.854711 
L 131.466973 155.901926 
L 135.576524 153.007166 
L 139.686075 168.721766 
L 143.795626 167.421731 
L 147.905178 184.622239 
L 152.014729 194.762809 
L 156.12428 207.139624 
L 160.233831 205.396069 
L 164.343382 210.783896 
L 168.452934 212.998939 
L 172.562485 213.117739 
L 176.672036 213.709181 
L 180.781587 215.661626 
L 184.891139 232.763464 
L 189.00069 219.948904 
L 193.110241 241.675444 
L 197.219792 248.812024 
L 201.329343 258.430616 
L 205.438895 259.871066 
L 209.548446 243.532189 
L 213.657997 228.652571 
L 217.767548 219.552986 
L 221.877099 198.701524 
L 225.986651 168.944764 
L 230.096202 148.774174 
L 234.205753 143.231411 
L 238.315304 146.233009 
L 242.424855 134.436499 
L 246.534407 128.918239 
L 250.643958 134.203189 
L 254.753509 125.171584 
L 258.86306 135.814331 
L 262.972611 136.176836 
L 267.082163 130.568981 
L 271.191714 127.649059 
L 275.301265 131.204066 
L 279.410816 125.152691 
L 283.520368 131.789239 
L 287.629919 130.552481 
L 291.73947 134.395043 
L 295.849021 137.366899 
L 299.958572 137.719339 
L 304.068124 131.864809 
L 308.177675 130.476416 
L 312.287226 133.635424 
L 316.396777 120.666424 
L 320.506328 128.004923 
L 324.61588 105.609349 
L 328.725431 124.091906 
L 332.834982 121.054504 
L 336.944533 121.954125 
L 341.054084 119.952716 
L 345.163636 121.254731 
L 349.273187 124.346501 
L 353.382738 119.995451 
L 357.492289 125.509504 
L 361.60184 126.065224 
L 365.711392 121.185926 
L 369.820943 126.732236 
L 373.930494 119.481559 
L 378.040045 119.025334 
L 382.149597 106.922996 
L 386.259148 77.101886 
" clip-path="url(#p645ef5efbf)" style="fill: none; stroke: #443983; stroke-width: 1.5; stroke-linecap: square"/>
   </g>
   <g id="line2d_28">
    <path d="M 61.604602 54.730691 
L 65.714153 54.941066 
L 69.823705 54.203186 
L 73.933256 57.163616 
L 78.042807 54.480056 
L 82.152358 63.136946 
L 86.26191 64.132391 
L 90.371461 68.027546 
L 94.481012 102.609401 
L 98.590563 109.973516 
L 102.700114 103.911086 
L 106.809666 111.838676 
L 110.919217 114.311861 
L 115.028768 136.944746 
L 119.138319 136.446116 
L 123.24787 145.668131 
L 127.357422 149.366771 
L 131.466973 157.422896 
L 135.576524 153.172331 
L 139.686075 167.667416 
L 143.795626 166.569671 
L 147.905178 183.524081 
L 152.014729 194.272181 
L 156.12428 207.062321 
L 160.233831 207.617794 
L 164.343382 211.471286 
L 168.452934 212.875436 
L 172.562485 213.614966 
L 176.672036 214.625096 
L 180.781587 216.139136 
L 184.891139 234.100294 
L 189.00069 221.483239 
L 193.110241 244.039976 
L 197.219792 252.621956 
L 201.329343 261.830606 
L 205.438895 261.999896 
L 209.548446 242.933899 
L 213.657997 229.933714 
L 217.767548 218.476774 
L 221.877099 199.020634 
L 225.986651 168.042874 
L 230.096202 153.554471 
L 234.205753 150.024626 
L 238.315304 147.908749 
L 242.424855 138.587486 
L 246.534407 136.653604 
L 250.643958 137.618029 
L 254.753509 128.790364 
L 258.86306 135.634976 
L 262.972611 136.187726 
L 267.082163 131.167106 
L 271.191714 126.278899 
L 275.301265 131.781401 
L 279.410816 128.449144 
L 283.520368 131.633974 
L 287.629919 131.672006 
L 291.73947 130.962671 
L 295.849021 128.699366 
L 299.958572 135.769946 
L 304.068124 131.982619 
L 308.177675 127.054481 
L 312.287226 131.604521 
L 316.396777 119.083661 
L 320.506328 124.476439 
L 324.61588 118.152649 
L 328.725431 122.181866 
L 332.834982 118.909586 
L 336.944533 119.023931 
L 341.054084 119.089849 
L 345.163636 119.275391 
L 349.273187 123.381994 
L 353.382738 117.386636 
L 357.492289 124.462414 
L 361.60184 122.043679 
L 365.711392 118.432571 
L 369.820943 120.574601 
L 373.930494 115.570976 
L 378.040045 114.658031 
L 382.149597 103.558976 
L 386.259148 77.485676 
" clip-path="url(#p645ef5efbf)" style="fill: none; stroke: #31688e; stroke-width: 1.5; stroke-linecap: square"/>
   </g>
   <g id="line2d_29">
    <path d="M 61.604602 54.834806 
L 65.714153 54.985781 
L 69.823705 54.208301 
L 73.933256 57.082106 
L 78.042807 54.495401 
L 82.152358 63.094211 
L 86.26191 64.100876 
L 90.371461 68.142056 
L 94.481012 102.693716 
L 98.590563 110.099246 
L 102.700114 103.978571 
L 106.809666 112.017701 
L 110.919217 114.660011 
L 115.028768 137.905541 
L 119.138319 137.344541 
L 123.24787 146.193326 
L 127.357422 150.103166 
L 131.466973 158.734646 
L 135.576524 153.969446 
L 139.686075 168.331541 
L 143.795626 167.190071 
L 147.905178 184.152566 
L 152.014729 195.100894 
L 156.12428 206.999869 
L 160.233831 208.272596 
L 164.343382 211.185836 
L 168.452934 212.577859 
L 172.562485 213.316894 
L 176.672036 213.971284 
L 180.781587 216.584059 
L 184.891139 233.571056 
L 189.00069 222.045064 
L 193.110241 243.953599 
L 197.219792 253.955486 
L 201.329343 261.999731 
L 205.438895 260.573224 
L 209.548446 240.305696 
L 213.657997 227.611751 
L 217.767548 216.140209 
L 221.877099 195.741754 
L 225.986651 164.697004 
L 230.096202 145.665491 
L 234.205753 139.994689 
L 238.315304 137.377294 
L 242.424855 128.034581 
L 246.534407 127.911574 
L 250.643958 129.100069 
L 254.753509 118.942256 
L 258.86306 125.089084 
L 262.972611 126.655511 
L 267.082163 126.250849 
L 271.191714 115.925561 
L 275.301265 120.588544 
L 279.410816 117.077426 
L 283.520368 120.799909 
L 287.629919 118.219721 
L 291.73947 121.210099 
L 295.849021 117.746419 
L 299.958572 128.137954 
L 304.068124 118.477781 
L 308.177675 113.284819 
L 312.287226 120.053201 
L 316.396777 98.767541 
L 320.506328 117.585296 
L 324.61588 112.686529 
L 328.725431 112.483826 
L 332.834982 112.568389 
L 336.944533 112.666151 
L 341.054084 110.687141 
L 345.163636 107.783636 
L 349.273187 114.495919 
L 353.382738 110.192636 
L 357.492289 114.210139 
L 361.60184 115.506214 
L 365.711392 111.434839 
L 369.820943 112.647671 
L 373.930494 106.638371 
L 378.040045 107.754266 
L 382.149597 98.293661 
L 386.259148 75.095816 
" clip-path="url(#p645ef5efbf)" style="fill: none; stroke: #21918c; stroke-width: 1.5; stroke-linecap: square"/>
   </g>
   <g id="line2d_30">
    <path d="M 61.604602 54.736796 
L 65.714153 54.975716 
L 69.823705 54.175961 
L 73.933256 57.087881 
L 78.042807 54.351026 
L 82.152358 62.837801 
L 86.26191 63.786221 
L 90.371461 67.873766 
L 94.481012 103.066286 
L 98.590563 110.457461 
L 102.700114 104.120636 
L 106.809666 111.883391 
L 110.919217 114.581966 
L 115.028768 137.886896 
L 119.138319 137.420111 
L 123.24787 146.053406 
L 127.357422 149.391191 
L 131.466973 158.783816 
L 135.576524 153.428081 
L 139.686075 166.957256 
L 143.795626 166.355666 
L 147.905178 182.974136 
L 152.014729 193.928074 
L 156.12428 206.099546 
L 160.233831 207.601211 
L 164.343382 211.650641 
L 168.452934 213.196774 
L 172.562485 213.738221 
L 176.672036 214.858489 
L 180.781587 217.175089 
L 184.891139 234.755674 
L 189.00069 223.041664 
L 193.110241 245.157521 
L 197.219792 254.268904 
L 201.329343 262.400186 
L 205.438895 260.763221 
L 209.548446 240.224846 
L 213.657997 228.187436 
L 217.767548 220.662281 
L 221.877099 198.511856 
L 225.986651 166.855286 
L 230.096202 154.934861 
L 234.205753 148.702151 
L 238.315304 141.681896 
L 242.424855 135.866306 
L 246.534407 136.510631 
L 250.643958 134.931581 
L 254.753509 120.992381 
L 258.86306 131.238881 
L 262.972611 132.350651 
L 267.082163 130.427081 
L 271.191714 119.631626 
L 275.301265 127.330526 
L 279.410816 115.536161 
L 283.520368 125.704121 
L 287.629919 121.697096 
L 291.73947 124.312016 
L 295.849021 118.721981 
L 299.958572 131.324516 
L 304.068124 123.455666 
L 308.177675 111.030506 
L 312.287226 124.731611 
L 316.396777 105.278276 
L 320.506328 118.959911 
L 324.61588 116.668226 
L 328.725431 116.268266 
L 332.834982 111.413966 
L 336.944533 116.097986 
L 341.054084 112.494881 
L 345.163636 105.532541 
L 349.273187 114.446006 
L 353.382738 110.674601 
L 357.492289 116.608826 
L 361.60184 116.096006 
L 365.711392 112.642061 
L 369.820943 111.190391 
L 373.930494 109.124096 
L 378.040045 109.177061 
L 382.149597 97.679696 
L 386.259148 73.061036 
" clip-path="url(#p645ef5efbf)" style="fill: none; stroke: #35b779; stroke-width: 1.5; stroke-linecap: square"/>
   </g>
   <g id="line2d_31">
    <path d="M 61.604602 54.683336 
L 65.714153 54.936941 
L 69.823705 54.124316 
L 73.933256 57.028811 
L 78.042807 54.370826 
L 82.152358 62.797871 
L 86.26191 63.796781 
L 90.371461 67.819481 
L 94.481012 102.456116 
L 98.590563 109.634111 
L 102.700114 103.462121 
L 106.809666 111.284936 
L 110.919217 113.983016 
L 115.028768 137.430671 
L 119.138319 137.216336 
L 123.24787 146.018591 
L 127.357422 149.708981 
L 131.466973 158.095271 
L 135.576524 153.215726 
L 139.686075 167.694476 
L 143.795626 166.585346 
L 147.905178 183.727526 
L 152.014729 194.367881 
L 156.12428 206.460731 
L 160.233831 207.569284 
L 164.343382 211.449589 
L 168.452934 212.922791 
L 172.562485 213.542036 
L 176.672036 214.394509 
L 180.781587 217.233746 
L 184.891139 234.394406 
L 189.00069 222.666371 
L 193.110241 244.572514 
L 197.219792 254.756644 
L 201.329343 262.653379 
L 205.438895 260.697964 
L 209.548446 241.562254 
L 213.657997 229.474931 
L 217.767548 217.914206 
L 221.877099 198.326479 
L 225.986651 168.157631 
L 230.096202 151.709854 
L 234.205753 142.434874 
L 238.315304 141.460301 
L 242.424855 134.947504 
L 246.534407 133.425379 
L 250.643958 134.575841 
L 254.753509 120.751811 
L 258.86306 129.532699 
L 262.972611 129.240484 
L 267.082163 130.325029 
L 271.191714 121.111016 
L 275.301265 128.087629 
L 279.410816 123.782696 
L 283.520368 127.738159 
L 287.629919 125.131736 
L 291.73947 127.903654 
L 295.849021 122.020496 
L 299.958572 131.839399 
L 304.068124 122.250424 
L 308.177675 117.299104 
L 312.287226 127.126916 
L 316.396777 113.644436 
L 320.506328 119.232326 
L 324.61588 121.262981 
L 328.725431 115.245101 
L 332.834982 118.323176 
L 336.944533 118.210481 
L 341.054084 114.762311 
L 345.163636 113.279786 
L 349.273187 121.030661 
L 353.382738 114.369611 
L 357.492289 118.845979 
L 361.60184 119.782931 
L 365.711392 116.366111 
L 369.820943 114.977636 
L 373.930494 112.692881 
L 378.040045 110.668496 
L 382.149597 100.758266 
L 386.259148 76.403771 
" clip-path="url(#p645ef5efbf)" style="fill: none; stroke: #90d743; stroke-width: 1.5; stroke-linecap: square"/>
   </g>
   <g id="patch_3">
    <path d="M 45.371875 278.630906 
L 45.371875 12.518906 
" style="fill: none; stroke: #000000; stroke-width: 0.8; stroke-linejoin: miter; stroke-linecap: square"/>
   </g>
   <g id="patch_4">
    <path d="M 402.491875 278.630906 
L 402.491875 12.518906 
" style="fill: none; stroke: #000000; stroke-width: 0.8; stroke-linejoin: miter; stroke-linecap: square"/>
   </g>
   <g id="patch_5">
    <path d="M 45.371875 278.630906 
L 402.491875 278.630906 
" style="fill: none; stroke: #000000; stroke-width: 0.8; stroke-linejoin: miter; stroke-linecap: square"/>
   </g>
   <g id="patch_6">
    <path d="M 45.371875 12.518906 
L 402.491875 12.518906 
" style="fill: none; stroke: #000000; stroke-width: 0.8; stroke-linejoin: miter; stroke-linecap: square"/>
   </g>
  </g>
 </g>
 <defs>
  <clipPath id="p645ef5efbf">
   <rect x="45.371875" y="12.518906" width="357.12" height="266.112"/>
  </clipPath>
 </defs>
</svg>
