<?xml version="1.0" encoding="utf-8" standalone="no"?>
<!DOCTYPE svg PUBLIC "-//W3C//DTD SVG 1.1//EN"
  "http://www.w3.org/Graphics/SVG/1.1/DTD/svg11.dtd">
<svg xmlns:xlink="http://www.w3.org/1999/xlink" width="409.691875pt" height="306.380281pt" viewBox="0 0 409.691875 306.380281" xmlns="http://www.w3.org/2000/svg" version="1.1">
 <metadata>
  <rdf:RDF xmlns:dc="http://purl.org/dc/elements/1.1/" xmlns:cc="http://creativecommons.org/ns#" xmlns:rdf="http://www.w3.org/1999/02/22-rdf-syntax-ns#">
   <cc:Work>
    <dc:type rdf:resource="http://purl.org/dc/dcmitype/StillImage"/>
    <dc:date>2024-09-29T20:27:05.664815</dc:date>
    <dc:format>image/svg+xml</dc:format>
    <dc:creator>
     <cc:Agent>
      <dc:title>Matplotlib v3.7.1, https://matplotlib.org/</dc:title>
     </cc:Agent>
    </dc:creator>
   </cc:Work>
  </rdf:RDF>
 </metadata>
 <defs>
  <style type="text/css">*{stroke-linejoin: round; stroke-linecap: butt}</style>
 </defs>
 <g id="figure_1">
  <g id="patch_1">
   <path d="M 0 306.380281 
L 409.691875 306.380281 
L 409.691875 0 
L 0 0 
z
" style="fill: #ffffff"/>
  </g>
  <g id="axes_1">
   <g id="patch_2">
    <path d="M 45.371875 278.630906 
L 402.491875 278.630906 
L 402.491875 12.518906 
L 45.371875 12.518906 
z
" style="fill: #f2f2f2"/>
   </g>
   <g id="matplotlib.axis_1">
    <g id="xtick_1">
     <g id="line2d_1">
      <path d="M 61.604602 278.630906 
L 61.604602 12.518906 
" clip-path="url(#p2c864eb094)" style="fill: none; stroke: #ffffff; stroke-linecap: square"/>
     </g>
     <g id="line2d_2">
      <defs>
       <path id="m69f174fd05" d="M 0 0 
L 0 3.5 
" style="stroke: #000000; stroke-width: 0.8"/>
      </defs>
      <g>
       <use xlink:href="#m69f174fd05" x="61.604602" y="278.630906" style="stroke: #000000; stroke-width: 0.8"/>
      </g>
     </g>
     <g id="text_1">
      <!-- 0 -->
      <g transform="translate(57.150852 296.268719) scale(0.14 -0.14)">
       <defs>
        <path id="DejaVuSans-30" d="M 2034 4250 
Q 1547 4250 1301 3770 
Q 1056 3291 1056 2328 
Q 1056 1369 1301 889 
Q 1547 409 2034 409 
Q 2525 409 2770 889 
Q 3016 1369 3016 2328 
Q 3016 3291 2770 3770 
Q 2525 4250 2034 4250 
z
M 2034 4750 
Q 2819 4750 3233 4129 
Q 3647 3509 3647 2328 
Q 3647 1150 3233 529 
Q 2819 -91 2034 -91 
Q 1250 -91 836 529 
Q 422 1150 422 2328 
Q 422 3509 836 4129 
Q 1250 4750 2034 4750 
z
" transform="scale(0.015625)"/>
       </defs>
       <use xlink:href="#DejaVuSans-30"/>
      </g>
     </g>
    </g>
    <g id="xtick_2">
     <g id="line2d_3">
      <path d="M 102.700114 278.630906 
L 102.700114 12.518906 
" clip-path="url(#p2c864eb094)" style="fill: none; stroke: #ffffff; stroke-linecap: square"/>
     </g>
     <g id="line2d_4">
      <g>
       <use xlink:href="#m69f174fd05" x="102.700114" y="278.630906" style="stroke: #000000; stroke-width: 0.8"/>
      </g>
     </g>
     <g id="text_2">
      <!-- 10 -->
      <g transform="translate(93.792614 296.268719) scale(0.14 -0.14)">
       <defs>
        <path id="DejaVuSans-31" d="M 794 531 
L 1825 531 
L 1825 4091 
L 703 3866 
L 703 4441 
L 1819 4666 
L 2450 4666 
L 2450 531 
L 3481 531 
L 3481 0 
L 794 0 
L 794 531 
z
" transform="scale(0.015625)"/>
       </defs>
       <use xlink:href="#DejaVuSans-31"/>
       <use xlink:href="#DejaVuSans-30" x="63.623047"/>
      </g>
     </g>
    </g>
    <g id="xtick_3">
     <g id="line2d_5">
      <path d="M 143.795626 278.630906 
L 143.795626 12.518906 
" clip-path="url(#p2c864eb094)" style="fill: none; stroke: #ffffff; stroke-linecap: square"/>
     </g>
     <g id="line2d_6">
      <g>
       <use xlink:href="#m69f174fd05" x="143.795626" y="278.630906" style="stroke: #000000; stroke-width: 0.8"/>
      </g>
     </g>
     <g id="text_3">
      <!-- 20 -->
      <g transform="translate(134.888126 296.268719) scale(0.14 -0.14)">
       <defs>
        <path id="DejaVuSans-32" d="M 1228 531 
L 3431 531 
L 3431 0 
L 469 0 
L 469 531 
Q 828 903 1448 1529 
Q 2069 2156 2228 2338 
Q 2531 2678 2651 2914 
Q 2772 3150 2772 3378 
Q 2772 3750 2511 3984 
Q 2250 4219 1831 4219 
Q 1534 4219 1204 4116 
Q 875 4013 500 3803 
L 500 4441 
Q 881 4594 1212 4672 
Q 1544 4750 1819 4750 
Q 2544 4750 2975 4387 
Q 3406 4025 3406 3419 
Q 3406 3131 3298 2873 
Q 3191 2616 2906 2266 
Q 2828 2175 2409 1742 
Q 1991 1309 1228 531 
z
" transform="scale(0.015625)"/>
       </defs>
       <use xlink:href="#DejaVuSans-32"/>
       <use xlink:href="#DejaVuSans-30" x="63.623047"/>
      </g>
     </g>
    </g>
    <g id="xtick_4">
     <g id="line2d_7">
      <path d="M 184.891139 278.630906 
L 184.891139 12.518906 
" clip-path="url(#p2c864eb094)" style="fill: none; stroke: #ffffff; stroke-linecap: square"/>
     </g>
     <g id="line2d_8">
      <g>
       <use xlink:href="#m69f174fd05" x="184.891139" y="278.630906" style="stroke: #000000; stroke-width: 0.8"/>
      </g>
     </g>
     <g id="text_4">
      <!-- 30 -->
      <g transform="translate(175.983639 296.268719) scale(0.14 -0.14)">
       <defs>
        <path id="DejaVuSans-33" d="M 2597 2516 
Q 3050 2419 3304 2112 
Q 3559 1806 3559 1356 
Q 3559 666 3084 287 
Q 2609 -91 1734 -91 
Q 1441 -91 1130 -33 
Q 819 25 488 141 
L 488 750 
Q 750 597 1062 519 
Q 1375 441 1716 441 
Q 2309 441 2620 675 
Q 2931 909 2931 1356 
Q 2931 1769 2642 2001 
Q 2353 2234 1838 2234 
L 1294 2234 
L 1294 2753 
L 1863 2753 
Q 2328 2753 2575 2939 
Q 2822 3125 2822 3475 
Q 2822 3834 2567 4026 
Q 2313 4219 1838 4219 
Q 1578 4219 1281 4162 
Q 984 4106 628 3988 
L 628 4550 
Q 988 4650 1302 4700 
Q 1616 4750 1894 4750 
Q 2613 4750 3031 4423 
Q 3450 4097 3450 3541 
Q 3450 3153 3228 2886 
Q 3006 2619 2597 2516 
z
" transform="scale(0.015625)"/>
       </defs>
       <use xlink:href="#DejaVuSans-33"/>
       <use xlink:href="#DejaVuSans-30" x="63.623047"/>
      </g>
     </g>
    </g>
    <g id="xtick_5">
     <g id="line2d_9">
      <path d="M 225.986651 278.630906 
L 225.986651 12.518906 
" clip-path="url(#p2c864eb094)" style="fill: none; stroke: #ffffff; stroke-linecap: square"/>
     </g>
     <g id="line2d_10">
      <g>
       <use xlink:href="#m69f174fd05" x="225.986651" y="278.630906" style="stroke: #000000; stroke-width: 0.8"/>
      </g>
     </g>
     <g id="text_5">
      <!-- 40 -->
      <g transform="translate(217.079151 296.268719) scale(0.14 -0.14)">
       <defs>
        <path id="DejaVuSans-34" d="M 2419 4116 
L 825 1625 
L 2419 1625 
L 2419 4116 
z
M 2253 4666 
L 3047 4666 
L 3047 1625 
L 3713 1625 
L 3713 1100 
L 3047 1100 
L 3047 0 
L 2419 0 
L 2419 1100 
L 313 1100 
L 313 1709 
L 2253 4666 
z
" transform="scale(0.015625)"/>
       </defs>
       <use xlink:href="#DejaVuSans-34"/>
       <use xlink:href="#DejaVuSans-30" x="63.623047"/>
      </g>
     </g>
    </g>
    <g id="xtick_6">
     <g id="line2d_11">
      <path d="M 267.082163 278.630906 
L 267.082163 12.518906 
" clip-path="url(#p2c864eb094)" style="fill: none; stroke: #ffffff; stroke-linecap: square"/>
     </g>
     <g id="line2d_12">
      <g>
       <use xlink:href="#m69f174fd05" x="267.082163" y="278.630906" style="stroke: #000000; stroke-width: 0.8"/>
      </g>
     </g>
     <g id="text_6">
      <!-- 50 -->
      <g transform="translate(258.174663 296.268719) scale(0.14 -0.14)">
       <defs>
        <path id="DejaVuSans-35" d="M 691 4666 
L 3169 4666 
L 3169 4134 
L 1269 4134 
L 1269 2991 
Q 1406 3038 1543 3061 
Q 1681 3084 1819 3084 
Q 2600 3084 3056 2656 
Q 3513 2228 3513 1497 
Q 3513 744 3044 326 
Q 2575 -91 1722 -91 
Q 1428 -91 1123 -41 
Q 819 9 494 109 
L 494 744 
Q 775 591 1075 516 
Q 1375 441 1709 441 
Q 2250 441 2565 725 
Q 2881 1009 2881 1497 
Q 2881 1984 2565 2268 
Q 2250 2553 1709 2553 
Q 1456 2553 1204 2497 
Q 953 2441 691 2322 
L 691 4666 
z
" transform="scale(0.015625)"/>
       </defs>
       <use xlink:href="#DejaVuSans-35"/>
       <use xlink:href="#DejaVuSans-30" x="63.623047"/>
      </g>
     </g>
    </g>
    <g id="xtick_7">
     <g id="line2d_13">
      <path d="M 308.177675 278.630906 
L 308.177675 12.518906 
" clip-path="url(#p2c864eb094)" style="fill: none; stroke: #ffffff; stroke-linecap: square"/>
     </g>
     <g id="line2d_14">
      <g>
       <use xlink:href="#m69f174fd05" x="308.177675" y="278.630906" style="stroke: #000000; stroke-width: 0.8"/>
      </g>
     </g>
     <g id="text_7">
      <!-- 60 -->
      <g transform="translate(299.270175 296.268719) scale(0.14 -0.14)">
       <defs>
        <path id="DejaVuSans-36" d="M 2113 2584 
Q 1688 2584 1439 2293 
Q 1191 2003 1191 1497 
Q 1191 994 1439 701 
Q 1688 409 2113 409 
Q 2538 409 2786 701 
Q 3034 994 3034 1497 
Q 3034 2003 2786 2293 
Q 2538 2584 2113 2584 
z
M 3366 4563 
L 3366 3988 
Q 3128 4100 2886 4159 
Q 2644 4219 2406 4219 
Q 1781 4219 1451 3797 
Q 1122 3375 1075 2522 
Q 1259 2794 1537 2939 
Q 1816 3084 2150 3084 
Q 2853 3084 3261 2657 
Q 3669 2231 3669 1497 
Q 3669 778 3244 343 
Q 2819 -91 2113 -91 
Q 1303 -91 875 529 
Q 447 1150 447 2328 
Q 447 3434 972 4092 
Q 1497 4750 2381 4750 
Q 2619 4750 2861 4703 
Q 3103 4656 3366 4563 
z
" transform="scale(0.015625)"/>
       </defs>
       <use xlink:href="#DejaVuSans-36"/>
       <use xlink:href="#DejaVuSans-30" x="63.623047"/>
      </g>
     </g>
    </g>
    <g id="xtick_8">
     <g id="line2d_15">
      <path d="M 349.273187 278.630906 
L 349.273187 12.518906 
" clip-path="url(#p2c864eb094)" style="fill: none; stroke: #ffffff; stroke-linecap: square"/>
     </g>
     <g id="line2d_16">
      <g>
       <use xlink:href="#m69f174fd05" x="349.273187" y="278.630906" style="stroke: #000000; stroke-width: 0.8"/>
      </g>
     </g>
     <g id="text_8">
      <!-- 70 -->
      <g transform="translate(340.365687 296.268719) scale(0.14 -0.14)">
       <defs>
        <path id="DejaVuSans-37" d="M 525 4666 
L 3525 4666 
L 3525 4397 
L 1831 0 
L 1172 0 
L 2766 4134 
L 525 4134 
L 525 4666 
z
" transform="scale(0.015625)"/>
       </defs>
       <use xlink:href="#DejaVuSans-37"/>
       <use xlink:href="#DejaVuSans-30" x="63.623047"/>
      </g>
     </g>
    </g>
    <g id="xtick_9">
     <g id="line2d_17">
      <path d="M 390.368699 278.630906 
L 390.368699 12.518906 
" clip-path="url(#p2c864eb094)" style="fill: none; stroke: #ffffff; stroke-linecap: square"/>
     </g>
     <g id="line2d_18">
      <g>
       <use xlink:href="#m69f174fd05" x="390.368699" y="278.630906" style="stroke: #000000; stroke-width: 0.8"/>
      </g>
     </g>
     <g id="text_9">
      <!-- 80 -->
      <g transform="translate(381.461199 296.268719) scale(0.14 -0.14)">
       <defs>
        <path id="DejaVuSans-38" d="M 2034 2216 
Q 1584 2216 1326 1975 
Q 1069 1734 1069 1313 
Q 1069 891 1326 650 
Q 1584 409 2034 409 
Q 2484 409 2743 651 
Q 3003 894 3003 1313 
Q 3003 1734 2745 1975 
Q 2488 2216 2034 2216 
z
M 1403 2484 
Q 997 2584 770 2862 
Q 544 3141 544 3541 
Q 544 4100 942 4425 
Q 1341 4750 2034 4750 
Q 2731 4750 3128 4425 
Q 3525 4100 3525 3541 
Q 3525 3141 3298 2862 
Q 3072 2584 2669 2484 
Q 3125 2378 3379 2068 
Q 3634 1759 3634 1313 
Q 3634 634 3220 271 
Q 2806 -91 2034 -91 
Q 1263 -91 848 271 
Q 434 634 434 1313 
Q 434 1759 690 2068 
Q 947 2378 1403 2484 
z
M 1172 3481 
Q 1172 3119 1398 2916 
Q 1625 2713 2034 2713 
Q 2441 2713 2670 2916 
Q 2900 3119 2900 3481 
Q 2900 3844 2670 4047 
Q 2441 4250 2034 4250 
Q 1625 4250 1398 4047 
Q 1172 3844 1172 3481 
z
" transform="scale(0.015625)"/>
       </defs>
       <use xlink:href="#DejaVuSans-38"/>
       <use xlink:href="#DejaVuSans-30" x="63.623047"/>
      </g>
     </g>
    </g>
   </g>
   <g id="matplotlib.axis_2">
    <g id="ytick_1">
     <g id="line2d_19">
      <defs>
       <path id="m331467e518" d="M 0 0 
L -3.5 0 
" style="stroke: #000000; stroke-width: 0.8"/>
      </defs>
      <g>
       <use xlink:href="#m331467e518" x="45.371875" y="278.630906" style="stroke: #000000; stroke-width: 0.8"/>
      </g>
     </g>
     <g id="text_10">
      <!-- 0.78 -->
      <g transform="translate(7.2 283.949812) scale(0.14 -0.14)">
       <defs>
        <path id="DejaVuSans-2e" d="M 684 794 
L 1344 794 
L 1344 0 
L 684 0 
L 684 794 
z
" transform="scale(0.015625)"/>
       </defs>
       <use xlink:href="#DejaVuSans-30"/>
       <use xlink:href="#DejaVuSans-2e" x="63.623047"/>
       <use xlink:href="#DejaVuSans-37" x="95.410156"/>
       <use xlink:href="#DejaVuSans-38" x="159.033203"/>
      </g>
     </g>
    </g>
    <g id="ytick_2">
     <g id="line2d_20">
      <g>
       <use xlink:href="#m331467e518" x="45.371875" y="252.019706" style="stroke: #000000; stroke-width: 0.8"/>
      </g>
     </g>
     <g id="text_11">
      <!-- 0.80 -->
      <g transform="translate(7.2 257.338612) scale(0.14 -0.14)">
       <use xlink:href="#DejaVuSans-30"/>
       <use xlink:href="#DejaVuSans-2e" x="63.623047"/>
       <use xlink:href="#DejaVuSans-38" x="95.410156"/>
       <use xlink:href="#DejaVuSans-30" x="159.033203"/>
      </g>
     </g>
    </g>
    <g id="ytick_3">
     <g id="line2d_21">
      <g>
       <use xlink:href="#m331467e518" x="45.371875" y="225.408506" style="stroke: #000000; stroke-width: 0.8"/>
      </g>
     </g>
     <g id="text_12">
      <!-- 0.83 -->
      <g transform="translate(7.2 230.727412) scale(0.14 -0.14)">
       <use xlink:href="#DejaVuSans-30"/>
       <use xlink:href="#DejaVuSans-2e" x="63.623047"/>
       <use xlink:href="#DejaVuSans-38" x="95.410156"/>
       <use xlink:href="#DejaVuSans-33" x="159.033203"/>
      </g>
     </g>
    </g>
    <g id="ytick_4">
     <g id="line2d_22">
      <g>
       <use xlink:href="#m331467e518" x="45.371875" y="198.797306" style="stroke: #000000; stroke-width: 0.8"/>
      </g>
     </g>
     <g id="text_13">
      <!-- 0.85 -->
      <g transform="translate(7.2 204.116212) scale(0.14 -0.14)">
       <use xlink:href="#DejaVuSans-30"/>
       <use xlink:href="#DejaVuSans-2e" x="63.623047"/>
       <use xlink:href="#DejaVuSans-38" x="95.410156"/>
       <use xlink:href="#DejaVuSans-35" x="159.033203"/>
      </g>
     </g>
    </g>
    <g id="ytick_5">
     <g id="line2d_23">
      <g>
       <use xlink:href="#m331467e518" x="45.371875" y="172.186106" style="stroke: #000000; stroke-width: 0.8"/>
      </g>
     </g>
     <g id="text_14">
      <!-- 0.88 -->
      <g transform="translate(7.2 177.505012) scale(0.14 -0.14)">
       <use xlink:href="#DejaVuSans-30"/>
       <use xlink:href="#DejaVuSans-2e" x="63.623047"/>
       <use xlink:href="#DejaVuSans-38" x="95.410156"/>
       <use xlink:href="#DejaVuSans-38" x="159.033203"/>
      </g>
     </g>
    </g>
    <g id="ytick_6">
     <g id="line2d_24">
      <g>
       <use xlink:href="#m331467e518" x="45.371875" y="145.574906" style="stroke: #000000; stroke-width: 0.8"/>
      </g>
     </g>
     <g id="text_15">
      <!-- 0.90 -->
      <g transform="translate(7.2 150.893812) scale(0.14 -0.14)">
       <defs>
        <path id="DejaVuSans-39" d="M 703 97 
L 703 672 
Q 941 559 1184 500 
Q 1428 441 1663 441 
Q 2288 441 2617 861 
Q 2947 1281 2994 2138 
Q 2813 1869 2534 1725 
Q 2256 1581 1919 1581 
Q 1219 1581 811 2004 
Q 403 2428 403 3163 
Q 403 3881 828 4315 
Q 1253 4750 1959 4750 
Q 2769 4750 3195 4129 
Q 3622 3509 3622 2328 
Q 3622 1225 3098 567 
Q 2575 -91 1691 -91 
Q 1453 -91 1209 -44 
Q 966 3 703 97 
z
M 1959 2075 
Q 2384 2075 2632 2365 
Q 2881 2656 2881 3163 
Q 2881 3666 2632 3958 
Q 2384 4250 1959 4250 
Q 1534 4250 1286 3958 
Q 1038 3666 1038 3163 
Q 1038 2656 1286 2365 
Q 1534 2075 1959 2075 
z
" transform="scale(0.015625)"/>
       </defs>
       <use xlink:href="#DejaVuSans-30"/>
       <use xlink:href="#DejaVuSans-2e" x="63.623047"/>
       <use xlink:href="#DejaVuSans-39" x="95.410156"/>
       <use xlink:href="#DejaVuSans-30" x="159.033203"/>
      </g>
     </g>
    </g>
    <g id="ytick_7">
     <g id="line2d_25">
      <g>
       <use xlink:href="#m331467e518" x="45.371875" y="118.963706" style="stroke: #000000; stroke-width: 0.8"/>
      </g>
     </g>
     <g id="text_16">
      <!-- 0.93 -->
      <g transform="translate(7.2 124.282612) scale(0.14 -0.14)">
       <use xlink:href="#DejaVuSans-30"/>
       <use xlink:href="#DejaVuSans-2e" x="63.623047"/>
       <use xlink:href="#DejaVuSans-39" x="95.410156"/>
       <use xlink:href="#DejaVuSans-33" x="159.033203"/>
      </g>
     </g>
    </g>
    <g id="ytick_8">
     <g id="line2d_26">
      <g>
       <use xlink:href="#m331467e518" x="45.371875" y="92.352506" style="stroke: #000000; stroke-width: 0.8"/>
      </g>
     </g>
     <g id="text_17">
      <!-- 0.95 -->
      <g transform="translate(7.2 97.671412) scale(0.14 -0.14)">
       <use xlink:href="#DejaVuSans-30"/>
       <use xlink:href="#DejaVuSans-2e" x="63.623047"/>
       <use xlink:href="#DejaVuSans-39" x="95.410156"/>
       <use xlink:href="#DejaVuSans-35" x="159.033203"/>
      </g>
     </g>
    </g>
    <g id="ytick_9">
     <g id="line2d_27">
      <g>
       <use xlink:href="#m331467e518" x="45.371875" y="65.741306" style="stroke: #000000; stroke-width: 0.8"/>
      </g>
     </g>
     <g id="text_18">
      <!-- 0.98 -->
      <g transform="translate(7.2 71.060212) scale(0.14 -0.14)">
       <use xlink:href="#DejaVuSans-30"/>
       <use xlink:href="#DejaVuSans-2e" x="63.623047"/>
       <use xlink:href="#DejaVuSans-39" x="95.410156"/>
       <use xlink:href="#DejaVuSans-38" x="159.033203"/>
      </g>
     </g>
    </g>
    <g id="ytick_10">
     <g id="line2d_28">
      <g>
       <use xlink:href="#m331467e518" x="45.371875" y="39.130106" style="stroke: #000000; stroke-width: 0.8"/>
      </g>
     </g>
     <g id="text_19">
      <!-- 1.00 -->
      <g transform="translate(7.2 44.449012) scale(0.14 -0.14)">
       <use xlink:href="#DejaVuSans-31"/>
       <use xlink:href="#DejaVuSans-2e" x="63.623047"/>
       <use xlink:href="#DejaVuSans-30" x="95.410156"/>
       <use xlink:href="#DejaVuSans-30" x="159.033203"/>
      </g>
     </g>
    </g>
    <g id="ytick_11">
     <g id="line2d_29">
      <g>
       <use xlink:href="#m331467e518" x="45.371875" y="12.518906" style="stroke: #000000; stroke-width: 0.8"/>
      </g>
     </g>
     <g id="text_20">
      <!-- 1.02 -->
      <g transform="translate(7.2 17.837812) scale(0.14 -0.14)">
       <use xlink:href="#DejaVuSans-31"/>
       <use xlink:href="#DejaVuSans-2e" x="63.623047"/>
       <use xlink:href="#DejaVuSans-30" x="95.410156"/>
       <use xlink:href="#DejaVuSans-32" x="159.033203"/>
      </g>
     </g>
    </g>
   </g>
   <g id="line2d_30">
    <path d="M 61.604602 43.886396 
L 65.714153 46.632755 
L 69.823705 45.392747 
L 73.933256 49.677104 
L 78.042807 49.260611 
L 82.152358 58.743161 
L 86.26191 59.084348 
L 90.371461 61.511234 
L 94.481012 82.476563 
L 98.590563 85.937174 
L 102.700114 84.918002 
L 106.809666 99.649796 
L 110.919217 101.367974 
L 115.028768 148.946351 
L 119.138319 145.55042 
L 123.24787 148.187054 
L 127.357422 166.027184 
L 131.466973 177.876329 
L 135.576524 177.647639 
L 139.686075 184.208732 
L 143.795626 186.439499 
L 147.905178 191.157097 
L 152.014729 199.29361 
L 156.12428 202.786676 
L 160.233831 202.941215 
L 164.343382 204.405755 
L 168.452934 203.55914 
L 172.562485 212.299256 
L 176.672036 217.837943 
L 180.781587 207.183992 
L 184.891139 224.026895 
L 189.00069 198.802388 
L 193.110241 215.778116 
L 197.219792 247.535765 
L 201.329343 250.672514 
L 205.438895 253.398083 
L 209.548446 234.559802 
L 213.657997 232.973294 
L 217.767548 234.630719 
L 221.877099 219.198071 
L 225.986651 207.614345 
L 230.096202 205.448489 
L 234.205753 188.293274 
L 238.315304 187.717045 
L 242.424855 163.990688 
L 246.534407 179.257247 
L 250.643958 187.116676 
L 254.753509 176.192917 
L 258.86306 178.664963 
L 262.972611 180.198572 
L 267.082163 168.264304 
L 271.191714 178.553159 
L 275.301265 180.4771 
L 279.410816 179.38834 
L 283.520368 171.896432 
L 287.629919 186.12095 
L 291.73947 182.958907 
L 295.849021 172.015282 
L 299.958572 190.731883 
L 304.068124 193.76243 
L 308.177675 189.118868 
L 312.287226 179.954174 
L 316.396777 190.456069 
L 320.506328 192.829363 
L 324.61588 190.900051 
L 328.725431 198.391728 
L 332.834982 187.14428 
L 336.944533 165.009398 
L 341.054084 178.922759 
L 345.163636 184.701109 
L 349.273187 187.843748 
L 353.382738 184.217626 
L 357.492289 188.891449 
L 361.60184 181.480738 
L 365.711392 166.55525 
L 369.820943 155.122136 
L 373.930494 153.897605 
L 378.040045 141.43169 
L 382.149597 112.94477 
L 386.259148 79.214381 
" clip-path="url(#p2c864eb094)" style="fill: none; stroke: #443983; stroke-width: 1.5; stroke-linecap: square"/>
   </g>
   <g id="line2d_31">
    <path d="M 61.604602 43.671566 
L 65.714153 46.602956 
L 69.823705 45.242828 
L 73.933256 49.622588 
L 78.042807 49.015751 
L 82.152358 58.767416 
L 86.26191 59.109989 
L 90.371461 62.004881 
L 94.481012 84.468938 
L 98.590563 88.445603 
L 102.700114 87.018947 
L 106.809666 102.997217 
L 110.919217 105.048266 
L 115.028768 157.225391 
L 119.138319 152.641427 
L 123.24787 156.214073 
L 127.357422 172.91006 
L 131.466973 182.319152 
L 135.576524 180.670274 
L 139.686075 185.955092 
L 143.795626 189.178582 
L 147.905178 193.514567 
L 152.014729 201.423199 
L 156.12428 204.754565 
L 160.233831 207.1304 
L 164.343382 203.383811 
L 168.452934 201.959234 
L 172.562485 209.885075 
L 176.672036 215.507153 
L 180.781587 204.108689 
L 184.891139 221.239187 
L 189.00069 196.323527 
L 193.110241 211.851578 
L 197.219792 245.294834 
L 201.329343 245.799338 
L 205.438895 249.547313 
L 209.548446 230.231786 
L 213.657997 231.012797 
L 217.767548 229.291385 
L 221.877099 219.203846 
L 225.986651 208.612265 
L 230.096202 217.166426 
L 234.205753 199.873766 
L 238.315304 201.517447 
L 242.424855 172.449562 
L 246.534407 195.638035 
L 250.643958 203.224075 
L 254.753509 193.366496 
L 258.86306 200.317228 
L 262.972611 203.036041 
L 267.082163 194.951965 
L 271.191714 201.313069 
L 275.301265 200.394382 
L 279.410816 199.628271 
L 283.520368 187.874875 
L 287.629919 213.496818 
L 291.73947 196.568503 
L 295.849021 177.240444 
L 299.958572 209.457436 
L 304.068124 207.684742 
L 308.177675 208.273388 
L 312.287226 198.416618 
L 316.396777 211.339509 
L 320.506328 214.114916 
L 324.61588 203.257339 
L 328.725431 213.424226 
L 332.834982 209.676482 
L 336.944533 198.869032 
L 341.054084 203.505779 
L 345.163636 203.774317 
L 349.273187 206.783092 
L 353.382738 199.613891 
L 357.492289 206.799493 
L 361.60184 196.29188 
L 365.711392 183.292009 
L 369.820943 173.196385 
L 373.930494 166.588052 
L 378.040045 154.174921 
L 382.149597 122.320598 
L 386.259148 84.016178 
" clip-path="url(#p2c864eb094)" style="fill: none; stroke: #31688e; stroke-width: 1.5; stroke-linecap: square"/>
   </g>
   <g id="line2d_32">
    <path d="M 61.604602 43.50155 
L 65.714153 46.605035 
L 69.823705 45.168215 
L 73.933256 49.74548 
L 78.042807 48.778514 
L 82.152358 58.69673 
L 86.26191 58.846418 
L 90.371461 61.535258 
L 94.481012 85.365911 
L 98.590563 89.505431 
L 102.700114 87.883118 
L 106.809666 104.660186 
L 110.919217 107.612135 
L 115.028768 161.501432 
L 119.138319 155.411579 
L 123.24787 157.633799 
L 127.357422 174.094397 
L 131.466973 185.44874 
L 135.576524 191.943998 
L 139.686075 193.620134 
L 143.795626 196.960625 
L 147.905178 202.740361 
L 152.014729 208.280203 
L 156.12428 209.829635 
L 160.233831 216.862892 
L 164.343382 206.759645 
L 168.452934 202.322135 
L 172.562485 210.169205 
L 176.672036 216.880217 
L 180.781587 202.262999 
L 184.891139 218.697263 
L 189.00069 193.982804 
L 193.110241 202.789448 
L 197.219792 240.363446 
L 201.329343 240.453421 
L 205.438895 246.231077 
L 209.548446 223.184669 
L 213.657997 218.790125 
L 217.767548 211.558555 
L 221.877099 210.548045 
L 225.986651 195.062498 
L 230.096202 191.957396 
L 234.205753 179.871245 
L 238.315304 172.634246 
L 242.424855 151.067855 
L 246.534407 163.095794 
L 250.643958 168.762455 
L 254.753509 162.974981 
L 258.86306 172.502345 
L 262.972611 176.31731 
L 267.082163 161.248603 
L 271.191714 163.365949 
L 275.301265 176.241658 
L 279.410816 169.062409 
L 283.520368 168.05444 
L 287.629919 182.21116 
L 291.73947 164.193391 
L 295.849021 141.472346 
L 299.958572 176.189683 
L 304.068124 182.854148 
L 308.177675 165.564607 
L 312.287226 143.115449 
L 316.396777 192.597151 
L 320.506328 183.740726 
L 324.61588 178.433617 
L 328.725431 184.284154 
L 332.834982 184.59404 
L 336.944533 177.375868 
L 341.054084 171.593822 
L 345.163636 181.545187 
L 349.273187 181.167964 
L 353.382738 170.624777 
L 357.492289 175.012969 
L 361.60184 170.918147 
L 365.711392 164.401984 
L 369.820943 157.501552 
L 373.930494 144.914015 
L 378.040045 143.564744 
L 382.149597 124.04894 
L 386.259148 91.954262 
" clip-path="url(#p2c864eb094)" style="fill: none; stroke: #21918c; stroke-width: 1.5; stroke-linecap: square"/>
   </g>
   <g id="line2d_33">
    <path d="M 61.604602 43.352555 
L 65.714153 46.473596 
L 69.823705 44.957774 
L 73.933256 49.447259 
L 78.042807 48.399212 
L 82.152358 58.244663 
L 86.26191 58.214864 
L 90.371461 61.624655 
L 94.481012 86.544935 
L 98.590563 91.259183 
L 102.700114 89.245556 
L 106.809666 105.040181 
L 110.919217 108.276029 
L 115.028768 163.149155 
L 119.138319 158.588984 
L 123.24787 159.341582 
L 127.357422 174.727799 
L 131.466973 184.77653 
L 135.576524 191.308979 
L 139.686075 186.645551 
L 143.795626 191.828498 
L 147.905178 194.532815 
L 152.014729 201.784367 
L 156.12428 204.241052 
L 160.233831 210.873062 
L 164.343382 197.592872 
L 168.452934 194.820641 
L 172.562485 203.151887 
L 176.672036 210.975857 
L 180.781587 199.101302 
L 184.891139 216.671393 
L 189.00069 186.61298 
L 193.110241 202.339229 
L 197.219792 242.625629 
L 201.329343 238.605074 
L 205.438895 243.716642 
L 209.548446 221.902157 
L 213.657997 219.047228 
L 217.767548 212.659847 
L 221.877099 217.798442 
L 225.986651 196.183541 
L 230.096202 193.071278 
L 234.205753 195.910499 
L 238.315304 189.224782 
L 242.424855 169.330022 
L 246.534407 182.584456 
L 250.643958 193.743488 
L 254.753509 182.746964 
L 258.86306 200.209525 
L 262.972611 199.668292 
L 267.082163 182.247658 
L 271.191714 182.522317 
L 275.301265 198.833227 
L 279.410816 191.6683 
L 283.520368 191.785763 
L 287.629919 210.805148 
L 291.73947 190.072783 
L 295.849021 164.801152 
L 299.958572 206.957035 
L 304.068124 208.461884 
L 308.177675 186.743495 
L 312.287226 168.880843 
L 316.396777 222.714584 
L 320.506328 209.728342 
L 324.61588 210.739313 
L 328.725431 213.622424 
L 332.834982 207.656156 
L 336.944533 200.600839 
L 341.054084 193.397335 
L 345.163636 203.279515 
L 349.273187 201.987185 
L 353.382738 193.758041 
L 357.492289 197.406686 
L 361.60184 195.039052 
L 365.711392 185.82527 
L 369.820943 178.245929 
L 373.930494 161.848394 
L 378.040045 161.626172 
L 382.149597 141.31388 
L 386.259148 106.848911 
" clip-path="url(#p2c864eb094)" style="fill: none; stroke: #35b779; stroke-width: 1.5; stroke-linecap: square"/>
   </g>
   <g id="line2d_34">
    <path d="M 61.604602 43.410767 
L 65.714153 46.451882 
L 69.823705 45.036314 
L 73.933256 49.420232 
L 78.042807 48.559757 
L 82.152358 57.82817 
L 86.26191 57.979706 
L 90.371461 60.983399 
L 94.481012 83.548634 
L 98.590563 87.587438 
L 102.700114 85.908992 
L 106.809666 100.974581 
L 110.919217 103.666886 
L 115.028768 155.656439 
L 119.138319 150.783725 
L 123.24787 153.675614 
L 127.357422 169.38269 
L 131.466973 179.763137 
L 135.576524 181.144286 
L 139.686075 184.478078 
L 143.795626 188.043101 
L 147.905178 192.008447 
L 152.014729 199.382429 
L 156.12428 201.986261 
L 160.233831 206.361632 
L 164.343382 199.504859 
L 168.452934 197.256767 
L 172.562485 207.256295 
L 176.672036 212.405747 
L 180.781587 200.316593 
L 184.891139 217.117916 
L 189.00069 192.137345 
L 193.110241 205.101296 
L 197.219792 239.66444 
L 201.329343 238.977446 
L 205.438895 241.097333 
L 209.548446 221.135006 
L 213.657997 217.56005 
L 217.767548 218.362082 
L 221.877099 208.450334 
L 225.986651 190.462133 
L 230.096202 185.888333 
L 234.205753 172.185644 
L 238.315304 169.845152 
L 242.424855 152.593148 
L 246.534407 163.860173 
L 250.643958 166.345733 
L 254.753509 155.649047 
L 258.86306 161.384777 
L 262.972611 159.629408 
L 267.082163 143.723441 
L 271.191714 151.734521 
L 275.301265 154.949348 
L 279.410816 157.952117 
L 283.520368 153.959744 
L 287.629919 166.24109 
L 291.73947 148.497749 
L 295.849021 149.048107 
L 299.958572 162.46528 
L 304.068124 170.523368 
L 308.177675 168.527066 
L 312.287226 158.790301 
L 316.396777 167.544046 
L 320.506328 170.107799 
L 324.61588 172.378414 
L 328.725431 177.16612 
L 332.834982 163.992536 
L 336.944533 167.61323 
L 341.054084 168.757373 
L 345.163636 172.598672 
L 349.273187 173.362358 
L 353.382738 166.080083 
L 357.492289 170.904634 
L 361.60184 169.014476 
L 365.711392 156.968057 
L 369.820943 152.030663 
L 373.930494 143.213855 
L 378.040045 134.133707 
L 382.149597 111.856529 
L 386.259148 78.7868 
" clip-path="url(#p2c864eb094)" style="fill: none; stroke: #90d743; stroke-width: 1.5; stroke-linecap: square"/>
   </g>
   <g id="patch_3">
    <path d="M 45.371875 278.630906 
L 45.371875 12.518906 
" style="fill: none; stroke: #000000; stroke-width: 0.8; stroke-linejoin: miter; stroke-linecap: square"/>
   </g>
   <g id="patch_4">
    <path d="M 402.491875 278.630906 
L 402.491875 12.518906 
" style="fill: none; stroke: #000000; stroke-width: 0.8; stroke-linejoin: miter; stroke-linecap: square"/>
   </g>
   <g id="patch_5">
    <path d="M 45.371875 278.630906 
L 402.491875 278.630906 
" style="fill: none; stroke: #000000; stroke-width: 0.8; stroke-linejoin: miter; stroke-linecap: square"/>
   </g>
   <g id="patch_6">
    <path d="M 45.371875 12.518906 
L 402.491875 12.518906 
" style="fill: none; stroke: #000000; stroke-width: 0.8; stroke-linejoin: miter; stroke-linecap: square"/>
   </g>
  </g>
 </g>
 <defs>
  <clipPath id="p2c864eb094">
   <rect x="45.371875" y="12.518906" width="357.12" height="266.112"/>
  </clipPath>
 </defs>
</svg>
