<?xml version="1.0" encoding="utf-8" standalone="no"?>
<!DOCTYPE svg PUBLIC "-//W3C//DTD SVG 1.1//EN"
  "http://www.w3.org/Graphics/SVG/1.1/DTD/svg11.dtd">
<svg xmlns:xlink="http://www.w3.org/1999/xlink" width="409.691875pt" height="306.380281pt" viewBox="0 0 409.691875 306.380281" xmlns="http://www.w3.org/2000/svg" version="1.1">
 <metadata>
  <rdf:RDF xmlns:dc="http://purl.org/dc/elements/1.1/" xmlns:cc="http://creativecommons.org/ns#" xmlns:rdf="http://www.w3.org/1999/02/22-rdf-syntax-ns#">
   <cc:Work>
    <dc:type rdf:resource="http://purl.org/dc/dcmitype/StillImage"/>
    <dc:date>2024-09-29T20:27:08.551613</dc:date>
    <dc:format>image/svg+xml</dc:format>
    <dc:creator>
     <cc:Agent>
      <dc:title>Matplotlib v3.7.1, https://matplotlib.org/</dc:title>
     </cc:Agent>
    </dc:creator>
   </cc:Work>
  </rdf:RDF>
 </metadata>
 <defs>
  <style type="text/css">*{stroke-linejoin: round; stroke-linecap: butt}</style>
 </defs>
 <g id="figure_1">
  <g id="patch_1">
   <path d="M 0 306.380281 
L 409.691875 306.380281 
L 409.691875 0 
L 0 0 
z
" style="fill: #ffffff"/>
  </g>
  <g id="axes_1">
   <g id="patch_2">
    <path d="M 45.371875 278.630906 
L 402.491875 278.630906 
L 402.491875 12.518906 
L 45.371875 12.518906 
z
" style="fill: #f2f2f2"/>
   </g>
   <g id="matplotlib.axis_1">
    <g id="xtick_1">
     <g id="line2d_1">
      <path d="M 61.604602 278.630906 
L 61.604602 12.518906 
" clip-path="url(#pbeec0b2a03)" style="fill: none; stroke: #ffffff; stroke-linecap: square"/>
     </g>
     <g id="line2d_2">
      <defs>
       <path id="mf48f7d3f68" d="M 0 0 
L 0 3.5 
" style="stroke: #000000; stroke-width: 0.8"/>
      </defs>
      <g>
       <use xlink:href="#mf48f7d3f68" x="61.604602" y="278.630906" style="stroke: #000000; stroke-width: 0.8"/>
      </g>
     </g>
     <g id="text_1">
      <!-- 0 -->
      <g transform="translate(57.150852 296.268719) scale(0.14 -0.14)">
       <defs>
        <path id="DejaVuSans-30" d="M 2034 4250 
Q 1547 4250 1301 3770 
Q 1056 3291 1056 2328 
Q 1056 1369 1301 889 
Q 1547 409 2034 409 
Q 2525 409 2770 889 
Q 3016 1369 3016 2328 
Q 3016 3291 2770 3770 
Q 2525 4250 2034 4250 
z
M 2034 4750 
Q 2819 4750 3233 4129 
Q 3647 3509 3647 2328 
Q 3647 1150 3233 529 
Q 2819 -91 2034 -91 
Q 1250 -91 836 529 
Q 422 1150 422 2328 
Q 422 3509 836 4129 
Q 1250 4750 2034 4750 
z
" transform="scale(0.015625)"/>
       </defs>
       <use xlink:href="#DejaVuSans-30"/>
      </g>
     </g>
    </g>
    <g id="xtick_2">
     <g id="line2d_3">
      <path d="M 102.700114 278.630906 
L 102.700114 12.518906 
" clip-path="url(#pbeec0b2a03)" style="fill: none; stroke: #ffffff; stroke-linecap: square"/>
     </g>
     <g id="line2d_4">
      <g>
       <use xlink:href="#mf48f7d3f68" x="102.700114" y="278.630906" style="stroke: #000000; stroke-width: 0.8"/>
      </g>
     </g>
     <g id="text_2">
      <!-- 10 -->
      <g transform="translate(93.792614 296.268719) scale(0.14 -0.14)">
       <defs>
        <path id="DejaVuSans-31" d="M 794 531 
L 1825 531 
L 1825 4091 
L 703 3866 
L 703 4441 
L 1819 4666 
L 2450 4666 
L 2450 531 
L 3481 531 
L 3481 0 
L 794 0 
L 794 531 
z
" transform="scale(0.015625)"/>
       </defs>
       <use xlink:href="#DejaVuSans-31"/>
       <use xlink:href="#DejaVuSans-30" x="63.623047"/>
      </g>
     </g>
    </g>
    <g id="xtick_3">
     <g id="line2d_5">
      <path d="M 143.795626 278.630906 
L 143.795626 12.518906 
" clip-path="url(#pbeec0b2a03)" style="fill: none; stroke: #ffffff; stroke-linecap: square"/>
     </g>
     <g id="line2d_6">
      <g>
       <use xlink:href="#mf48f7d3f68" x="143.795626" y="278.630906" style="stroke: #000000; stroke-width: 0.8"/>
      </g>
     </g>
     <g id="text_3">
      <!-- 20 -->
      <g transform="translate(134.888126 296.268719) scale(0.14 -0.14)">
       <defs>
        <path id="DejaVuSans-32" d="M 1228 531 
L 3431 531 
L 3431 0 
L 469 0 
L 469 531 
Q 828 903 1448 1529 
Q 2069 2156 2228 2338 
Q 2531 2678 2651 2914 
Q 2772 3150 2772 3378 
Q 2772 3750 2511 3984 
Q 2250 4219 1831 4219 
Q 1534 4219 1204 4116 
Q 875 4013 500 3803 
L 500 4441 
Q 881 4594 1212 4672 
Q 1544 4750 1819 4750 
Q 2544 4750 2975 4387 
Q 3406 4025 3406 3419 
Q 3406 3131 3298 2873 
Q 3191 2616 2906 2266 
Q 2828 2175 2409 1742 
Q 1991 1309 1228 531 
z
" transform="scale(0.015625)"/>
       </defs>
       <use xlink:href="#DejaVuSans-32"/>
       <use xlink:href="#DejaVuSans-30" x="63.623047"/>
      </g>
     </g>
    </g>
    <g id="xtick_4">
     <g id="line2d_7">
      <path d="M 184.891139 278.630906 
L 184.891139 12.518906 
" clip-path="url(#pbeec0b2a03)" style="fill: none; stroke: #ffffff; stroke-linecap: square"/>
     </g>
     <g id="line2d_8">
      <g>
       <use xlink:href="#mf48f7d3f68" x="184.891139" y="278.630906" style="stroke: #000000; stroke-width: 0.8"/>
      </g>
     </g>
     <g id="text_4">
      <!-- 30 -->
      <g transform="translate(175.983639 296.268719) scale(0.14 -0.14)">
       <defs>
        <path id="DejaVuSans-33" d="M 2597 2516 
Q 3050 2419 3304 2112 
Q 3559 1806 3559 1356 
Q 3559 666 3084 287 
Q 2609 -91 1734 -91 
Q 1441 -91 1130 -33 
Q 819 25 488 141 
L 488 750 
Q 750 597 1062 519 
Q 1375 441 1716 441 
Q 2309 441 2620 675 
Q 2931 909 2931 1356 
Q 2931 1769 2642 2001 
Q 2353 2234 1838 2234 
L 1294 2234 
L 1294 2753 
L 1863 2753 
Q 2328 2753 2575 2939 
Q 2822 3125 2822 3475 
Q 2822 3834 2567 4026 
Q 2313 4219 1838 4219 
Q 1578 4219 1281 4162 
Q 984 4106 628 3988 
L 628 4550 
Q 988 4650 1302 4700 
Q 1616 4750 1894 4750 
Q 2613 4750 3031 4423 
Q 3450 4097 3450 3541 
Q 3450 3153 3228 2886 
Q 3006 2619 2597 2516 
z
" transform="scale(0.015625)"/>
       </defs>
       <use xlink:href="#DejaVuSans-33"/>
       <use xlink:href="#DejaVuSans-30" x="63.623047"/>
      </g>
     </g>
    </g>
    <g id="xtick_5">
     <g id="line2d_9">
      <path d="M 225.986651 278.630906 
L 225.986651 12.518906 
" clip-path="url(#pbeec0b2a03)" style="fill: none; stroke: #ffffff; stroke-linecap: square"/>
     </g>
     <g id="line2d_10">
      <g>
       <use xlink:href="#mf48f7d3f68" x="225.986651" y="278.630906" style="stroke: #000000; stroke-width: 0.8"/>
      </g>
     </g>
     <g id="text_5">
      <!-- 40 -->
      <g transform="translate(217.079151 296.268719) scale(0.14 -0.14)">
       <defs>
        <path id="DejaVuSans-34" d="M 2419 4116 
L 825 1625 
L 2419 1625 
L 2419 4116 
z
M 2253 4666 
L 3047 4666 
L 3047 1625 
L 3713 1625 
L 3713 1100 
L 3047 1100 
L 3047 0 
L 2419 0 
L 2419 1100 
L 313 1100 
L 313 1709 
L 2253 4666 
z
" transform="scale(0.015625)"/>
       </defs>
       <use xlink:href="#DejaVuSans-34"/>
       <use xlink:href="#DejaVuSans-30" x="63.623047"/>
      </g>
     </g>
    </g>
    <g id="xtick_6">
     <g id="line2d_11">
      <path d="M 267.082163 278.630906 
L 267.082163 12.518906 
" clip-path="url(#pbeec0b2a03)" style="fill: none; stroke: #ffffff; stroke-linecap: square"/>
     </g>
     <g id="line2d_12">
      <g>
       <use xlink:href="#mf48f7d3f68" x="267.082163" y="278.630906" style="stroke: #000000; stroke-width: 0.8"/>
      </g>
     </g>
     <g id="text_6">
      <!-- 50 -->
      <g transform="translate(258.174663 296.268719) scale(0.14 -0.14)">
       <defs>
        <path id="DejaVuSans-35" d="M 691 4666 
L 3169 4666 
L 3169 4134 
L 1269 4134 
L 1269 2991 
Q 1406 3038 1543 3061 
Q 1681 3084 1819 3084 
Q 2600 3084 3056 2656 
Q 3513 2228 3513 1497 
Q 3513 744 3044 326 
Q 2575 -91 1722 -91 
Q 1428 -91 1123 -41 
Q 819 9 494 109 
L 494 744 
Q 775 591 1075 516 
Q 1375 441 1709 441 
Q 2250 441 2565 725 
Q 2881 1009 2881 1497 
Q 2881 1984 2565 2268 
Q 2250 2553 1709 2553 
Q 1456 2553 1204 2497 
Q 953 2441 691 2322 
L 691 4666 
z
" transform="scale(0.015625)"/>
       </defs>
       <use xlink:href="#DejaVuSans-35"/>
       <use xlink:href="#DejaVuSans-30" x="63.623047"/>
      </g>
     </g>
    </g>
    <g id="xtick_7">
     <g id="line2d_13">
      <path d="M 308.177675 278.630906 
L 308.177675 12.518906 
" clip-path="url(#pbeec0b2a03)" style="fill: none; stroke: #ffffff; stroke-linecap: square"/>
     </g>
     <g id="line2d_14">
      <g>
       <use xlink:href="#mf48f7d3f68" x="308.177675" y="278.630906" style="stroke: #000000; stroke-width: 0.8"/>
      </g>
     </g>
     <g id="text_7">
      <!-- 60 -->
      <g transform="translate(299.270175 296.268719) scale(0.14 -0.14)">
       <defs>
        <path id="DejaVuSans-36" d="M 2113 2584 
Q 1688 2584 1439 2293 
Q 1191 2003 1191 1497 
Q 1191 994 1439 701 
Q 1688 409 2113 409 
Q 2538 409 2786 701 
Q 3034 994 3034 1497 
Q 3034 2003 2786 2293 
Q 2538 2584 2113 2584 
z
M 3366 4563 
L 3366 3988 
Q 3128 4100 2886 4159 
Q 2644 4219 2406 4219 
Q 1781 4219 1451 3797 
Q 1122 3375 1075 2522 
Q 1259 2794 1537 2939 
Q 1816 3084 2150 3084 
Q 2853 3084 3261 2657 
Q 3669 2231 3669 1497 
Q 3669 778 3244 343 
Q 2819 -91 2113 -91 
Q 1303 -91 875 529 
Q 447 1150 447 2328 
Q 447 3434 972 4092 
Q 1497 4750 2381 4750 
Q 2619 4750 2861 4703 
Q 3103 4656 3366 4563 
z
" transform="scale(0.015625)"/>
       </defs>
       <use xlink:href="#DejaVuSans-36"/>
       <use xlink:href="#DejaVuSans-30" x="63.623047"/>
      </g>
     </g>
    </g>
    <g id="xtick_8">
     <g id="line2d_15">
      <path d="M 349.273187 278.630906 
L 349.273187 12.518906 
" clip-path="url(#pbeec0b2a03)" style="fill: none; stroke: #ffffff; stroke-linecap: square"/>
     </g>
     <g id="line2d_16">
      <g>
       <use xlink:href="#mf48f7d3f68" x="349.273187" y="278.630906" style="stroke: #000000; stroke-width: 0.8"/>
      </g>
     </g>
     <g id="text_8">
      <!-- 70 -->
      <g transform="translate(340.365687 296.268719) scale(0.14 -0.14)">
       <defs>
        <path id="DejaVuSans-37" d="M 525 4666 
L 3525 4666 
L 3525 4397 
L 1831 0 
L 1172 0 
L 2766 4134 
L 525 4134 
L 525 4666 
z
" transform="scale(0.015625)"/>
       </defs>
       <use xlink:href="#DejaVuSans-37"/>
       <use xlink:href="#DejaVuSans-30" x="63.623047"/>
      </g>
     </g>
    </g>
    <g id="xtick_9">
     <g id="line2d_17">
      <path d="M 390.368699 278.630906 
L 390.368699 12.518906 
" clip-path="url(#pbeec0b2a03)" style="fill: none; stroke: #ffffff; stroke-linecap: square"/>
     </g>
     <g id="line2d_18">
      <g>
       <use xlink:href="#mf48f7d3f68" x="390.368699" y="278.630906" style="stroke: #000000; stroke-width: 0.8"/>
      </g>
     </g>
     <g id="text_9">
      <!-- 80 -->
      <g transform="translate(381.461199 296.268719) scale(0.14 -0.14)">
       <defs>
        <path id="DejaVuSans-38" d="M 2034 2216 
Q 1584 2216 1326 1975 
Q 1069 1734 1069 1313 
Q 1069 891 1326 650 
Q 1584 409 2034 409 
Q 2484 409 2743 651 
Q 3003 894 3003 1313 
Q 3003 1734 2745 1975 
Q 2488 2216 2034 2216 
z
M 1403 2484 
Q 997 2584 770 2862 
Q 544 3141 544 3541 
Q 544 4100 942 4425 
Q 1341 4750 2034 4750 
Q 2731 4750 3128 4425 
Q 3525 4100 3525 3541 
Q 3525 3141 3298 2862 
Q 3072 2584 2669 2484 
Q 3125 2378 3379 2068 
Q 3634 1759 3634 1313 
Q 3634 634 3220 271 
Q 2806 -91 2034 -91 
Q 1263 -91 848 271 
Q 434 634 434 1313 
Q 434 1759 690 2068 
Q 947 2378 1403 2484 
z
M 1172 3481 
Q 1172 3119 1398 2916 
Q 1625 2713 2034 2713 
Q 2441 2713 2670 2916 
Q 2900 3119 2900 3481 
Q 2900 3844 2670 4047 
Q 2441 4250 2034 4250 
Q 1625 4250 1398 4047 
Q 1172 3844 1172 3481 
z
" transform="scale(0.015625)"/>
       </defs>
       <use xlink:href="#DejaVuSans-38"/>
       <use xlink:href="#DejaVuSans-30" x="63.623047"/>
      </g>
     </g>
    </g>
   </g>
   <g id="matplotlib.axis_2">
    <g id="ytick_1">
     <g id="line2d_19">
      <defs>
       <path id="m7f76a60f14" d="M 0 0 
L -3.5 0 
" style="stroke: #000000; stroke-width: 0.8"/>
      </defs>
      <g>
       <use xlink:href="#m7f76a60f14" x="45.371875" y="278.630906" style="stroke: #000000; stroke-width: 0.8"/>
      </g>
     </g>
     <g id="text_10">
      <!-- 0.65 -->
      <g transform="translate(7.2 283.949812) scale(0.14 -0.14)">
       <defs>
        <path id="DejaVuSans-2e" d="M 684 794 
L 1344 794 
L 1344 0 
L 684 0 
L 684 794 
z
" transform="scale(0.015625)"/>
       </defs>
       <use xlink:href="#DejaVuSans-30"/>
       <use xlink:href="#DejaVuSans-2e" x="63.623047"/>
       <use xlink:href="#DejaVuSans-36" x="95.410156"/>
       <use xlink:href="#DejaVuSans-35" x="159.033203"/>
      </g>
     </g>
    </g>
    <g id="ytick_2">
     <g id="line2d_20">
      <g>
       <use xlink:href="#m7f76a60f14" x="45.371875" y="245.366906" style="stroke: #000000; stroke-width: 0.8"/>
      </g>
     </g>
     <g id="text_11">
      <!-- 0.70 -->
      <g transform="translate(7.2 250.685812) scale(0.14 -0.14)">
       <use xlink:href="#DejaVuSans-30"/>
       <use xlink:href="#DejaVuSans-2e" x="63.623047"/>
       <use xlink:href="#DejaVuSans-37" x="95.410156"/>
       <use xlink:href="#DejaVuSans-30" x="159.033203"/>
      </g>
     </g>
    </g>
    <g id="ytick_3">
     <g id="line2d_21">
      <g>
       <use xlink:href="#m7f76a60f14" x="45.371875" y="212.102906" style="stroke: #000000; stroke-width: 0.8"/>
      </g>
     </g>
     <g id="text_12">
      <!-- 0.75 -->
      <g transform="translate(7.2 217.421812) scale(0.14 -0.14)">
       <use xlink:href="#DejaVuSans-30"/>
       <use xlink:href="#DejaVuSans-2e" x="63.623047"/>
       <use xlink:href="#DejaVuSans-37" x="95.410156"/>
       <use xlink:href="#DejaVuSans-35" x="159.033203"/>
      </g>
     </g>
    </g>
    <g id="ytick_4">
     <g id="line2d_22">
      <g>
       <use xlink:href="#m7f76a60f14" x="45.371875" y="178.838906" style="stroke: #000000; stroke-width: 0.8"/>
      </g>
     </g>
     <g id="text_13">
      <!-- 0.80 -->
      <g transform="translate(7.2 184.157812) scale(0.14 -0.14)">
       <use xlink:href="#DejaVuSans-30"/>
       <use xlink:href="#DejaVuSans-2e" x="63.623047"/>
       <use xlink:href="#DejaVuSans-38" x="95.410156"/>
       <use xlink:href="#DejaVuSans-30" x="159.033203"/>
      </g>
     </g>
    </g>
    <g id="ytick_5">
     <g id="line2d_23">
      <g>
       <use xlink:href="#m7f76a60f14" x="45.371875" y="145.574906" style="stroke: #000000; stroke-width: 0.8"/>
      </g>
     </g>
     <g id="text_14">
      <!-- 0.85 -->
      <g transform="translate(7.2 150.893812) scale(0.14 -0.14)">
       <use xlink:href="#DejaVuSans-30"/>
       <use xlink:href="#DejaVuSans-2e" x="63.623047"/>
       <use xlink:href="#DejaVuSans-38" x="95.410156"/>
       <use xlink:href="#DejaVuSans-35" x="159.033203"/>
      </g>
     </g>
    </g>
    <g id="ytick_6">
     <g id="line2d_24">
      <g>
       <use xlink:href="#m7f76a60f14" x="45.371875" y="112.310906" style="stroke: #000000; stroke-width: 0.8"/>
      </g>
     </g>
     <g id="text_15">
      <!-- 0.90 -->
      <g transform="translate(7.2 117.629812) scale(0.14 -0.14)">
       <defs>
        <path id="DejaVuSans-39" d="M 703 97 
L 703 672 
Q 941 559 1184 500 
Q 1428 441 1663 441 
Q 2288 441 2617 861 
Q 2947 1281 2994 2138 
Q 2813 1869 2534 1725 
Q 2256 1581 1919 1581 
Q 1219 1581 811 2004 
Q 403 2428 403 3163 
Q 403 3881 828 4315 
Q 1253 4750 1959 4750 
Q 2769 4750 3195 4129 
Q 3622 3509 3622 2328 
Q 3622 1225 3098 567 
Q 2575 -91 1691 -91 
Q 1453 -91 1209 -44 
Q 966 3 703 97 
z
M 1959 2075 
Q 2384 2075 2632 2365 
Q 2881 2656 2881 3163 
Q 2881 3666 2632 3958 
Q 2384 4250 1959 4250 
Q 1534 4250 1286 3958 
Q 1038 3666 1038 3163 
Q 1038 2656 1286 2365 
Q 1534 2075 1959 2075 
z
" transform="scale(0.015625)"/>
       </defs>
       <use xlink:href="#DejaVuSans-30"/>
       <use xlink:href="#DejaVuSans-2e" x="63.623047"/>
       <use xlink:href="#DejaVuSans-39" x="95.410156"/>
       <use xlink:href="#DejaVuSans-30" x="159.033203"/>
      </g>
     </g>
    </g>
    <g id="ytick_7">
     <g id="line2d_25">
      <g>
       <use xlink:href="#m7f76a60f14" x="45.371875" y="79.046906" style="stroke: #000000; stroke-width: 0.8"/>
      </g>
     </g>
     <g id="text_16">
      <!-- 0.95 -->
      <g transform="translate(7.2 84.365812) scale(0.14 -0.14)">
       <use xlink:href="#DejaVuSans-30"/>
       <use xlink:href="#DejaVuSans-2e" x="63.623047"/>
       <use xlink:href="#DejaVuSans-39" x="95.410156"/>
       <use xlink:href="#DejaVuSans-35" x="159.033203"/>
      </g>
     </g>
    </g>
    <g id="ytick_8">
     <g id="line2d_26">
      <g>
       <use xlink:href="#m7f76a60f14" x="45.371875" y="45.782906" style="stroke: #000000; stroke-width: 0.8"/>
      </g>
     </g>
     <g id="text_17">
      <!-- 1.00 -->
      <g transform="translate(7.2 51.101812) scale(0.14 -0.14)">
       <use xlink:href="#DejaVuSans-31"/>
       <use xlink:href="#DejaVuSans-2e" x="63.623047"/>
       <use xlink:href="#DejaVuSans-30" x="95.410156"/>
       <use xlink:href="#DejaVuSans-30" x="159.033203"/>
      </g>
     </g>
    </g>
    <g id="ytick_9">
     <g id="line2d_27">
      <g>
       <use xlink:href="#m7f76a60f14" x="45.371875" y="12.518906" style="stroke: #000000; stroke-width: 0.8"/>
      </g>
     </g>
     <g id="text_18">
      <!-- 1.05 -->
      <g transform="translate(7.2 17.837812) scale(0.14 -0.14)">
       <use xlink:href="#DejaVuSans-31"/>
       <use xlink:href="#DejaVuSans-2e" x="63.623047"/>
       <use xlink:href="#DejaVuSans-30" x="95.410156"/>
       <use xlink:href="#DejaVuSans-35" x="159.033203"/>
      </g>
     </g>
    </g>
   </g>
   <g id="line2d_28">
    <path d="M 61.604602 49.991582 
L 65.714153 50.709414 
L 69.823705 51.511273 
L 73.933256 56.068614 
L 78.042807 52.205284 
L 82.152358 56.987417 
L 86.26191 57.703084 
L 90.371461 61.672674 
L 94.481012 72.746526 
L 98.590563 78.647709 
L 102.700114 76.32255 
L 106.809666 86.237214 
L 110.919217 90.941241 
L 115.028768 128.811814 
L 119.138319 138.829851 
L 123.24787 160.916266 
L 127.357422 191.049638 
L 131.466973 204.034365 
L 135.576524 211.823938 
L 139.686075 218.852257 
L 143.795626 216.763187 
L 147.905178 228.74855 
L 152.014729 233.98716 
L 156.12428 244.756128 
L 160.233831 237.643205 
L 164.343382 212.987781 
L 168.452934 209.368805 
L 172.562485 210.958807 
L 176.672036 210.539614 
L 180.781587 198.833256 
L 184.891139 209.837446 
L 189.00069 193.069697 
L 193.110241 191.601367 
L 197.219792 187.906342 
L 201.329343 187.280946 
L 205.438895 185.230351 
L 209.548446 178.502873 
L 213.657997 162.330491 
L 217.767548 149.914602 
L 221.877099 145.066454 
L 225.986651 127.563295 
L 230.096202 108.57643 
L 234.205753 84.728568 
L 238.315304 90.667506 
L 242.424855 81.152832 
L 246.534407 80.272686 
L 250.643958 78.045846 
L 254.753509 79.620165 
L 258.86306 78.485143 
L 262.972611 80.542144 
L 267.082163 81.174272 
L 271.191714 81.957326 
L 275.301265 83.049811 
L 279.410816 84.349746 
L 283.520368 85.58177 
L 287.629919 86.713453 
L 291.73947 88.144805 
L 295.849021 88.734306 
L 299.958572 89.860666 
L 304.068124 91.266175 
L 308.177675 92.24224 
L 312.287226 93.113272 
L 316.396777 94.421562 
L 320.506328 95.42782 
L 324.61588 95.068001 
L 328.725431 96.941105 
L 332.834982 97.322038 
L 336.944533 98.234849 
L 341.054084 97.152 
L 345.163636 98.872842 
L 349.273187 99.49629 
L 353.382738 99.336394 
L 357.492289 97.046968 
L 361.60184 92.016979 
L 365.711392 95.5302 
L 369.820943 95.644762 
L 373.930494 94.564042 
L 378.040045 91.485895 
L 382.149597 86.140267 
L 386.259148 67.867806 
" clip-path="url(#pbeec0b2a03)" style="fill: none; stroke: #443983; stroke-width: 1.5; stroke-linecap: square"/>
   </g>
   <g id="line2d_29">
    <path d="M 61.604602 49.963573 
L 65.714153 50.764999 
L 69.823705 51.62634 
L 73.933256 56.450197 
L 78.042807 52.359621 
L 82.152358 57.214663 
L 86.26191 57.909684 
L 90.371461 61.818782 
L 94.481012 73.453963 
L 98.590563 79.922974 
L 102.700114 77.949801 
L 106.809666 88.478492 
L 110.919217 93.438639 
L 115.028768 133.531432 
L 119.138319 143.677386 
L 123.24787 165.250476 
L 127.357422 195.483828 
L 131.466973 208.310103 
L 135.576524 216.958562 
L 139.686075 225.487299 
L 143.795626 223.507376 
L 147.905178 235.844473 
L 152.014729 241.39681 
L 156.12428 250.245843 
L 160.233831 243.878617 
L 164.343382 222.689853 
L 168.452934 219.252717 
L 172.562485 220.953166 
L 176.672036 220.415116 
L 180.781587 207.125506 
L 184.891139 218.22668 
L 189.00069 202.96054 
L 193.110241 202.67872 
L 197.219792 200.436215 
L 201.329343 196.786812 
L 205.438895 197.896623 
L 209.548446 191.043972 
L 213.657997 179.079724 
L 217.767548 162.053219 
L 221.877099 160.51743 
L 225.986651 145.244576 
L 230.096202 120.61467 
L 234.205753 100.245199 
L 238.315304 105.525353 
L 242.424855 95.884641 
L 246.534407 95.720775 
L 250.643958 95.459312 
L 254.753509 96.290551 
L 258.86306 97.122367 
L 262.972611 98.151184 
L 267.082163 98.900454 
L 271.191714 101.840831 
L 275.301265 103.226254 
L 279.410816 103.652846 
L 283.520368 105.734372 
L 287.629919 107.594861 
L 291.73947 109.328985 
L 295.849021 110.758009 
L 299.958572 111.671361 
L 304.068124 112.879094 
L 308.177675 115.512061 
L 312.287226 115.932156 
L 316.396777 117.082247 
L 320.506328 118.610024 
L 324.61588 119.064191 
L 328.725431 120.292534 
L 332.834982 120.041935 
L 336.944533 120.447629 
L 341.054084 119.814183 
L 345.163636 121.593786 
L 349.273187 122.426107 
L 353.382738 121.614106 
L 357.492289 120.88725 
L 361.60184 113.253097 
L 365.711392 118.091104 
L 369.820943 116.809415 
L 373.930494 112.917065 
L 378.040045 107.181118 
L 382.149597 97.949131 
L 386.259148 72.695417 
" clip-path="url(#pbeec0b2a03)" style="fill: none; stroke: #31688e; stroke-width: 1.5; stroke-linecap: square"/>
   </g>
   <g id="line2d_30">
    <path d="M 61.604602 50.041247 
L 65.714153 50.810477 
L 69.823705 51.798002 
L 73.933256 56.645248 
L 78.042807 52.46949 
L 82.152358 57.369433 
L 86.26191 58.090442 
L 90.371461 62.025527 
L 94.481012 73.998834 
L 98.590563 80.365772 
L 102.700114 78.279986 
L 106.809666 89.160231 
L 110.919217 94.286987 
L 115.028768 135.065272 
L 119.138319 145.434718 
L 123.24787 167.708821 
L 127.357422 199.003113 
L 131.466973 211.89414 
L 135.576524 220.357511 
L 139.686075 227.837796 
L 143.795626 226.471684 
L 147.905178 238.359449 
L 152.014729 245.197157 
L 156.12428 253.993782 
L 160.233831 247.288501 
L 164.343382 225.643332 
L 168.452934 220.779735 
L 172.562485 222.508662 
L 176.672036 221.623174 
L 180.781587 207.409708 
L 184.891139 217.60002 
L 189.00069 201.750028 
L 193.110241 200.813142 
L 197.219792 197.807399 
L 201.329343 192.956146 
L 205.438895 191.504131 
L 209.548446 181.189837 
L 213.657997 166.259982 
L 217.767548 149.701035 
L 221.877099 146.46635 
L 225.986651 130.582934 
L 230.096202 109.252069 
L 234.205753 87.716769 
L 238.315304 91.94295 
L 242.424855 84.905644 
L 246.534407 84.907665 
L 250.643958 83.26013 
L 254.753509 84.813135 
L 258.86306 85.253046 
L 262.972611 86.46825 
L 267.082163 86.436885 
L 271.191714 87.84649 
L 275.301265 89.453601 
L 279.410816 90.821951 
L 283.520368 91.877224 
L 287.629919 93.069833 
L 291.73947 94.39433 
L 295.849021 95.941669 
L 299.958572 96.401756 
L 304.068124 98.581963 
L 308.177675 100.067906 
L 312.287226 101.247161 
L 316.396777 102.420172 
L 320.506328 103.132879 
L 324.61588 103.37034 
L 328.725431 105.393575 
L 332.834982 105.784976 
L 336.944533 106.294403 
L 341.054084 105.687775 
L 345.163636 107.221218 
L 349.273187 107.634744 
L 353.382738 107.674484 
L 357.492289 107.27572 
L 361.60184 100.805013 
L 365.711392 104.930312 
L 369.820943 103.419861 
L 373.930494 101.629972 
L 378.040045 98.801232 
L 382.149597 90.808199 
L 386.259148 69.937421 
" clip-path="url(#pbeec0b2a03)" style="fill: none; stroke: #21918c; stroke-width: 1.5; stroke-linecap: square"/>
   </g>
   <g id="line2d_31">
    <path d="M 61.604602 49.943938 
L 65.714153 50.618458 
L 69.823705 51.442695 
L 73.933256 56.119146 
L 78.042807 52.211781 
L 82.152358 57.029141 
L 86.26191 57.813386 
L 90.371461 61.718297 
L 94.481012 73.476052 
L 98.590563 79.765172 
L 102.700114 77.658452 
L 106.809666 87.820719 
L 110.919217 92.677206 
L 115.028768 132.57567 
L 119.138319 142.063562 
L 123.24787 164.272118 
L 127.357422 195.342485 
L 131.466973 207.139727 
L 135.576524 215.682973 
L 139.686075 222.023382 
L 143.795626 220.096517 
L 147.905178 231.930069 
L 152.014729 239.624571 
L 156.12428 248.180414 
L 160.233831 241.704365 
L 164.343382 220.744111 
L 168.452934 213.882797 
L 172.562485 216.871107 
L 176.672036 216.194349 
L 180.781587 202.586861 
L 184.891139 212.159249 
L 189.00069 196.824711 
L 193.110241 197.055638 
L 197.219792 191.89351 
L 201.329343 184.593225 
L 205.438895 184.119638 
L 209.548446 173.170166 
L 213.657997 158.875886 
L 217.767548 141.269283 
L 221.877099 139.770345 
L 225.986651 124.877234 
L 230.096202 106.289458 
L 234.205753 86.708454 
L 238.315304 90.225357 
L 242.424855 86.108143 
L 246.534407 84.498939 
L 250.643958 84.420688 
L 254.753509 83.682427 
L 258.86306 85.22529 
L 262.972611 86.663554 
L 267.082163 87.732217 
L 271.191714 88.89588 
L 275.301265 89.123704 
L 279.410816 90.316891 
L 283.520368 91.575047 
L 287.629919 93.12318 
L 291.73947 94.749348 
L 295.849021 95.858292 
L 299.958572 96.390422 
L 304.068124 98.060516 
L 308.177675 98.729406 
L 312.287226 100.403722 
L 316.396777 100.896041 
L 320.506328 101.66325 
L 324.61588 103.142733 
L 328.725431 104.371111 
L 332.834982 104.405256 
L 336.944533 104.885844 
L 341.054084 103.980469 
L 345.163636 106.656279 
L 349.273187 107.162097 
L 353.382738 105.948589 
L 357.492289 105.947722 
L 361.60184 98.985166 
L 365.711392 103.192831 
L 369.820943 101.948174 
L 373.930494 100.042713 
L 378.040045 94.866436 
L 382.149597 88.178697 
L 386.259148 67.546571 
" clip-path="url(#pbeec0b2a03)" style="fill: none; stroke: #35b779; stroke-width: 1.5; stroke-linecap: square"/>
   </g>
   <g id="line2d_32">
    <path d="M 61.604602 49.951446 
L 65.714153 50.694832 
L 69.823705 51.470415 
L 73.933256 56.121456 
L 78.042807 52.274295 
L 82.152358 57.096564 
L 86.26191 57.890482 
L 90.371461 62.279338 
L 94.481012 73.953645 
L 98.590563 80.203061 
L 102.700114 78.123917 
L 106.809666 88.625177 
L 110.919217 93.789904 
L 115.028768 134.027505 
L 119.138319 144.183276 
L 123.24787 165.5232 
L 127.357422 196.457926 
L 131.466973 207.536181 
L 135.576524 216.000562 
L 139.686075 222.341765 
L 143.795626 219.97979 
L 147.905178 232.46025 
L 152.014729 240.011171 
L 156.12428 248.412786 
L 160.233831 241.95435 
L 164.343382 221.996203 
L 168.452934 215.637351 
L 172.562485 218.913183 
L 176.672036 217.581937 
L 180.781587 204.346287 
L 184.891139 214.171439 
L 189.00069 199.270604 
L 193.110241 198.61691 
L 197.219792 194.637971 
L 201.329343 188.726861 
L 205.438895 189.147173 
L 209.548446 177.518055 
L 213.657997 166.351209 
L 217.767548 150.338289 
L 221.877099 146.952677 
L 225.986651 133.127507 
L 230.096202 112.139136 
L 234.205753 92.548712 
L 238.315304 96.866318 
L 242.424855 88.339964 
L 246.534407 88.397786 
L 250.643958 89.145107 
L 254.753509 90.316638 
L 258.86306 90.0263 
L 262.972611 92.908386 
L 267.082163 93.281271 
L 271.191714 93.60449 
L 275.301265 95.219397 
L 279.410816 96.097919 
L 283.520368 98.114657 
L 287.629919 99.899475 
L 291.73947 101.21197 
L 295.849021 102.074629 
L 299.958572 103.666399 
L 304.068124 104.840402 
L 308.177675 106.317016 
L 312.287226 107.546026 
L 316.396777 108.586356 
L 320.506328 109.96613 
L 324.61588 110.241399 
L 328.725431 111.25502 
L 332.834982 111.827647 
L 336.944533 112.353677 
L 341.054084 111.288731 
L 345.163636 113.607971 
L 349.273187 114.389978 
L 353.382738 113.055304 
L 357.492289 112.908944 
L 361.60184 105.627571 
L 365.711392 111.189149 
L 369.820943 108.047946 
L 373.930494 105.579566 
L 378.040045 100.504496 
L 382.149597 93.805677 
L 386.259148 71.792207 
" clip-path="url(#pbeec0b2a03)" style="fill: none; stroke: #90d743; stroke-width: 1.5; stroke-linecap: square"/>
   </g>
   <g id="patch_3">
    <path d="M 45.371875 278.630906 
L 45.371875 12.518906 
" style="fill: none; stroke: #000000; stroke-width: 0.8; stroke-linejoin: miter; stroke-linecap: square"/>
   </g>
   <g id="patch_4">
    <path d="M 402.491875 278.630906 
L 402.491875 12.518906 
" style="fill: none; stroke: #000000; stroke-width: 0.8; stroke-linejoin: miter; stroke-linecap: square"/>
   </g>
   <g id="patch_5">
    <path d="M 45.371875 278.630906 
L 402.491875 278.630906 
" style="fill: none; stroke: #000000; stroke-width: 0.8; stroke-linejoin: miter; stroke-linecap: square"/>
   </g>
   <g id="patch_6">
    <path d="M 45.371875 12.518906 
L 402.491875 12.518906 
" style="fill: none; stroke: #000000; stroke-width: 0.8; stroke-linejoin: miter; stroke-linecap: square"/>
   </g>
  </g>
 </g>
 <defs>
  <clipPath id="pbeec0b2a03">
   <rect x="45.371875" y="12.518906" width="357.12" height="266.112"/>
  </clipPath>
 </defs>
</svg>
