<?xml version="1.0" encoding="utf-8" standalone="no"?>
<!DOCTYPE svg PUBLIC "-//W3C//DTD SVG 1.1//EN"
  "http://www.w3.org/Graphics/SVG/1.1/DTD/svg11.dtd">
<svg xmlns:xlink="http://www.w3.org/1999/xlink" width="409.691875pt" height="306.380281pt" viewBox="0 0 409.691875 306.380281" xmlns="http://www.w3.org/2000/svg" version="1.1">
 <metadata>
  <rdf:RDF xmlns:dc="http://purl.org/dc/elements/1.1/" xmlns:cc="http://creativecommons.org/ns#" xmlns:rdf="http://www.w3.org/1999/02/22-rdf-syntax-ns#">
   <cc:Work>
    <dc:type rdf:resource="http://purl.org/dc/dcmitype/StillImage"/>
    <dc:date>2024-09-29T20:27:11.248172</dc:date>
    <dc:format>image/svg+xml</dc:format>
    <dc:creator>
     <cc:Agent>
      <dc:title>Matplotlib v3.7.1, https://matplotlib.org/</dc:title>
     </cc:Agent>
    </dc:creator>
   </cc:Work>
  </rdf:RDF>
 </metadata>
 <defs>
  <style type="text/css">*{stroke-linejoin: round; stroke-linecap: butt}</style>
 </defs>
 <g id="figure_1">
  <g id="patch_1">
   <path d="M 0 306.380281 
L 409.691875 306.380281 
L 409.691875 0 
L 0 0 
z
" style="fill: #ffffff"/>
  </g>
  <g id="axes_1">
   <g id="patch_2">
    <path d="M 45.371875 278.630906 
L 402.491875 278.630906 
L 402.491875 12.518906 
L 45.371875 12.518906 
z
" style="fill: #f2f2f2"/>
   </g>
   <g id="matplotlib.axis_1">
    <g id="xtick_1">
     <g id="line2d_1">
      <path d="M 61.604602 278.630906 
L 61.604602 12.518906 
" clip-path="url(#p01d0a2babd)" style="fill: none; stroke: #ffffff; stroke-linecap: square"/>
     </g>
     <g id="line2d_2">
      <defs>
       <path id="mb4aeca5f76" d="M 0 0 
L 0 3.5 
" style="stroke: #000000; stroke-width: 0.8"/>
      </defs>
      <g>
       <use xlink:href="#mb4aeca5f76" x="61.604602" y="278.630906" style="stroke: #000000; stroke-width: 0.8"/>
      </g>
     </g>
     <g id="text_1">
      <!-- 0 -->
      <g transform="translate(57.150852 296.268719) scale(0.14 -0.14)">
       <defs>
        <path id="DejaVuSans-30" d="M 2034 4250 
Q 1547 4250 1301 3770 
Q 1056 3291 1056 2328 
Q 1056 1369 1301 889 
Q 1547 409 2034 409 
Q 2525 409 2770 889 
Q 3016 1369 3016 2328 
Q 3016 3291 2770 3770 
Q 2525 4250 2034 4250 
z
M 2034 4750 
Q 2819 4750 3233 4129 
Q 3647 3509 3647 2328 
Q 3647 1150 3233 529 
Q 2819 -91 2034 -91 
Q 1250 -91 836 529 
Q 422 1150 422 2328 
Q 422 3509 836 4129 
Q 1250 4750 2034 4750 
z
" transform="scale(0.015625)"/>
       </defs>
       <use xlink:href="#DejaVuSans-30"/>
      </g>
     </g>
    </g>
    <g id="xtick_2">
     <g id="line2d_3">
      <path d="M 102.700114 278.630906 
L 102.700114 12.518906 
" clip-path="url(#p01d0a2babd)" style="fill: none; stroke: #ffffff; stroke-linecap: square"/>
     </g>
     <g id="line2d_4">
      <g>
       <use xlink:href="#mb4aeca5f76" x="102.700114" y="278.630906" style="stroke: #000000; stroke-width: 0.8"/>
      </g>
     </g>
     <g id="text_2">
      <!-- 10 -->
      <g transform="translate(93.792614 296.268719) scale(0.14 -0.14)">
       <defs>
        <path id="DejaVuSans-31" d="M 794 531 
L 1825 531 
L 1825 4091 
L 703 3866 
L 703 4441 
L 1819 4666 
L 2450 4666 
L 2450 531 
L 3481 531 
L 3481 0 
L 794 0 
L 794 531 
z
" transform="scale(0.015625)"/>
       </defs>
       <use xlink:href="#DejaVuSans-31"/>
       <use xlink:href="#DejaVuSans-30" x="63.623047"/>
      </g>
     </g>
    </g>
    <g id="xtick_3">
     <g id="line2d_5">
      <path d="M 143.795626 278.630906 
L 143.795626 12.518906 
" clip-path="url(#p01d0a2babd)" style="fill: none; stroke: #ffffff; stroke-linecap: square"/>
     </g>
     <g id="line2d_6">
      <g>
       <use xlink:href="#mb4aeca5f76" x="143.795626" y="278.630906" style="stroke: #000000; stroke-width: 0.8"/>
      </g>
     </g>
     <g id="text_3">
      <!-- 20 -->
      <g transform="translate(134.888126 296.268719) scale(0.14 -0.14)">
       <defs>
        <path id="DejaVuSans-32" d="M 1228 531 
L 3431 531 
L 3431 0 
L 469 0 
L 469 531 
Q 828 903 1448 1529 
Q 2069 2156 2228 2338 
Q 2531 2678 2651 2914 
Q 2772 3150 2772 3378 
Q 2772 3750 2511 3984 
Q 2250 4219 1831 4219 
Q 1534 4219 1204 4116 
Q 875 4013 500 3803 
L 500 4441 
Q 881 4594 1212 4672 
Q 1544 4750 1819 4750 
Q 2544 4750 2975 4387 
Q 3406 4025 3406 3419 
Q 3406 3131 3298 2873 
Q 3191 2616 2906 2266 
Q 2828 2175 2409 1742 
Q 1991 1309 1228 531 
z
" transform="scale(0.015625)"/>
       </defs>
       <use xlink:href="#DejaVuSans-32"/>
       <use xlink:href="#DejaVuSans-30" x="63.623047"/>
      </g>
     </g>
    </g>
    <g id="xtick_4">
     <g id="line2d_7">
      <path d="M 184.891139 278.630906 
L 184.891139 12.518906 
" clip-path="url(#p01d0a2babd)" style="fill: none; stroke: #ffffff; stroke-linecap: square"/>
     </g>
     <g id="line2d_8">
      <g>
       <use xlink:href="#mb4aeca5f76" x="184.891139" y="278.630906" style="stroke: #000000; stroke-width: 0.8"/>
      </g>
     </g>
     <g id="text_4">
      <!-- 30 -->
      <g transform="translate(175.983639 296.268719) scale(0.14 -0.14)">
       <defs>
        <path id="DejaVuSans-33" d="M 2597 2516 
Q 3050 2419 3304 2112 
Q 3559 1806 3559 1356 
Q 3559 666 3084 287 
Q 2609 -91 1734 -91 
Q 1441 -91 1130 -33 
Q 819 25 488 141 
L 488 750 
Q 750 597 1062 519 
Q 1375 441 1716 441 
Q 2309 441 2620 675 
Q 2931 909 2931 1356 
Q 2931 1769 2642 2001 
Q 2353 2234 1838 2234 
L 1294 2234 
L 1294 2753 
L 1863 2753 
Q 2328 2753 2575 2939 
Q 2822 3125 2822 3475 
Q 2822 3834 2567 4026 
Q 2313 4219 1838 4219 
Q 1578 4219 1281 4162 
Q 984 4106 628 3988 
L 628 4550 
Q 988 4650 1302 4700 
Q 1616 4750 1894 4750 
Q 2613 4750 3031 4423 
Q 3450 4097 3450 3541 
Q 3450 3153 3228 2886 
Q 3006 2619 2597 2516 
z
" transform="scale(0.015625)"/>
       </defs>
       <use xlink:href="#DejaVuSans-33"/>
       <use xlink:href="#DejaVuSans-30" x="63.623047"/>
      </g>
     </g>
    </g>
    <g id="xtick_5">
     <g id="line2d_9">
      <path d="M 225.986651 278.630906 
L 225.986651 12.518906 
" clip-path="url(#p01d0a2babd)" style="fill: none; stroke: #ffffff; stroke-linecap: square"/>
     </g>
     <g id="line2d_10">
      <g>
       <use xlink:href="#mb4aeca5f76" x="225.986651" y="278.630906" style="stroke: #000000; stroke-width: 0.8"/>
      </g>
     </g>
     <g id="text_5">
      <!-- 40 -->
      <g transform="translate(217.079151 296.268719) scale(0.14 -0.14)">
       <defs>
        <path id="DejaVuSans-34" d="M 2419 4116 
L 825 1625 
L 2419 1625 
L 2419 4116 
z
M 2253 4666 
L 3047 4666 
L 3047 1625 
L 3713 1625 
L 3713 1100 
L 3047 1100 
L 3047 0 
L 2419 0 
L 2419 1100 
L 313 1100 
L 313 1709 
L 2253 4666 
z
" transform="scale(0.015625)"/>
       </defs>
       <use xlink:href="#DejaVuSans-34"/>
       <use xlink:href="#DejaVuSans-30" x="63.623047"/>
      </g>
     </g>
    </g>
    <g id="xtick_6">
     <g id="line2d_11">
      <path d="M 267.082163 278.630906 
L 267.082163 12.518906 
" clip-path="url(#p01d0a2babd)" style="fill: none; stroke: #ffffff; stroke-linecap: square"/>
     </g>
     <g id="line2d_12">
      <g>
       <use xlink:href="#mb4aeca5f76" x="267.082163" y="278.630906" style="stroke: #000000; stroke-width: 0.8"/>
      </g>
     </g>
     <g id="text_6">
      <!-- 50 -->
      <g transform="translate(258.174663 296.268719) scale(0.14 -0.14)">
       <defs>
        <path id="DejaVuSans-35" d="M 691 4666 
L 3169 4666 
L 3169 4134 
L 1269 4134 
L 1269 2991 
Q 1406 3038 1543 3061 
Q 1681 3084 1819 3084 
Q 2600 3084 3056 2656 
Q 3513 2228 3513 1497 
Q 3513 744 3044 326 
Q 2575 -91 1722 -91 
Q 1428 -91 1123 -41 
Q 819 9 494 109 
L 494 744 
Q 775 591 1075 516 
Q 1375 441 1709 441 
Q 2250 441 2565 725 
Q 2881 1009 2881 1497 
Q 2881 1984 2565 2268 
Q 2250 2553 1709 2553 
Q 1456 2553 1204 2497 
Q 953 2441 691 2322 
L 691 4666 
z
" transform="scale(0.015625)"/>
       </defs>
       <use xlink:href="#DejaVuSans-35"/>
       <use xlink:href="#DejaVuSans-30" x="63.623047"/>
      </g>
     </g>
    </g>
    <g id="xtick_7">
     <g id="line2d_13">
      <path d="M 308.177675 278.630906 
L 308.177675 12.518906 
" clip-path="url(#p01d0a2babd)" style="fill: none; stroke: #ffffff; stroke-linecap: square"/>
     </g>
     <g id="line2d_14">
      <g>
       <use xlink:href="#mb4aeca5f76" x="308.177675" y="278.630906" style="stroke: #000000; stroke-width: 0.8"/>
      </g>
     </g>
     <g id="text_7">
      <!-- 60 -->
      <g transform="translate(299.270175 296.268719) scale(0.14 -0.14)">
       <defs>
        <path id="DejaVuSans-36" d="M 2113 2584 
Q 1688 2584 1439 2293 
Q 1191 2003 1191 1497 
Q 1191 994 1439 701 
Q 1688 409 2113 409 
Q 2538 409 2786 701 
Q 3034 994 3034 1497 
Q 3034 2003 2786 2293 
Q 2538 2584 2113 2584 
z
M 3366 4563 
L 3366 3988 
Q 3128 4100 2886 4159 
Q 2644 4219 2406 4219 
Q 1781 4219 1451 3797 
Q 1122 3375 1075 2522 
Q 1259 2794 1537 2939 
Q 1816 3084 2150 3084 
Q 2853 3084 3261 2657 
Q 3669 2231 3669 1497 
Q 3669 778 3244 343 
Q 2819 -91 2113 -91 
Q 1303 -91 875 529 
Q 447 1150 447 2328 
Q 447 3434 972 4092 
Q 1497 4750 2381 4750 
Q 2619 4750 2861 4703 
Q 3103 4656 3366 4563 
z
" transform="scale(0.015625)"/>
       </defs>
       <use xlink:href="#DejaVuSans-36"/>
       <use xlink:href="#DejaVuSans-30" x="63.623047"/>
      </g>
     </g>
    </g>
    <g id="xtick_8">
     <g id="line2d_15">
      <path d="M 349.273187 278.630906 
L 349.273187 12.518906 
" clip-path="url(#p01d0a2babd)" style="fill: none; stroke: #ffffff; stroke-linecap: square"/>
     </g>
     <g id="line2d_16">
      <g>
       <use xlink:href="#mb4aeca5f76" x="349.273187" y="278.630906" style="stroke: #000000; stroke-width: 0.8"/>
      </g>
     </g>
     <g id="text_8">
      <!-- 70 -->
      <g transform="translate(340.365687 296.268719) scale(0.14 -0.14)">
       <defs>
        <path id="DejaVuSans-37" d="M 525 4666 
L 3525 4666 
L 3525 4397 
L 1831 0 
L 1172 0 
L 2766 4134 
L 525 4134 
L 525 4666 
z
" transform="scale(0.015625)"/>
       </defs>
       <use xlink:href="#DejaVuSans-37"/>
       <use xlink:href="#DejaVuSans-30" x="63.623047"/>
      </g>
     </g>
    </g>
    <g id="xtick_9">
     <g id="line2d_17">
      <path d="M 390.368699 278.630906 
L 390.368699 12.518906 
" clip-path="url(#p01d0a2babd)" style="fill: none; stroke: #ffffff; stroke-linecap: square"/>
     </g>
     <g id="line2d_18">
      <g>
       <use xlink:href="#mb4aeca5f76" x="390.368699" y="278.630906" style="stroke: #000000; stroke-width: 0.8"/>
      </g>
     </g>
     <g id="text_9">
      <!-- 80 -->
      <g transform="translate(381.461199 296.268719) scale(0.14 -0.14)">
       <defs>
        <path id="DejaVuSans-38" d="M 2034 2216 
Q 1584 2216 1326 1975 
Q 1069 1734 1069 1313 
Q 1069 891 1326 650 
Q 1584 409 2034 409 
Q 2484 409 2743 651 
Q 3003 894 3003 1313 
Q 3003 1734 2745 1975 
Q 2488 2216 2034 2216 
z
M 1403 2484 
Q 997 2584 770 2862 
Q 544 3141 544 3541 
Q 544 4100 942 4425 
Q 1341 4750 2034 4750 
Q 2731 4750 3128 4425 
Q 3525 4100 3525 3541 
Q 3525 3141 3298 2862 
Q 3072 2584 2669 2484 
Q 3125 2378 3379 2068 
Q 3634 1759 3634 1313 
Q 3634 634 3220 271 
Q 2806 -91 2034 -91 
Q 1263 -91 848 271 
Q 434 634 434 1313 
Q 434 1759 690 2068 
Q 947 2378 1403 2484 
z
M 1172 3481 
Q 1172 3119 1398 2916 
Q 1625 2713 2034 2713 
Q 2441 2713 2670 2916 
Q 2900 3119 2900 3481 
Q 2900 3844 2670 4047 
Q 2441 4250 2034 4250 
Q 1625 4250 1398 4047 
Q 1172 3844 1172 3481 
z
" transform="scale(0.015625)"/>
       </defs>
       <use xlink:href="#DejaVuSans-38"/>
       <use xlink:href="#DejaVuSans-30" x="63.623047"/>
      </g>
     </g>
    </g>
   </g>
   <g id="matplotlib.axis_2">
    <g id="ytick_1">
     <g id="line2d_19">
      <defs>
       <path id="mc50563fe3e" d="M 0 0 
L -3.5 0 
" style="stroke: #000000; stroke-width: 0.8"/>
      </defs>
      <g>
       <use xlink:href="#mc50563fe3e" x="45.371875" y="278.630906" style="stroke: #000000; stroke-width: 0.8"/>
      </g>
     </g>
     <g id="text_10">
      <!-- 0.70 -->
      <g transform="translate(7.2 283.949813) scale(0.14 -0.14)">
       <defs>
        <path id="DejaVuSans-2e" d="M 684 794 
L 1344 794 
L 1344 0 
L 684 0 
L 684 794 
z
" transform="scale(0.015625)"/>
       </defs>
       <use xlink:href="#DejaVuSans-30"/>
       <use xlink:href="#DejaVuSans-2e" x="63.623047"/>
       <use xlink:href="#DejaVuSans-37" x="95.410156"/>
       <use xlink:href="#DejaVuSans-30" x="159.033203"/>
      </g>
     </g>
    </g>
    <g id="ytick_2">
     <g id="line2d_20">
      <g>
       <use xlink:href="#mc50563fe3e" x="45.371875" y="240.614906" style="stroke: #000000; stroke-width: 0.8"/>
      </g>
     </g>
     <g id="text_11">
      <!-- 0.75 -->
      <g transform="translate(7.2 245.933812) scale(0.14 -0.14)">
       <use xlink:href="#DejaVuSans-30"/>
       <use xlink:href="#DejaVuSans-2e" x="63.623047"/>
       <use xlink:href="#DejaVuSans-37" x="95.410156"/>
       <use xlink:href="#DejaVuSans-35" x="159.033203"/>
      </g>
     </g>
    </g>
    <g id="ytick_3">
     <g id="line2d_21">
      <g>
       <use xlink:href="#mc50563fe3e" x="45.371875" y="202.598906" style="stroke: #000000; stroke-width: 0.8"/>
      </g>
     </g>
     <g id="text_12">
      <!-- 0.80 -->
      <g transform="translate(7.2 207.917813) scale(0.14 -0.14)">
       <use xlink:href="#DejaVuSans-30"/>
       <use xlink:href="#DejaVuSans-2e" x="63.623047"/>
       <use xlink:href="#DejaVuSans-38" x="95.410156"/>
       <use xlink:href="#DejaVuSans-30" x="159.033203"/>
      </g>
     </g>
    </g>
    <g id="ytick_4">
     <g id="line2d_22">
      <g>
       <use xlink:href="#mc50563fe3e" x="45.371875" y="164.582906" style="stroke: #000000; stroke-width: 0.8"/>
      </g>
     </g>
     <g id="text_13">
      <!-- 0.85 -->
      <g transform="translate(7.2 169.901812) scale(0.14 -0.14)">
       <use xlink:href="#DejaVuSans-30"/>
       <use xlink:href="#DejaVuSans-2e" x="63.623047"/>
       <use xlink:href="#DejaVuSans-38" x="95.410156"/>
       <use xlink:href="#DejaVuSans-35" x="159.033203"/>
      </g>
     </g>
    </g>
    <g id="ytick_5">
     <g id="line2d_23">
      <g>
       <use xlink:href="#mc50563fe3e" x="45.371875" y="126.566906" style="stroke: #000000; stroke-width: 0.8"/>
      </g>
     </g>
     <g id="text_14">
      <!-- 0.90 -->
      <g transform="translate(7.2 131.885812) scale(0.14 -0.14)">
       <defs>
        <path id="DejaVuSans-39" d="M 703 97 
L 703 672 
Q 941 559 1184 500 
Q 1428 441 1663 441 
Q 2288 441 2617 861 
Q 2947 1281 2994 2138 
Q 2813 1869 2534 1725 
Q 2256 1581 1919 1581 
Q 1219 1581 811 2004 
Q 403 2428 403 3163 
Q 403 3881 828 4315 
Q 1253 4750 1959 4750 
Q 2769 4750 3195 4129 
Q 3622 3509 3622 2328 
Q 3622 1225 3098 567 
Q 2575 -91 1691 -91 
Q 1453 -91 1209 -44 
Q 966 3 703 97 
z
M 1959 2075 
Q 2384 2075 2632 2365 
Q 2881 2656 2881 3163 
Q 2881 3666 2632 3958 
Q 2384 4250 1959 4250 
Q 1534 4250 1286 3958 
Q 1038 3666 1038 3163 
Q 1038 2656 1286 2365 
Q 1534 2075 1959 2075 
z
" transform="scale(0.015625)"/>
       </defs>
       <use xlink:href="#DejaVuSans-30"/>
       <use xlink:href="#DejaVuSans-2e" x="63.623047"/>
       <use xlink:href="#DejaVuSans-39" x="95.410156"/>
       <use xlink:href="#DejaVuSans-30" x="159.033203"/>
      </g>
     </g>
    </g>
    <g id="ytick_6">
     <g id="line2d_24">
      <g>
       <use xlink:href="#mc50563fe3e" x="45.371875" y="88.550906" style="stroke: #000000; stroke-width: 0.8"/>
      </g>
     </g>
     <g id="text_15">
      <!-- 0.95 -->
      <g transform="translate(7.2 93.869813) scale(0.14 -0.14)">
       <use xlink:href="#DejaVuSans-30"/>
       <use xlink:href="#DejaVuSans-2e" x="63.623047"/>
       <use xlink:href="#DejaVuSans-39" x="95.410156"/>
       <use xlink:href="#DejaVuSans-35" x="159.033203"/>
      </g>
     </g>
    </g>
    <g id="ytick_7">
     <g id="line2d_25">
      <g>
       <use xlink:href="#mc50563fe3e" x="45.371875" y="50.534906" style="stroke: #000000; stroke-width: 0.8"/>
      </g>
     </g>
     <g id="text_16">
      <!-- 1.00 -->
      <g transform="translate(7.2 55.853813) scale(0.14 -0.14)">
       <use xlink:href="#DejaVuSans-31"/>
       <use xlink:href="#DejaVuSans-2e" x="63.623047"/>
       <use xlink:href="#DejaVuSans-30" x="95.410156"/>
       <use xlink:href="#DejaVuSans-30" x="159.033203"/>
      </g>
     </g>
    </g>
    <g id="ytick_8">
     <g id="line2d_26">
      <g>
       <use xlink:href="#mc50563fe3e" x="45.371875" y="12.518906" style="stroke: #000000; stroke-width: 0.8"/>
      </g>
     </g>
     <g id="text_17">
      <!-- 1.05 -->
      <g transform="translate(7.2 17.837812) scale(0.14 -0.14)">
       <use xlink:href="#DejaVuSans-31"/>
       <use xlink:href="#DejaVuSans-2e" x="63.623047"/>
       <use xlink:href="#DejaVuSans-30" x="95.410156"/>
       <use xlink:href="#DejaVuSans-35" x="159.033203"/>
      </g>
     </g>
    </g>
   </g>
   <g id="line2d_27">
    <path d="M 61.604602 55.423361 
L 65.714153 54.417851 
L 69.823705 54.283541 
L 73.933256 57.335876 
L 78.042807 57.671651 
L 82.152358 63.750746 
L 86.26191 63.364151 
L 90.371461 64.633496 
L 94.481012 70.953986 
L 98.590563 73.546136 
L 102.700114 70.701206 
L 106.809666 75.188216 
L 110.919217 76.863791 
L 115.028768 97.761206 
L 119.138319 99.676361 
L 123.24787 103.791791 
L 127.357422 109.670906 
L 131.466973 114.695156 
L 135.576524 112.681166 
L 139.686075 117.276581 
L 143.795626 116.234441 
L 147.905178 122.175431 
L 152.014729 130.434836 
L 156.12428 141.242666 
L 160.233831 145.249031 
L 164.343382 164.899376 
L 168.452934 163.438961 
L 172.562485 166.071701 
L 176.672036 180.997931 
L 180.781587 166.666526 
L 184.891139 197.306201 
L 189.00069 179.780231 
L 193.110241 201.183041 
L 197.219792 222.050756 
L 201.329343 226.963796 
L 205.438895 233.927869 
L 209.548446 222.736084 
L 213.657997 219.619069 
L 217.767548 210.790909 
L 221.877099 213.345274 
L 225.986651 203.248099 
L 230.096202 198.296861 
L 234.205753 182.313848 
L 238.315304 166.733722 
L 242.424855 161.381741 
L 246.534407 164.862664 
L 250.643958 149.241371 
L 254.753509 158.400521 
L 258.86306 154.658528 
L 262.972611 161.665541 
L 267.082163 165.369214 
L 271.191714 158.943124 
L 275.301265 161.022124 
L 279.410816 146.594111 
L 283.520368 161.546576 
L 287.629919 160.726031 
L 291.73947 159.917614 
L 295.849021 123.090068 
L 299.958572 158.807824 
L 304.068124 153.536321 
L 308.177675 145.516331 
L 312.287226 154.535479 
L 316.396777 150.194824 
L 320.506328 150.877553 
L 324.61588 158.707091 
L 328.725431 149.777209 
L 332.834982 145.974371 
L 336.944533 154.472944 
L 341.054084 150.225184 
L 345.163636 141.206861 
L 349.273187 145.849466 
L 353.382738 117.325751 
L 357.492289 136.941034 
L 361.60184 139.348796 
L 365.711392 135.897739 
L 369.820943 129.983644 
L 373.930494 124.564631 
L 378.040045 130.550419 
L 382.149597 130.061441 
L 386.259148 120.560741 
" clip-path="url(#p01d0a2babd)" style="fill: none; stroke: #443983; stroke-width: 1.5; stroke-linecap: square"/>
   </g>
   <g id="line2d_28">
    <path d="M 61.604602 55.711781 
L 65.714153 54.294761 
L 69.823705 53.985056 
L 73.933256 56.984921 
L 78.042807 57.402371 
L 82.152358 64.030751 
L 86.26191 63.507041 
L 90.371461 65.152916 
L 94.481012 72.265901 
L 98.590563 75.005891 
L 102.700114 71.858681 
L 106.809666 76.499141 
L 110.919217 78.270581 
L 115.028768 100.945541 
L 119.138319 103.363781 
L 123.24787 107.429381 
L 127.357422 114.199001 
L 131.466973 119.971031 
L 135.576524 117.147221 
L 139.686075 119.950901 
L 143.795626 119.345351 
L 147.905178 124.868231 
L 152.014729 132.878486 
L 156.12428 144.665096 
L 160.233831 148.198901 
L 164.343382 169.367741 
L 168.452934 165.989036 
L 172.562485 170.628011 
L 176.672036 187.229816 
L 180.781587 172.070276 
L 184.891139 204.946691 
L 189.00069 184.157186 
L 193.110241 205.918871 
L 197.219792 230.254061 
L 201.329343 235.211074 
L 205.438895 244.994584 
L 209.548446 233.826229 
L 213.657997 236.697311 
L 217.767548 233.887774 
L 221.877099 236.860001 
L 225.986651 219.475354 
L 230.096202 222.834011 
L 234.205753 211.437956 
L 238.315304 192.158861 
L 242.424855 198.049279 
L 246.534407 192.237566 
L 250.643958 171.114679 
L 254.753509 178.864234 
L 258.86306 183.543634 
L 262.972611 185.146774 
L 267.082163 195.022766 
L 271.191714 181.460674 
L 275.301265 182.832401 
L 279.410816 177.799571 
L 283.520368 188.212721 
L 287.629919 191.531861 
L 291.73947 186.984874 
L 295.849021 159.428141 
L 299.958572 184.285886 
L 304.068124 178.527304 
L 308.177675 178.299274 
L 312.287226 185.913199 
L 316.396777 186.310684 
L 320.506328 181.924901 
L 324.61588 182.745199 
L 328.725431 183.221636 
L 332.834982 172.438144 
L 336.944533 179.169401 
L 341.054084 176.703229 
L 345.163636 158.597861 
L 349.273187 171.542111 
L 353.382738 135.837349 
L 357.492289 160.741459 
L 361.60184 160.627691 
L 365.711392 155.832379 
L 369.820943 150.347696 
L 373.930494 144.500426 
L 378.040045 154.902604 
L 382.149597 144.242531 
L 386.259148 120.865909 
" clip-path="url(#p01d0a2babd)" style="fill: none; stroke: #31688e; stroke-width: 1.5; stroke-linecap: square"/>
   </g>
   <g id="line2d_29">
    <path d="M 61.604602 55.471376 
L 65.714153 54.238826 
L 69.823705 53.864771 
L 73.933256 56.897141 
L 78.042807 57.230441 
L 82.152358 63.759986 
L 86.26191 63.228026 
L 90.371461 65.039726 
L 94.481012 71.859506 
L 98.590563 74.575571 
L 102.700114 71.499806 
L 106.809666 75.949526 
L 110.919217 77.629061 
L 115.028768 100.008176 
L 119.138319 102.209936 
L 123.24787 106.203101 
L 127.357422 112.260581 
L 131.466973 118.045151 
L 135.576524 115.700501 
L 139.686075 118.547906 
L 143.795626 117.963971 
L 147.905178 123.264926 
L 152.014729 131.719196 
L 156.12428 143.051396 
L 160.233831 146.524481 
L 164.343382 167.814761 
L 168.452934 164.776781 
L 172.562485 169.371041 
L 176.672036 185.268956 
L 180.781587 170.088791 
L 184.891139 201.575906 
L 189.00069 181.717661 
L 193.110241 202.922636 
L 197.219792 227.006201 
L 201.329343 231.021229 
L 205.438895 240.615979 
L 209.548446 229.134949 
L 213.657997 232.080859 
L 217.767548 229.324286 
L 221.877099 230.258516 
L 225.986651 213.398239 
L 230.096202 220.199044 
L 234.205753 205.063429 
L 238.315304 188.006141 
L 242.424855 196.784059 
L 246.534407 190.379089 
L 250.643958 169.066864 
L 254.753509 176.751244 
L 258.86306 179.770331 
L 262.972611 182.254654 
L 267.082163 192.263224 
L 271.191714 178.653694 
L 275.301265 182.017466 
L 279.410816 172.549271 
L 283.520368 184.179214 
L 287.629919 189.419036 
L 291.73947 181.456961 
L 295.849021 159.357109 
L 299.958572 180.369529 
L 304.068124 175.224086 
L 308.177675 172.543249 
L 312.287226 182.857069 
L 316.396777 182.550086 
L 320.506328 177.715999 
L 324.61588 177.251359 
L 328.725431 179.733289 
L 332.834982 168.791479 
L 336.944533 175.436441 
L 341.054084 171.458374 
L 345.163636 153.591844 
L 349.273187 168.349031 
L 353.382738 134.261599 
L 357.492289 156.993401 
L 361.60184 154.337809 
L 365.711392 152.127716 
L 369.820943 144.874976 
L 373.930494 141.172376 
L 378.040045 149.506691 
L 382.149597 137.774366 
L 386.259148 110.039021 
" clip-path="url(#p01d0a2babd)" style="fill: none; stroke: #21918c; stroke-width: 1.5; stroke-linecap: square"/>
   </g>
   <g id="line2d_30">
    <path d="M 61.604602 55.885361 
L 65.714153 54.329246 
L 69.823705 53.949251 
L 73.933256 56.979476 
L 78.042807 57.470846 
L 82.152358 64.191131 
L 86.26191 63.756191 
L 90.371461 65.255051 
L 94.481012 72.085226 
L 98.590563 74.766641 
L 102.700114 71.678501 
L 106.809666 76.417961 
L 110.919217 78.159536 
L 115.028768 100.900661 
L 119.138319 102.537626 
L 123.24787 106.486901 
L 127.357422 112.788416 
L 131.466973 118.499891 
L 135.576524 115.986611 
L 139.686075 119.138936 
L 143.795626 118.216586 
L 147.905178 123.684686 
L 152.014729 131.969006 
L 156.12428 143.550521 
L 160.233831 146.903321 
L 164.343382 168.412886 
L 168.452934 166.451366 
L 172.562485 170.648966 
L 176.672036 187.143686 
L 180.781587 174.330446 
L 184.891139 208.651601 
L 189.00069 187.668881 
L 193.110241 208.227881 
L 197.219792 233.234704 
L 201.329343 237.490796 
L 205.438895 249.628444 
L 209.548446 239.940799 
L 213.657997 240.217009 
L 217.767548 236.942089 
L 221.877099 237.401284 
L 225.986651 222.922204 
L 230.096202 226.979471 
L 234.205753 213.3897 
L 238.315304 199.947728 
L 242.424855 205.15587 
L 246.534407 199.361565 
L 250.643958 182.457356 
L 254.753509 187.70118 
L 258.86306 192.412755 
L 262.972611 194.743009 
L 267.082163 198.152115 
L 271.191714 188.471235 
L 275.301265 196.468208 
L 279.410816 187.521041 
L 283.520368 194.432231 
L 287.629919 200.983515 
L 291.73947 197.198415 
L 295.849021 183.602044 
L 299.958572 186.847924 
L 304.068124 187.875585 
L 308.177675 182.598761 
L 312.287226 195.578033 
L 316.396777 194.835739 
L 320.506328 195.239453 
L 324.61588 191.673019 
L 328.725431 190.919381 
L 332.834982 174.001189 
L 336.944533 182.442321 
L 341.054084 186.932527 
L 345.163636 168.042709 
L 349.273187 179.508435 
L 353.382738 153.826556 
L 357.492289 165.649136 
L 361.60184 167.441036 
L 365.711392 160.953649 
L 369.820943 153.726236 
L 373.930494 146.214611 
L 378.040045 152.977136 
L 382.149597 140.927516 
L 386.259148 108.959426 
" clip-path="url(#p01d0a2babd)" style="fill: none; stroke: #35b779; stroke-width: 1.5; stroke-linecap: square"/>
   </g>
   <g id="line2d_31">
    <path d="M 61.604602 55.810121 
L 65.714153 54.302021 
L 69.823705 53.925161 
L 73.933256 57.020726 
L 78.042807 57.430586 
L 82.152358 64.010126 
L 86.26191 63.588551 
L 90.371461 65.084771 
L 94.481012 71.508881 
L 98.590563 74.126276 
L 102.700114 71.188781 
L 106.809666 75.963551 
L 110.919217 77.575436 
L 115.028768 100.097276 
L 119.138319 101.709656 
L 123.24787 105.649196 
L 127.357422 111.861611 
L 131.466973 117.417161 
L 135.576524 114.943151 
L 139.686075 118.675286 
L 143.795626 117.594866 
L 147.905178 122.635286 
L 152.014729 131.163971 
L 156.12428 142.541546 
L 160.233831 146.260976 
L 164.343382 166.368206 
L 168.452934 164.878916 
L 172.562485 167.489711 
L 176.672036 183.596351 
L 180.781587 169.046486 
L 184.891139 200.843471 
L 189.00069 182.181476 
L 193.110241 202.410146 
L 197.219792 224.222486 
L 201.329343 228.238751 
L 205.438895 237.934646 
L 209.548446 226.245056 
L 213.657997 224.792479 
L 217.767548 216.493886 
L 221.877099 214.220846 
L 225.986651 201.917621 
L 230.096202 199.382314 
L 234.205753 193.069579 
L 238.315304 183.434321 
L 242.424855 184.856333 
L 246.534407 174.982526 
L 250.643958 154.801624 
L 254.753509 169.413364 
L 258.86306 169.904321 
L 262.972611 173.226514 
L 267.082163 172.869784 
L 271.191714 166.528875 
L 275.301265 172.435751 
L 279.410816 166.729721 
L 283.520368 159.244084 
L 287.629919 177.06891 
L 291.73947 172.551458 
L 295.849021 166.997558 
L 299.958572 173.648501 
L 304.068124 165.402956 
L 308.177675 158.248886 
L 312.287226 172.552283 
L 316.396777 170.803159 
L 320.506328 173.640458 
L 324.61588 171.512164 
L 328.725431 166.718213 
L 332.834982 147.526031 
L 336.944533 165.134584 
L 341.054084 156.11061 
L 345.163636 152.293046 
L 349.273187 159.931144 
L 353.382738 147.747296 
L 357.492289 152.459449 
L 361.60184 151.964449 
L 365.711392 143.456884 
L 369.820943 141.539254 
L 373.930494 130.117376 
L 378.040045 140.729846 
L 382.149597 128.956601 
L 386.259148 107.139806 
" clip-path="url(#p01d0a2babd)" style="fill: none; stroke: #90d743; stroke-width: 1.5; stroke-linecap: square"/>
   </g>
   <g id="patch_3">
    <path d="M 45.371875 278.630906 
L 45.371875 12.518906 
" style="fill: none; stroke: #000000; stroke-width: 0.8; stroke-linejoin: miter; stroke-linecap: square"/>
   </g>
   <g id="patch_4">
    <path d="M 402.491875 278.630906 
L 402.491875 12.518906 
" style="fill: none; stroke: #000000; stroke-width: 0.8; stroke-linejoin: miter; stroke-linecap: square"/>
   </g>
   <g id="patch_5">
    <path d="M 45.371875 278.630906 
L 402.491875 278.630906 
" style="fill: none; stroke: #000000; stroke-width: 0.8; stroke-linejoin: miter; stroke-linecap: square"/>
   </g>
   <g id="patch_6">
    <path d="M 45.371875 12.518906 
L 402.491875 12.518906 
" style="fill: none; stroke: #000000; stroke-width: 0.8; stroke-linejoin: miter; stroke-linecap: square"/>
   </g>
  </g>
 </g>
 <defs>
  <clipPath id="p01d0a2babd">
   <rect x="45.371875" y="12.518906" width="357.12" height="266.112"/>
  </clipPath>
 </defs>
</svg>
