<?xml version="1.0" encoding="utf-8" standalone="no"?>
<!DOCTYPE svg PUBLIC "-//W3C//DTD SVG 1.1//EN"
  "http://www.w3.org/Graphics/SVG/1.1/DTD/svg11.dtd">
<svg xmlns:xlink="http://www.w3.org/1999/xlink" width="394.423125pt" height="313.827937pt" viewBox="0 0 394.423125 313.827937" xmlns="http://www.w3.org/2000/svg" version="1.1">
 <metadata>
  <rdf:RDF xmlns:dc="http://purl.org/dc/elements/1.1/" xmlns:cc="http://creativecommons.org/ns#" xmlns:rdf="http://www.w3.org/1999/02/22-rdf-syntax-ns#">
   <cc:Work>
    <dc:type rdf:resource="http://purl.org/dc/dcmitype/StillImage"/>
    <dc:date>2024-09-29T22:53:27.496845</dc:date>
    <dc:format>image/svg+xml</dc:format>
    <dc:creator>
     <cc:Agent>
      <dc:title>Matplotlib v3.7.1, https://matplotlib.org/</dc:title>
     </cc:Agent>
    </dc:creator>
   </cc:Work>
  </rdf:RDF>
 </metadata>
 <defs>
  <style type="text/css">*{stroke-linejoin: round; stroke-linecap: butt}</style>
 </defs>
 <g id="figure_1">
  <g id="patch_1">
   <path d="M 0 313.827937 
L 394.423125 313.827937 
L 394.423125 0 
L 0 0 
z
" style="fill: #ffffff"/>
  </g>
  <g id="axes_1">
   <g id="patch_2">
    <path d="M 30.103125 289.949812 
L 387.223125 289.949812 
L 387.223125 23.837812 
L 30.103125 23.837812 
z
" style="fill: #ffffff"/>
   </g>
   <g id="matplotlib.axis_1">
    <g id="xtick_1">
     <g id="line2d_1">
      <defs>
       <path id="m254cd235c2" d="M 0 0 
L 0 3.5 
" style="stroke: #000000; stroke-width: 0.8"/>
      </defs>
      <g>
       <use xlink:href="#m254cd235c2" x="46.335852" y="289.949812" style="stroke: #000000; stroke-width: 0.8"/>
      </g>
     </g>
     <g id="text_1">
      <!-- 0 -->
      <g transform="translate(43.154602 304.54825) scale(0.1 -0.1)">
       <defs>
        <path id="DejaVuSans-30" d="M 2034 4250 
Q 1547 4250 1301 3770 
Q 1056 3291 1056 2328 
Q 1056 1369 1301 889 
Q 1547 409 2034 409 
Q 2525 409 2770 889 
Q 3016 1369 3016 2328 
Q 3016 3291 2770 3770 
Q 2525 4250 2034 4250 
z
M 2034 4750 
Q 2819 4750 3233 4129 
Q 3647 3509 3647 2328 
Q 3647 1150 3233 529 
Q 2819 -91 2034 -91 
Q 1250 -91 836 529 
Q 422 1150 422 2328 
Q 422 3509 836 4129 
Q 1250 4750 2034 4750 
z
" transform="scale(0.015625)"/>
       </defs>
       <use xlink:href="#DejaVuSans-30"/>
      </g>
     </g>
    </g>
    <g id="xtick_2">
     <g id="line2d_2">
      <g>
       <use xlink:href="#m254cd235c2" x="87.95823" y="289.949812" style="stroke: #000000; stroke-width: 0.8"/>
      </g>
     </g>
     <g id="text_2">
      <!-- 5 -->
      <g transform="translate(84.77698 304.54825) scale(0.1 -0.1)">
       <defs>
        <path id="DejaVuSans-35" d="M 691 4666 
L 3169 4666 
L 3169 4134 
L 1269 4134 
L 1269 2991 
Q 1406 3038 1543 3061 
Q 1681 3084 1819 3084 
Q 2600 3084 3056 2656 
Q 3513 2228 3513 1497 
Q 3513 744 3044 326 
Q 2575 -91 1722 -91 
Q 1428 -91 1123 -41 
Q 819 9 494 109 
L 494 744 
Q 775 591 1075 516 
Q 1375 441 1709 441 
Q 2250 441 2565 725 
Q 2881 1009 2881 1497 
Q 2881 1984 2565 2268 
Q 2250 2553 1709 2553 
Q 1456 2553 1204 2497 
Q 953 2441 691 2322 
L 691 4666 
z
" transform="scale(0.015625)"/>
       </defs>
       <use xlink:href="#DejaVuSans-35"/>
      </g>
     </g>
    </g>
    <g id="xtick_3">
     <g id="line2d_3">
      <g>
       <use xlink:href="#m254cd235c2" x="129.580608" y="289.949812" style="stroke: #000000; stroke-width: 0.8"/>
      </g>
     </g>
     <g id="text_3">
      <!-- 10 -->
      <g transform="translate(123.218108 304.54825) scale(0.1 -0.1)">
       <defs>
        <path id="DejaVuSans-31" d="M 794 531 
L 1825 531 
L 1825 4091 
L 703 3866 
L 703 4441 
L 1819 4666 
L 2450 4666 
L 2450 531 
L 3481 531 
L 3481 0 
L 794 0 
L 794 531 
z
" transform="scale(0.015625)"/>
       </defs>
       <use xlink:href="#DejaVuSans-31"/>
       <use xlink:href="#DejaVuSans-30" x="63.623047"/>
      </g>
     </g>
    </g>
    <g id="xtick_4">
     <g id="line2d_4">
      <g>
       <use xlink:href="#m254cd235c2" x="171.202985" y="289.949812" style="stroke: #000000; stroke-width: 0.8"/>
      </g>
     </g>
     <g id="text_4">
      <!-- 15 -->
      <g transform="translate(164.840485 304.54825) scale(0.1 -0.1)">
       <use xlink:href="#DejaVuSans-31"/>
       <use xlink:href="#DejaVuSans-35" x="63.623047"/>
      </g>
     </g>
    </g>
    <g id="xtick_5">
     <g id="line2d_5">
      <g>
       <use xlink:href="#m254cd235c2" x="212.825363" y="289.949812" style="stroke: #000000; stroke-width: 0.8"/>
      </g>
     </g>
     <g id="text_5">
      <!-- 20 -->
      <g transform="translate(206.462863 304.54825) scale(0.1 -0.1)">
       <defs>
        <path id="DejaVuSans-32" d="M 1228 531 
L 3431 531 
L 3431 0 
L 469 0 
L 469 531 
Q 828 903 1448 1529 
Q 2069 2156 2228 2338 
Q 2531 2678 2651 2914 
Q 2772 3150 2772 3378 
Q 2772 3750 2511 3984 
Q 2250 4219 1831 4219 
Q 1534 4219 1204 4116 
Q 875 4013 500 3803 
L 500 4441 
Q 881 4594 1212 4672 
Q 1544 4750 1819 4750 
Q 2544 4750 2975 4387 
Q 3406 4025 3406 3419 
Q 3406 3131 3298 2873 
Q 3191 2616 2906 2266 
Q 2828 2175 2409 1742 
Q 1991 1309 1228 531 
z
" transform="scale(0.015625)"/>
       </defs>
       <use xlink:href="#DejaVuSans-32"/>
       <use xlink:href="#DejaVuSans-30" x="63.623047"/>
      </g>
     </g>
    </g>
    <g id="xtick_6">
     <g id="line2d_6">
      <g>
       <use xlink:href="#m254cd235c2" x="254.44774" y="289.949812" style="stroke: #000000; stroke-width: 0.8"/>
      </g>
     </g>
     <g id="text_6">
      <!-- 25 -->
      <g transform="translate(248.08524 304.54825) scale(0.1 -0.1)">
       <use xlink:href="#DejaVuSans-32"/>
       <use xlink:href="#DejaVuSans-35" x="63.623047"/>
      </g>
     </g>
    </g>
    <g id="xtick_7">
     <g id="line2d_7">
      <g>
       <use xlink:href="#m254cd235c2" x="296.070118" y="289.949812" style="stroke: #000000; stroke-width: 0.8"/>
      </g>
     </g>
     <g id="text_7">
      <!-- 30 -->
      <g transform="translate(289.707618 304.54825) scale(0.1 -0.1)">
       <defs>
        <path id="DejaVuSans-33" d="M 2597 2516 
Q 3050 2419 3304 2112 
Q 3559 1806 3559 1356 
Q 3559 666 3084 287 
Q 2609 -91 1734 -91 
Q 1441 -91 1130 -33 
Q 819 25 488 141 
L 488 750 
Q 750 597 1062 519 
Q 1375 441 1716 441 
Q 2309 441 2620 675 
Q 2931 909 2931 1356 
Q 2931 1769 2642 2001 
Q 2353 2234 1838 2234 
L 1294 2234 
L 1294 2753 
L 1863 2753 
Q 2328 2753 2575 2939 
Q 2822 3125 2822 3475 
Q 2822 3834 2567 4026 
Q 2313 4219 1838 4219 
Q 1578 4219 1281 4162 
Q 984 4106 628 3988 
L 628 4550 
Q 988 4650 1302 4700 
Q 1616 4750 1894 4750 
Q 2613 4750 3031 4423 
Q 3450 4097 3450 3541 
Q 3450 3153 3228 2886 
Q 3006 2619 2597 2516 
z
" transform="scale(0.015625)"/>
       </defs>
       <use xlink:href="#DejaVuSans-33"/>
       <use xlink:href="#DejaVuSans-30" x="63.623047"/>
      </g>
     </g>
    </g>
    <g id="xtick_8">
     <g id="line2d_8">
      <g>
       <use xlink:href="#m254cd235c2" x="337.692496" y="289.949812" style="stroke: #000000; stroke-width: 0.8"/>
      </g>
     </g>
     <g id="text_8">
      <!-- 35 -->
      <g transform="translate(331.329996 304.54825) scale(0.1 -0.1)">
       <use xlink:href="#DejaVuSans-33"/>
       <use xlink:href="#DejaVuSans-35" x="63.623047"/>
      </g>
     </g>
    </g>
    <g id="xtick_9">
     <g id="line2d_9">
      <g>
       <use xlink:href="#m254cd235c2" x="379.314873" y="289.949812" style="stroke: #000000; stroke-width: 0.8"/>
      </g>
     </g>
     <g id="text_9">
      <!-- 40 -->
      <g transform="translate(372.952373 304.54825) scale(0.1 -0.1)">
       <defs>
        <path id="DejaVuSans-34" d="M 2419 4116 
L 825 1625 
L 2419 1625 
L 2419 4116 
z
M 2253 4666 
L 3047 4666 
L 3047 1625 
L 3713 1625 
L 3713 1100 
L 3047 1100 
L 3047 0 
L 2419 0 
L 2419 1100 
L 313 1100 
L 313 1709 
L 2253 4666 
z
" transform="scale(0.015625)"/>
       </defs>
       <use xlink:href="#DejaVuSans-34"/>
       <use xlink:href="#DejaVuSans-30" x="63.623047"/>
      </g>
     </g>
    </g>
   </g>
   <g id="matplotlib.axis_2">
    <g id="ytick_1">
     <g id="line2d_10">
      <defs>
       <path id="mb69db75126" d="M 0 0 
L -3.5 0 
" style="stroke: #000000; stroke-width: 0.8"/>
      </defs>
      <g>
       <use xlink:href="#mb69db75126" x="30.103125" y="255.025215" style="stroke: #000000; stroke-width: 0.8"/>
      </g>
     </g>
     <g id="text_10">
      <!-- 0.2 -->
      <g transform="translate(7.2 258.824434) scale(0.1 -0.1)">
       <defs>
        <path id="DejaVuSans-2e" d="M 684 794 
L 1344 794 
L 1344 0 
L 684 0 
L 684 794 
z
" transform="scale(0.015625)"/>
       </defs>
       <use xlink:href="#DejaVuSans-30"/>
       <use xlink:href="#DejaVuSans-2e" x="63.623047"/>
       <use xlink:href="#DejaVuSans-32" x="95.410156"/>
      </g>
     </g>
    </g>
    <g id="ytick_2">
     <g id="line2d_11">
      <g>
       <use xlink:href="#mb69db75126" x="30.103125" y="199.063076" style="stroke: #000000; stroke-width: 0.8"/>
      </g>
     </g>
     <g id="text_11">
      <!-- 0.4 -->
      <g transform="translate(7.2 202.862295) scale(0.1 -0.1)">
       <use xlink:href="#DejaVuSans-30"/>
       <use xlink:href="#DejaVuSans-2e" x="63.623047"/>
       <use xlink:href="#DejaVuSans-34" x="95.410156"/>
      </g>
     </g>
    </g>
    <g id="ytick_3">
     <g id="line2d_12">
      <g>
       <use xlink:href="#mb69db75126" x="30.103125" y="143.100937" style="stroke: #000000; stroke-width: 0.8"/>
      </g>
     </g>
     <g id="text_12">
      <!-- 0.6 -->
      <g transform="translate(7.2 146.900156) scale(0.1 -0.1)">
       <defs>
        <path id="DejaVuSans-36" d="M 2113 2584 
Q 1688 2584 1439 2293 
Q 1191 2003 1191 1497 
Q 1191 994 1439 701 
Q 1688 409 2113 409 
Q 2538 409 2786 701 
Q 3034 994 3034 1497 
Q 3034 2003 2786 2293 
Q 2538 2584 2113 2584 
z
M 3366 4563 
L 3366 3988 
Q 3128 4100 2886 4159 
Q 2644 4219 2406 4219 
Q 1781 4219 1451 3797 
Q 1122 3375 1075 2522 
Q 1259 2794 1537 2939 
Q 1816 3084 2150 3084 
Q 2853 3084 3261 2657 
Q 3669 2231 3669 1497 
Q 3669 778 3244 343 
Q 2819 -91 2113 -91 
Q 1303 -91 875 529 
Q 447 1150 447 2328 
Q 447 3434 972 4092 
Q 1497 4750 2381 4750 
Q 2619 4750 2861 4703 
Q 3103 4656 3366 4563 
z
" transform="scale(0.015625)"/>
       </defs>
       <use xlink:href="#DejaVuSans-30"/>
       <use xlink:href="#DejaVuSans-2e" x="63.623047"/>
       <use xlink:href="#DejaVuSans-36" x="95.410156"/>
      </g>
     </g>
    </g>
    <g id="ytick_4">
     <g id="line2d_13">
      <g>
       <use xlink:href="#mb69db75126" x="30.103125" y="87.138798" style="stroke: #000000; stroke-width: 0.8"/>
      </g>
     </g>
     <g id="text_13">
      <!-- 0.8 -->
      <g transform="translate(7.2 90.938017) scale(0.1 -0.1)">
       <defs>
        <path id="DejaVuSans-38" d="M 2034 2216 
Q 1584 2216 1326 1975 
Q 1069 1734 1069 1313 
Q 1069 891 1326 650 
Q 1584 409 2034 409 
Q 2484 409 2743 651 
Q 3003 894 3003 1313 
Q 3003 1734 2745 1975 
Q 2488 2216 2034 2216 
z
M 1403 2484 
Q 997 2584 770 2862 
Q 544 3141 544 3541 
Q 544 4100 942 4425 
Q 1341 4750 2034 4750 
Q 2731 4750 3128 4425 
Q 3525 4100 3525 3541 
Q 3525 3141 3298 2862 
Q 3072 2584 2669 2484 
Q 3125 2378 3379 2068 
Q 3634 1759 3634 1313 
Q 3634 634 3220 271 
Q 2806 -91 2034 -91 
Q 1263 -91 848 271 
Q 434 634 434 1313 
Q 434 1759 690 2068 
Q 947 2378 1403 2484 
z
M 1172 3481 
Q 1172 3119 1398 2916 
Q 1625 2713 2034 2713 
Q 2441 2713 2670 2916 
Q 2900 3119 2900 3481 
Q 2900 3844 2670 4047 
Q 2441 4250 2034 4250 
Q 1625 4250 1398 4047 
Q 1172 3844 1172 3481 
z
" transform="scale(0.015625)"/>
       </defs>
       <use xlink:href="#DejaVuSans-30"/>
       <use xlink:href="#DejaVuSans-2e" x="63.623047"/>
       <use xlink:href="#DejaVuSans-38" x="95.410156"/>
      </g>
     </g>
    </g>
    <g id="ytick_5">
     <g id="line2d_14">
      <g>
       <use xlink:href="#mb69db75126" x="30.103125" y="31.176659" style="stroke: #000000; stroke-width: 0.8"/>
      </g>
     </g>
     <g id="text_14">
      <!-- 1.0 -->
      <g transform="translate(7.2 34.975877) scale(0.1 -0.1)">
       <use xlink:href="#DejaVuSans-31"/>
       <use xlink:href="#DejaVuSans-2e" x="63.623047"/>
       <use xlink:href="#DejaVuSans-30" x="95.410156"/>
      </g>
     </g>
    </g>
   </g>
   <g id="line2d_15">
    <path d="M 46.335852 41.925468 
L 54.660328 38.97699 
L 62.984803 36.052638 
L 71.309279 39.558221 
L 79.633754 42.523083 
L 87.95823 48.077141 
L 96.282705 55.103526 
L 104.607181 56.068098 
L 112.931656 83.336026 
L 121.256132 92.118594 
L 129.580608 99.160263 
L 137.905083 95.647761 
L 146.229559 95.870293 
L 154.554034 122.948125 
L 162.87851 155.318083 
L 171.202985 156.687801 
L 179.527461 174.655606 
L 187.851936 191.654735 
L 196.176412 204.254262 
L 204.500887 198.675097 
L 212.825363 206.416588 
L 221.149838 228.520847 
L 229.474314 231.636554 
L 237.798789 247.974062 
L 246.123265 261.953171 
L 254.44774 263.172665 
L 262.772216 269.021896 
L 271.096691 273.476365 
L 279.421167 273.131061 
L 287.745642 277.853812 
L 296.070118 266.927163 
L 304.394594 260.605293 
L 312.719069 248.605016 
L 321.043545 234.060065 
L 329.36802 202.962833 
L 337.692496 188.594467 
L 346.016971 152.25312 
L 354.341447 143.694135 
L 362.665922 120.135662 
L 370.990398 100.245757 
" clip-path="url(#p28840e1f43)" style="fill: none; stroke: #443983; stroke-width: 1.5; stroke-linecap: square"/>
    <defs>
     <path id="m95430b74b1" d="M 0 3 
C 0.795609 3 1.55874 2.683901 2.12132 2.12132 
C 2.683901 1.55874 3 0.795609 3 0 
C 3 -0.795609 2.683901 -1.55874 2.12132 -2.12132 
C 1.55874 -2.683901 0.795609 -3 0 -3 
C -0.795609 -3 -1.55874 -2.683901 -2.12132 -2.12132 
C -2.683901 -1.55874 -3 -0.795609 -3 0 
C -3 0.795609 -2.683901 1.55874 -2.12132 2.12132 
C -1.55874 2.683901 -0.795609 3 0 3 
z
" style="stroke: #443983"/>
    </defs>
    <g clip-path="url(#p28840e1f43)">
     <use xlink:href="#m95430b74b1" x="46.335852" y="41.925468" style="fill: #443983; stroke: #443983"/>
     <use xlink:href="#m95430b74b1" x="54.660328" y="38.97699" style="fill: #443983; stroke: #443983"/>
     <use xlink:href="#m95430b74b1" x="62.984803" y="36.052638" style="fill: #443983; stroke: #443983"/>
     <use xlink:href="#m95430b74b1" x="71.309279" y="39.558221" style="fill: #443983; stroke: #443983"/>
     <use xlink:href="#m95430b74b1" x="79.633754" y="42.523083" style="fill: #443983; stroke: #443983"/>
     <use xlink:href="#m95430b74b1" x="87.95823" y="48.077141" style="fill: #443983; stroke: #443983"/>
     <use xlink:href="#m95430b74b1" x="96.282705" y="55.103526" style="fill: #443983; stroke: #443983"/>
     <use xlink:href="#m95430b74b1" x="104.607181" y="56.068098" style="fill: #443983; stroke: #443983"/>
     <use xlink:href="#m95430b74b1" x="112.931656" y="83.336026" style="fill: #443983; stroke: #443983"/>
     <use xlink:href="#m95430b74b1" x="121.256132" y="92.118594" style="fill: #443983; stroke: #443983"/>
     <use xlink:href="#m95430b74b1" x="129.580608" y="99.160263" style="fill: #443983; stroke: #443983"/>
     <use xlink:href="#m95430b74b1" x="137.905083" y="95.647761" style="fill: #443983; stroke: #443983"/>
     <use xlink:href="#m95430b74b1" x="146.229559" y="95.870293" style="fill: #443983; stroke: #443983"/>
     <use xlink:href="#m95430b74b1" x="154.554034" y="122.948125" style="fill: #443983; stroke: #443983"/>
     <use xlink:href="#m95430b74b1" x="162.87851" y="155.318083" style="fill: #443983; stroke: #443983"/>
     <use xlink:href="#m95430b74b1" x="171.202985" y="156.687801" style="fill: #443983; stroke: #443983"/>
     <use xlink:href="#m95430b74b1" x="179.527461" y="174.655606" style="fill: #443983; stroke: #443983"/>
     <use xlink:href="#m95430b74b1" x="187.851936" y="191.654735" style="fill: #443983; stroke: #443983"/>
     <use xlink:href="#m95430b74b1" x="196.176412" y="204.254262" style="fill: #443983; stroke: #443983"/>
     <use xlink:href="#m95430b74b1" x="204.500887" y="198.675097" style="fill: #443983; stroke: #443983"/>
     <use xlink:href="#m95430b74b1" x="212.825363" y="206.416588" style="fill: #443983; stroke: #443983"/>
     <use xlink:href="#m95430b74b1" x="221.149838" y="228.520847" style="fill: #443983; stroke: #443983"/>
     <use xlink:href="#m95430b74b1" x="229.474314" y="231.636554" style="fill: #443983; stroke: #443983"/>
     <use xlink:href="#m95430b74b1" x="237.798789" y="247.974062" style="fill: #443983; stroke: #443983"/>
     <use xlink:href="#m95430b74b1" x="246.123265" y="261.953171" style="fill: #443983; stroke: #443983"/>
     <use xlink:href="#m95430b74b1" x="254.44774" y="263.172665" style="fill: #443983; stroke: #443983"/>
     <use xlink:href="#m95430b74b1" x="262.772216" y="269.021896" style="fill: #443983; stroke: #443983"/>
     <use xlink:href="#m95430b74b1" x="271.096691" y="273.476365" style="fill: #443983; stroke: #443983"/>
     <use xlink:href="#m95430b74b1" x="279.421167" y="273.131061" style="fill: #443983; stroke: #443983"/>
     <use xlink:href="#m95430b74b1" x="287.745642" y="277.853812" style="fill: #443983; stroke: #443983"/>
     <use xlink:href="#m95430b74b1" x="296.070118" y="266.927163" style="fill: #443983; stroke: #443983"/>
     <use xlink:href="#m95430b74b1" x="304.394594" y="260.605293" style="fill: #443983; stroke: #443983"/>
     <use xlink:href="#m95430b74b1" x="312.719069" y="248.605016" style="fill: #443983; stroke: #443983"/>
     <use xlink:href="#m95430b74b1" x="321.043545" y="234.060065" style="fill: #443983; stroke: #443983"/>
     <use xlink:href="#m95430b74b1" x="329.36802" y="202.962833" style="fill: #443983; stroke: #443983"/>
     <use xlink:href="#m95430b74b1" x="337.692496" y="188.594467" style="fill: #443983; stroke: #443983"/>
     <use xlink:href="#m95430b74b1" x="346.016971" y="152.25312" style="fill: #443983; stroke: #443983"/>
     <use xlink:href="#m95430b74b1" x="354.341447" y="143.694135" style="fill: #443983; stroke: #443983"/>
     <use xlink:href="#m95430b74b1" x="362.665922" y="120.135662" style="fill: #443983; stroke: #443983"/>
     <use xlink:href="#m95430b74b1" x="370.990398" y="100.245757" style="fill: #443983; stroke: #443983"/>
    </g>
   </g>
   <g id="line2d_16">
    <path d="M 46.335852 41.569928 
L 54.660328 38.770399 
L 62.984803 35.933812 
L 71.309279 39.42389 
L 79.633754 42.436462 
L 87.95823 48.011756 
L 96.282705 55.175212 
L 104.607181 56.296524 
L 112.931656 83.936594 
L 121.256132 92.600162 
L 129.580608 98.385888 
L 137.905083 94.875117 
L 146.229559 96.692535 
L 154.554034 124.56344 
L 162.87851 153.633608 
L 171.202985 156.191123 
L 179.527461 174.828344 
L 187.851936 188.140898 
L 196.176412 201.717309 
L 204.500887 198.835129 
L 212.825363 200.523885 
L 221.149838 226.626737 
L 229.474314 229.5318 
L 237.798789 243.96595 
L 246.123265 261.964437 
L 254.44774 261.075762 
L 262.772216 270.661932 
L 271.096691 274.219189 
L 279.421167 272.363053 
L 287.745642 277.548851 
L 296.070118 268.577916 
L 304.394594 261.747626 
L 312.719069 246.145689 
L 321.043545 235.519013 
L 329.36802 209.106975 
L 337.692496 188.82368 
L 346.016971 158.771256 
L 354.341447 149.246319 
L 362.665922 128.008218 
L 370.990398 105.644474 
" clip-path="url(#p28840e1f43)" style="fill: none; stroke: #90d743; stroke-width: 1.5; stroke-linecap: square"/>
    <defs>
     <path id="m8538fa571a" d="M 0 3 
C 0.795609 3 1.55874 2.683901 2.12132 2.12132 
C 2.683901 1.55874 3 0.795609 3 0 
C 3 -0.795609 2.683901 -1.55874 2.12132 -2.12132 
C 1.55874 -2.683901 0.795609 -3 0 -3 
C -0.795609 -3 -1.55874 -2.683901 -2.12132 -2.12132 
C -2.683901 -1.55874 -3 -0.795609 -3 0 
C -3 0.795609 -2.683901 1.55874 -2.12132 2.12132 
C -1.55874 2.683901 -0.795609 3 0 3 
z
" style="stroke: #90d743"/>
    </defs>
    <g clip-path="url(#p28840e1f43)">
     <use xlink:href="#m8538fa571a" x="46.335852" y="41.569928" style="fill: #90d743; stroke: #90d743"/>
     <use xlink:href="#m8538fa571a" x="54.660328" y="38.770399" style="fill: #90d743; stroke: #90d743"/>
     <use xlink:href="#m8538fa571a" x="62.984803" y="35.933812" style="fill: #90d743; stroke: #90d743"/>
     <use xlink:href="#m8538fa571a" x="71.309279" y="39.42389" style="fill: #90d743; stroke: #90d743"/>
     <use xlink:href="#m8538fa571a" x="79.633754" y="42.436462" style="fill: #90d743; stroke: #90d743"/>
     <use xlink:href="#m8538fa571a" x="87.95823" y="48.011756" style="fill: #90d743; stroke: #90d743"/>
     <use xlink:href="#m8538fa571a" x="96.282705" y="55.175212" style="fill: #90d743; stroke: #90d743"/>
     <use xlink:href="#m8538fa571a" x="104.607181" y="56.296524" style="fill: #90d743; stroke: #90d743"/>
     <use xlink:href="#m8538fa571a" x="112.931656" y="83.936594" style="fill: #90d743; stroke: #90d743"/>
     <use xlink:href="#m8538fa571a" x="121.256132" y="92.600162" style="fill: #90d743; stroke: #90d743"/>
     <use xlink:href="#m8538fa571a" x="129.580608" y="98.385888" style="fill: #90d743; stroke: #90d743"/>
     <use xlink:href="#m8538fa571a" x="137.905083" y="94.875117" style="fill: #90d743; stroke: #90d743"/>
     <use xlink:href="#m8538fa571a" x="146.229559" y="96.692535" style="fill: #90d743; stroke: #90d743"/>
     <use xlink:href="#m8538fa571a" x="154.554034" y="124.56344" style="fill: #90d743; stroke: #90d743"/>
     <use xlink:href="#m8538fa571a" x="162.87851" y="153.633608" style="fill: #90d743; stroke: #90d743"/>
     <use xlink:href="#m8538fa571a" x="171.202985" y="156.191123" style="fill: #90d743; stroke: #90d743"/>
     <use xlink:href="#m8538fa571a" x="179.527461" y="174.828344" style="fill: #90d743; stroke: #90d743"/>
     <use xlink:href="#m8538fa571a" x="187.851936" y="188.140898" style="fill: #90d743; stroke: #90d743"/>
     <use xlink:href="#m8538fa571a" x="196.176412" y="201.717309" style="fill: #90d743; stroke: #90d743"/>
     <use xlink:href="#m8538fa571a" x="204.500887" y="198.835129" style="fill: #90d743; stroke: #90d743"/>
     <use xlink:href="#m8538fa571a" x="212.825363" y="200.523885" style="fill: #90d743; stroke: #90d743"/>
     <use xlink:href="#m8538fa571a" x="221.149838" y="226.626737" style="fill: #90d743; stroke: #90d743"/>
     <use xlink:href="#m8538fa571a" x="229.474314" y="229.5318" style="fill: #90d743; stroke: #90d743"/>
     <use xlink:href="#m8538fa571a" x="237.798789" y="243.96595" style="fill: #90d743; stroke: #90d743"/>
     <use xlink:href="#m8538fa571a" x="246.123265" y="261.964437" style="fill: #90d743; stroke: #90d743"/>
     <use xlink:href="#m8538fa571a" x="254.44774" y="261.075762" style="fill: #90d743; stroke: #90d743"/>
     <use xlink:href="#m8538fa571a" x="262.772216" y="270.661932" style="fill: #90d743; stroke: #90d743"/>
     <use xlink:href="#m8538fa571a" x="271.096691" y="274.219189" style="fill: #90d743; stroke: #90d743"/>
     <use xlink:href="#m8538fa571a" x="279.421167" y="272.363053" style="fill: #90d743; stroke: #90d743"/>
     <use xlink:href="#m8538fa571a" x="287.745642" y="277.548851" style="fill: #90d743; stroke: #90d743"/>
     <use xlink:href="#m8538fa571a" x="296.070118" y="268.577916" style="fill: #90d743; stroke: #90d743"/>
     <use xlink:href="#m8538fa571a" x="304.394594" y="261.747626" style="fill: #90d743; stroke: #90d743"/>
     <use xlink:href="#m8538fa571a" x="312.719069" y="246.145689" style="fill: #90d743; stroke: #90d743"/>
     <use xlink:href="#m8538fa571a" x="321.043545" y="235.519013" style="fill: #90d743; stroke: #90d743"/>
     <use xlink:href="#m8538fa571a" x="329.36802" y="209.106975" style="fill: #90d743; stroke: #90d743"/>
     <use xlink:href="#m8538fa571a" x="337.692496" y="188.82368" style="fill: #90d743; stroke: #90d743"/>
     <use xlink:href="#m8538fa571a" x="346.016971" y="158.771256" style="fill: #90d743; stroke: #90d743"/>
     <use xlink:href="#m8538fa571a" x="354.341447" y="149.246319" style="fill: #90d743; stroke: #90d743"/>
     <use xlink:href="#m8538fa571a" x="362.665922" y="128.008218" style="fill: #90d743; stroke: #90d743"/>
     <use xlink:href="#m8538fa571a" x="370.990398" y="105.644474" style="fill: #90d743; stroke: #90d743"/>
    </g>
   </g>
   <g id="patch_3">
    <path d="M 30.103125 289.949812 
L 30.103125 23.837812 
" style="fill: none; stroke: #000000; stroke-width: 0.8; stroke-linejoin: miter; stroke-linecap: square"/>
   </g>
   <g id="patch_4">
    <path d="M 387.223125 289.949812 
L 387.223125 23.837812 
" style="fill: none; stroke: #000000; stroke-width: 0.8; stroke-linejoin: miter; stroke-linecap: square"/>
   </g>
   <g id="patch_5">
    <path d="M 30.103125 289.949812 
L 387.223125 289.949812 
" style="fill: none; stroke: #000000; stroke-width: 0.8; stroke-linejoin: miter; stroke-linecap: square"/>
   </g>
   <g id="patch_6">
    <path d="M 30.103125 23.837812 
L 387.223125 23.837812 
" style="fill: none; stroke: #000000; stroke-width: 0.8; stroke-linejoin: miter; stroke-linecap: square"/>
   </g>
   <g id="text_15">
    <!-- meta-llama-Llama-2-13b-hf -->
    <g transform="translate(112.640625 17.837812) scale(0.14 -0.14)">
     <defs>
      <path id="DejaVuSans-6d" d="M 3328 2828 
Q 3544 3216 3844 3400 
Q 4144 3584 4550 3584 
Q 5097 3584 5394 3201 
Q 5691 2819 5691 2113 
L 5691 0 
L 5113 0 
L 5113 2094 
Q 5113 2597 4934 2840 
Q 4756 3084 4391 3084 
Q 3944 3084 3684 2787 
Q 3425 2491 3425 1978 
L 3425 0 
L 2847 0 
L 2847 2094 
Q 2847 2600 2669 2842 
Q 2491 3084 2119 3084 
Q 1678 3084 1418 2786 
Q 1159 2488 1159 1978 
L 1159 0 
L 581 0 
L 581 3500 
L 1159 3500 
L 1159 2956 
Q 1356 3278 1631 3431 
Q 1906 3584 2284 3584 
Q 2666 3584 2933 3390 
Q 3200 3197 3328 2828 
z
" transform="scale(0.015625)"/>
      <path id="DejaVuSans-65" d="M 3597 1894 
L 3597 1613 
L 953 1613 
Q 991 1019 1311 708 
Q 1631 397 2203 397 
Q 2534 397 2845 478 
Q 3156 559 3463 722 
L 3463 178 
Q 3153 47 2828 -22 
Q 2503 -91 2169 -91 
Q 1331 -91 842 396 
Q 353 884 353 1716 
Q 353 2575 817 3079 
Q 1281 3584 2069 3584 
Q 2775 3584 3186 3129 
Q 3597 2675 3597 1894 
z
M 3022 2063 
Q 3016 2534 2758 2815 
Q 2500 3097 2075 3097 
Q 1594 3097 1305 2825 
Q 1016 2553 972 2059 
L 3022 2063 
z
" transform="scale(0.015625)"/>
      <path id="DejaVuSans-74" d="M 1172 4494 
L 1172 3500 
L 2356 3500 
L 2356 3053 
L 1172 3053 
L 1172 1153 
Q 1172 725 1289 603 
Q 1406 481 1766 481 
L 2356 481 
L 2356 0 
L 1766 0 
Q 1100 0 847 248 
Q 594 497 594 1153 
L 594 3053 
L 172 3053 
L 172 3500 
L 594 3500 
L 594 4494 
L 1172 4494 
z
" transform="scale(0.015625)"/>
      <path id="DejaVuSans-61" d="M 2194 1759 
Q 1497 1759 1228 1600 
Q 959 1441 959 1056 
Q 959 750 1161 570 
Q 1363 391 1709 391 
Q 2188 391 2477 730 
Q 2766 1069 2766 1631 
L 2766 1759 
L 2194 1759 
z
M 3341 1997 
L 3341 0 
L 2766 0 
L 2766 531 
Q 2569 213 2275 61 
Q 1981 -91 1556 -91 
Q 1019 -91 701 211 
Q 384 513 384 1019 
Q 384 1609 779 1909 
Q 1175 2209 1959 2209 
L 2766 2209 
L 2766 2266 
Q 2766 2663 2505 2880 
Q 2244 3097 1772 3097 
Q 1472 3097 1187 3025 
Q 903 2953 641 2809 
L 641 3341 
Q 956 3463 1253 3523 
Q 1550 3584 1831 3584 
Q 2591 3584 2966 3190 
Q 3341 2797 3341 1997 
z
" transform="scale(0.015625)"/>
      <path id="DejaVuSans-2d" d="M 313 2009 
L 1997 2009 
L 1997 1497 
L 313 1497 
L 313 2009 
z
" transform="scale(0.015625)"/>
      <path id="DejaVuSans-6c" d="M 603 4863 
L 1178 4863 
L 1178 0 
L 603 0 
L 603 4863 
z
" transform="scale(0.015625)"/>
      <path id="DejaVuSans-4c" d="M 628 4666 
L 1259 4666 
L 1259 531 
L 3531 531 
L 3531 0 
L 628 0 
L 628 4666 
z
" transform="scale(0.015625)"/>
      <path id="DejaVuSans-62" d="M 3116 1747 
Q 3116 2381 2855 2742 
Q 2594 3103 2138 3103 
Q 1681 3103 1420 2742 
Q 1159 2381 1159 1747 
Q 1159 1113 1420 752 
Q 1681 391 2138 391 
Q 2594 391 2855 752 
Q 3116 1113 3116 1747 
z
M 1159 2969 
Q 1341 3281 1617 3432 
Q 1894 3584 2278 3584 
Q 2916 3584 3314 3078 
Q 3713 2572 3713 1747 
Q 3713 922 3314 415 
Q 2916 -91 2278 -91 
Q 1894 -91 1617 61 
Q 1341 213 1159 525 
L 1159 0 
L 581 0 
L 581 4863 
L 1159 4863 
L 1159 2969 
z
" transform="scale(0.015625)"/>
      <path id="DejaVuSans-68" d="M 3513 2113 
L 3513 0 
L 2938 0 
L 2938 2094 
Q 2938 2591 2744 2837 
Q 2550 3084 2163 3084 
Q 1697 3084 1428 2787 
Q 1159 2491 1159 1978 
L 1159 0 
L 581 0 
L 581 4863 
L 1159 4863 
L 1159 2956 
Q 1366 3272 1645 3428 
Q 1925 3584 2291 3584 
Q 2894 3584 3203 3211 
Q 3513 2838 3513 2113 
z
" transform="scale(0.015625)"/>
      <path id="DejaVuSans-66" d="M 2375 4863 
L 2375 4384 
L 1825 4384 
Q 1516 4384 1395 4259 
Q 1275 4134 1275 3809 
L 1275 3500 
L 2222 3500 
L 2222 3053 
L 1275 3053 
L 1275 0 
L 697 0 
L 697 3053 
L 147 3053 
L 147 3500 
L 697 3500 
L 697 3744 
Q 697 4328 969 4595 
Q 1241 4863 1831 4863 
L 2375 4863 
z
" transform="scale(0.015625)"/>
     </defs>
     <use xlink:href="#DejaVuSans-6d"/>
     <use xlink:href="#DejaVuSans-65" x="97.412109"/>
     <use xlink:href="#DejaVuSans-74" x="158.935547"/>
     <use xlink:href="#DejaVuSans-61" x="198.144531"/>
     <use xlink:href="#DejaVuSans-2d" x="259.423828"/>
     <use xlink:href="#DejaVuSans-6c" x="295.507812"/>
     <use xlink:href="#DejaVuSans-6c" x="323.291016"/>
     <use xlink:href="#DejaVuSans-61" x="351.074219"/>
     <use xlink:href="#DejaVuSans-6d" x="412.353516"/>
     <use xlink:href="#DejaVuSans-61" x="509.765625"/>
     <use xlink:href="#DejaVuSans-2d" x="571.044922"/>
     <use xlink:href="#DejaVuSans-4c" x="607.128906"/>
     <use xlink:href="#DejaVuSans-6c" x="662.841797"/>
     <use xlink:href="#DejaVuSans-61" x="690.625"/>
     <use xlink:href="#DejaVuSans-6d" x="751.904297"/>
     <use xlink:href="#DejaVuSans-61" x="849.316406"/>
     <use xlink:href="#DejaVuSans-2d" x="910.595703"/>
     <use xlink:href="#DejaVuSans-32" x="946.679688"/>
     <use xlink:href="#DejaVuSans-2d" x="1010.302734"/>
     <use xlink:href="#DejaVuSans-31" x="1046.386719"/>
     <use xlink:href="#DejaVuSans-33" x="1110.009766"/>
     <use xlink:href="#DejaVuSans-62" x="1173.632812"/>
     <use xlink:href="#DejaVuSans-2d" x="1237.109375"/>
     <use xlink:href="#DejaVuSans-68" x="1273.193359"/>
     <use xlink:href="#DejaVuSans-66" x="1336.572266"/>
    </g>
   </g>
   <g id="legend_1">
    <g id="patch_7">
     <path d="M 271.954375 61.194062 
L 380.223125 61.194062 
Q 382.223125 61.194062 382.223125 59.194062 
L 382.223125 30.837812 
Q 382.223125 28.837812 380.223125 28.837812 
L 271.954375 28.837812 
Q 269.954375 28.837812 269.954375 30.837812 
L 269.954375 59.194062 
Q 269.954375 61.194062 271.954375 61.194062 
z
" style="fill: #ffffff; opacity: 0.8; stroke: #cccccc; stroke-linejoin: miter"/>
    </g>
    <g id="line2d_17">
     <path d="M 273.954375 36.93625 
L 283.954375 36.93625 
L 293.954375 36.93625 
" style="fill: none; stroke: #443983; stroke-width: 1.5; stroke-linecap: square"/>
     <g>
      <use xlink:href="#m95430b74b1" x="283.954375" y="36.93625" style="fill: #443983; stroke: #443983"/>
     </g>
    </g>
    <g id="text_16">
     <!-- High Popularity -->
     <g transform="translate(301.954375 40.43625) scale(0.1 -0.1)">
      <defs>
       <path id="DejaVuSans-48" d="M 628 4666 
L 1259 4666 
L 1259 2753 
L 3553 2753 
L 3553 4666 
L 4184 4666 
L 4184 0 
L 3553 0 
L 3553 2222 
L 1259 2222 
L 1259 0 
L 628 0 
L 628 4666 
z
" transform="scale(0.015625)"/>
       <path id="DejaVuSans-69" d="M 603 3500 
L 1178 3500 
L 1178 0 
L 603 0 
L 603 3500 
z
M 603 4863 
L 1178 4863 
L 1178 4134 
L 603 4134 
L 603 4863 
z
" transform="scale(0.015625)"/>
       <path id="DejaVuSans-67" d="M 2906 1791 
Q 2906 2416 2648 2759 
Q 2391 3103 1925 3103 
Q 1463 3103 1205 2759 
Q 947 2416 947 1791 
Q 947 1169 1205 825 
Q 1463 481 1925 481 
Q 2391 481 2648 825 
Q 2906 1169 2906 1791 
z
M 3481 434 
Q 3481 -459 3084 -895 
Q 2688 -1331 1869 -1331 
Q 1566 -1331 1297 -1286 
Q 1028 -1241 775 -1147 
L 775 -588 
Q 1028 -725 1275 -790 
Q 1522 -856 1778 -856 
Q 2344 -856 2625 -561 
Q 2906 -266 2906 331 
L 2906 616 
Q 2728 306 2450 153 
Q 2172 0 1784 0 
Q 1141 0 747 490 
Q 353 981 353 1791 
Q 353 2603 747 3093 
Q 1141 3584 1784 3584 
Q 2172 3584 2450 3431 
Q 2728 3278 2906 2969 
L 2906 3500 
L 3481 3500 
L 3481 434 
z
" transform="scale(0.015625)"/>
       <path id="DejaVuSans-20" transform="scale(0.015625)"/>
       <path id="DejaVuSans-50" d="M 1259 4147 
L 1259 2394 
L 2053 2394 
Q 2494 2394 2734 2622 
Q 2975 2850 2975 3272 
Q 2975 3691 2734 3919 
Q 2494 4147 2053 4147 
L 1259 4147 
z
M 628 4666 
L 2053 4666 
Q 2838 4666 3239 4311 
Q 3641 3956 3641 3272 
Q 3641 2581 3239 2228 
Q 2838 1875 2053 1875 
L 1259 1875 
L 1259 0 
L 628 0 
L 628 4666 
z
" transform="scale(0.015625)"/>
       <path id="DejaVuSans-6f" d="M 1959 3097 
Q 1497 3097 1228 2736 
Q 959 2375 959 1747 
Q 959 1119 1226 758 
Q 1494 397 1959 397 
Q 2419 397 2687 759 
Q 2956 1122 2956 1747 
Q 2956 2369 2687 2733 
Q 2419 3097 1959 3097 
z
M 1959 3584 
Q 2709 3584 3137 3096 
Q 3566 2609 3566 1747 
Q 3566 888 3137 398 
Q 2709 -91 1959 -91 
Q 1206 -91 779 398 
Q 353 888 353 1747 
Q 353 2609 779 3096 
Q 1206 3584 1959 3584 
z
" transform="scale(0.015625)"/>
       <path id="DejaVuSans-70" d="M 1159 525 
L 1159 -1331 
L 581 -1331 
L 581 3500 
L 1159 3500 
L 1159 2969 
Q 1341 3281 1617 3432 
Q 1894 3584 2278 3584 
Q 2916 3584 3314 3078 
Q 3713 2572 3713 1747 
Q 3713 922 3314 415 
Q 2916 -91 2278 -91 
Q 1894 -91 1617 61 
Q 1341 213 1159 525 
z
M 3116 1747 
Q 3116 2381 2855 2742 
Q 2594 3103 2138 3103 
Q 1681 3103 1420 2742 
Q 1159 2381 1159 1747 
Q 1159 1113 1420 752 
Q 1681 391 2138 391 
Q 2594 391 2855 752 
Q 3116 1113 3116 1747 
z
" transform="scale(0.015625)"/>
       <path id="DejaVuSans-75" d="M 544 1381 
L 544 3500 
L 1119 3500 
L 1119 1403 
Q 1119 906 1312 657 
Q 1506 409 1894 409 
Q 2359 409 2629 706 
Q 2900 1003 2900 1516 
L 2900 3500 
L 3475 3500 
L 3475 0 
L 2900 0 
L 2900 538 
Q 2691 219 2414 64 
Q 2138 -91 1772 -91 
Q 1169 -91 856 284 
Q 544 659 544 1381 
z
M 1991 3584 
L 1991 3584 
z
" transform="scale(0.015625)"/>
       <path id="DejaVuSans-72" d="M 2631 2963 
Q 2534 3019 2420 3045 
Q 2306 3072 2169 3072 
Q 1681 3072 1420 2755 
Q 1159 2438 1159 1844 
L 1159 0 
L 581 0 
L 581 3500 
L 1159 3500 
L 1159 2956 
Q 1341 3275 1631 3429 
Q 1922 3584 2338 3584 
Q 2397 3584 2469 3576 
Q 2541 3569 2628 3553 
L 2631 2963 
z
" transform="scale(0.015625)"/>
       <path id="DejaVuSans-79" d="M 2059 -325 
Q 1816 -950 1584 -1140 
Q 1353 -1331 966 -1331 
L 506 -1331 
L 506 -850 
L 844 -850 
Q 1081 -850 1212 -737 
Q 1344 -625 1503 -206 
L 1606 56 
L 191 3500 
L 800 3500 
L 1894 763 
L 2988 3500 
L 3597 3500 
L 2059 -325 
z
" transform="scale(0.015625)"/>
      </defs>
      <use xlink:href="#DejaVuSans-48"/>
      <use xlink:href="#DejaVuSans-69" x="75.195312"/>
      <use xlink:href="#DejaVuSans-67" x="102.978516"/>
      <use xlink:href="#DejaVuSans-68" x="166.455078"/>
      <use xlink:href="#DejaVuSans-20" x="229.833984"/>
      <use xlink:href="#DejaVuSans-50" x="261.621094"/>
      <use xlink:href="#DejaVuSans-6f" x="318.298828"/>
      <use xlink:href="#DejaVuSans-70" x="379.480469"/>
      <use xlink:href="#DejaVuSans-75" x="442.957031"/>
      <use xlink:href="#DejaVuSans-6c" x="506.335938"/>
      <use xlink:href="#DejaVuSans-61" x="534.119141"/>
      <use xlink:href="#DejaVuSans-72" x="595.398438"/>
      <use xlink:href="#DejaVuSans-69" x="636.511719"/>
      <use xlink:href="#DejaVuSans-74" x="664.294922"/>
      <use xlink:href="#DejaVuSans-79" x="703.503906"/>
     </g>
    </g>
    <g id="line2d_18">
     <path d="M 273.954375 51.614375 
L 283.954375 51.614375 
L 293.954375 51.614375 
" style="fill: none; stroke: #90d743; stroke-width: 1.5; stroke-linecap: square"/>
     <g>
      <use xlink:href="#m8538fa571a" x="283.954375" y="51.614375" style="fill: #90d743; stroke: #90d743"/>
     </g>
    </g>
    <g id="text_17">
     <!-- Low Popularity -->
     <g transform="translate(301.954375 55.114375) scale(0.1 -0.1)">
      <defs>
       <path id="DejaVuSans-77" d="M 269 3500 
L 844 3500 
L 1563 769 
L 2278 3500 
L 2956 3500 
L 3675 769 
L 4391 3500 
L 4966 3500 
L 4050 0 
L 3372 0 
L 2619 2869 
L 1863 0 
L 1184 0 
L 269 3500 
z
" transform="scale(0.015625)"/>
      </defs>
      <use xlink:href="#DejaVuSans-4c"/>
      <use xlink:href="#DejaVuSans-6f" x="53.962891"/>
      <use xlink:href="#DejaVuSans-77" x="115.144531"/>
      <use xlink:href="#DejaVuSans-20" x="196.931641"/>
      <use xlink:href="#DejaVuSans-50" x="228.71875"/>
      <use xlink:href="#DejaVuSans-6f" x="285.396484"/>
      <use xlink:href="#DejaVuSans-70" x="346.578125"/>
      <use xlink:href="#DejaVuSans-75" x="410.054688"/>
      <use xlink:href="#DejaVuSans-6c" x="473.433594"/>
      <use xlink:href="#DejaVuSans-61" x="501.216797"/>
      <use xlink:href="#DejaVuSans-72" x="562.496094"/>
      <use xlink:href="#DejaVuSans-69" x="603.609375"/>
      <use xlink:href="#DejaVuSans-74" x="631.392578"/>
      <use xlink:href="#DejaVuSans-79" x="670.601562"/>
     </g>
    </g>
   </g>
  </g>
 </g>
 <defs>
  <clipPath id="p28840e1f43">
   <rect x="30.103125" y="23.837812" width="357.12" height="266.112"/>
  </clipPath>
 </defs>
</svg>
