<?xml version="1.0" encoding="utf-8" standalone="no"?>
<!DOCTYPE svg PUBLIC "-//W3C//DTD SVG 1.1//EN"
  "http://www.w3.org/Graphics/SVG/1.1/DTD/svg11.dtd">
<svg xmlns:xlink="http://www.w3.org/1999/xlink" width="410.691123pt" height="306.380281pt" viewBox="0 0 410.691123 306.380281" xmlns="http://www.w3.org/2000/svg" version="1.1">
 <metadata>
  <rdf:RDF xmlns:dc="http://purl.org/dc/elements/1.1/" xmlns:cc="http://creativecommons.org/ns#" xmlns:rdf="http://www.w3.org/1999/02/22-rdf-syntax-ns#">
   <cc:Work>
    <dc:type rdf:resource="http://purl.org/dc/dcmitype/StillImage"/>
    <dc:date>2024-09-29T20:26:38.162670</dc:date>
    <dc:format>image/svg+xml</dc:format>
    <dc:creator>
     <cc:Agent>
      <dc:title>Matplotlib v3.7.1, https://matplotlib.org/</dc:title>
     </cc:Agent>
    </dc:creator>
   </cc:Work>
  </rdf:RDF>
 </metadata>
 <defs>
  <style type="text/css">*{stroke-linejoin: round; stroke-linecap: butt}</style>
 </defs>
 <g id="figure_1">
  <g id="patch_1">
   <path d="M 0 306.380281 
L 410.691123 306.380281 
L 410.691123 0 
L 0 0 
z
" style="fill: #ffffff"/>
  </g>
  <g id="axes_1">
   <g id="patch_2">
    <path d="M 45.371875 278.630906 
L 402.491875 278.630906 
L 402.491875 12.518906 
L 45.371875 12.518906 
z
" style="fill: #f2f2f2"/>
   </g>
   <g id="matplotlib.axis_1">
    <g id="xtick_1">
     <g id="line2d_1">
      <path d="M 61.604602 278.630906 
L 61.604602 12.518906 
" clip-path="url(#p1bb6eccfd5)" style="fill: none; stroke: #ffffff; stroke-linecap: square"/>
     </g>
     <g id="line2d_2">
      <defs>
       <path id="m56d8182ece" d="M 0 0 
L 0 3.5 
" style="stroke: #000000; stroke-width: 0.8"/>
      </defs>
      <g>
       <use xlink:href="#m56d8182ece" x="61.604602" y="278.630906" style="stroke: #000000; stroke-width: 0.8"/>
      </g>
     </g>
     <g id="text_1">
      <!-- 0 -->
      <g transform="translate(57.150852 296.268719) scale(0.14 -0.14)">
       <defs>
        <path id="DejaVuSans-30" d="M 2034 4250 
Q 1547 4250 1301 3770 
Q 1056 3291 1056 2328 
Q 1056 1369 1301 889 
Q 1547 409 2034 409 
Q 2525 409 2770 889 
Q 3016 1369 3016 2328 
Q 3016 3291 2770 3770 
Q 2525 4250 2034 4250 
z
M 2034 4750 
Q 2819 4750 3233 4129 
Q 3647 3509 3647 2328 
Q 3647 1150 3233 529 
Q 2819 -91 2034 -91 
Q 1250 -91 836 529 
Q 422 1150 422 2328 
Q 422 3509 836 4129 
Q 1250 4750 2034 4750 
z
" transform="scale(0.015625)"/>
       </defs>
       <use xlink:href="#DejaVuSans-30"/>
      </g>
     </g>
    </g>
    <g id="xtick_2">
     <g id="line2d_3">
      <path d="M 103.22698 278.630906 
L 103.22698 12.518906 
" clip-path="url(#p1bb6eccfd5)" style="fill: none; stroke: #ffffff; stroke-linecap: square"/>
     </g>
     <g id="line2d_4">
      <g>
       <use xlink:href="#m56d8182ece" x="103.22698" y="278.630906" style="stroke: #000000; stroke-width: 0.8"/>
      </g>
     </g>
     <g id="text_2">
      <!-- 5 -->
      <g transform="translate(98.77323 296.268719) scale(0.14 -0.14)">
       <defs>
        <path id="DejaVuSans-35" d="M 691 4666 
L 3169 4666 
L 3169 4134 
L 1269 4134 
L 1269 2991 
Q 1406 3038 1543 3061 
Q 1681 3084 1819 3084 
Q 2600 3084 3056 2656 
Q 3513 2228 3513 1497 
Q 3513 744 3044 326 
Q 2575 -91 1722 -91 
Q 1428 -91 1123 -41 
Q 819 9 494 109 
L 494 744 
Q 775 591 1075 516 
Q 1375 441 1709 441 
Q 2250 441 2565 725 
Q 2881 1009 2881 1497 
Q 2881 1984 2565 2268 
Q 2250 2553 1709 2553 
Q 1456 2553 1204 2497 
Q 953 2441 691 2322 
L 691 4666 
z
" transform="scale(0.015625)"/>
       </defs>
       <use xlink:href="#DejaVuSans-35"/>
      </g>
     </g>
    </g>
    <g id="xtick_3">
     <g id="line2d_5">
      <path d="M 144.849358 278.630906 
L 144.849358 12.518906 
" clip-path="url(#p1bb6eccfd5)" style="fill: none; stroke: #ffffff; stroke-linecap: square"/>
     </g>
     <g id="line2d_6">
      <g>
       <use xlink:href="#m56d8182ece" x="144.849358" y="278.630906" style="stroke: #000000; stroke-width: 0.8"/>
      </g>
     </g>
     <g id="text_3">
      <!-- 10 -->
      <g transform="translate(135.941858 296.268719) scale(0.14 -0.14)">
       <defs>
        <path id="DejaVuSans-31" d="M 794 531 
L 1825 531 
L 1825 4091 
L 703 3866 
L 703 4441 
L 1819 4666 
L 2450 4666 
L 2450 531 
L 3481 531 
L 3481 0 
L 794 0 
L 794 531 
z
" transform="scale(0.015625)"/>
       </defs>
       <use xlink:href="#DejaVuSans-31"/>
       <use xlink:href="#DejaVuSans-30" x="63.623047"/>
      </g>
     </g>
    </g>
    <g id="xtick_4">
     <g id="line2d_7">
      <path d="M 186.471735 278.630906 
L 186.471735 12.518906 
" clip-path="url(#p1bb6eccfd5)" style="fill: none; stroke: #ffffff; stroke-linecap: square"/>
     </g>
     <g id="line2d_8">
      <g>
       <use xlink:href="#m56d8182ece" x="186.471735" y="278.630906" style="stroke: #000000; stroke-width: 0.8"/>
      </g>
     </g>
     <g id="text_4">
      <!-- 15 -->
      <g transform="translate(177.564235 296.268719) scale(0.14 -0.14)">
       <use xlink:href="#DejaVuSans-31"/>
       <use xlink:href="#DejaVuSans-35" x="63.623047"/>
      </g>
     </g>
    </g>
    <g id="xtick_5">
     <g id="line2d_9">
      <path d="M 228.094113 278.630906 
L 228.094113 12.518906 
" clip-path="url(#p1bb6eccfd5)" style="fill: none; stroke: #ffffff; stroke-linecap: square"/>
     </g>
     <g id="line2d_10">
      <g>
       <use xlink:href="#m56d8182ece" x="228.094113" y="278.630906" style="stroke: #000000; stroke-width: 0.8"/>
      </g>
     </g>
     <g id="text_5">
      <!-- 20 -->
      <g transform="translate(219.186613 296.268719) scale(0.14 -0.14)">
       <defs>
        <path id="DejaVuSans-32" d="M 1228 531 
L 3431 531 
L 3431 0 
L 469 0 
L 469 531 
Q 828 903 1448 1529 
Q 2069 2156 2228 2338 
Q 2531 2678 2651 2914 
Q 2772 3150 2772 3378 
Q 2772 3750 2511 3984 
Q 2250 4219 1831 4219 
Q 1534 4219 1204 4116 
Q 875 4013 500 3803 
L 500 4441 
Q 881 4594 1212 4672 
Q 1544 4750 1819 4750 
Q 2544 4750 2975 4387 
Q 3406 4025 3406 3419 
Q 3406 3131 3298 2873 
Q 3191 2616 2906 2266 
Q 2828 2175 2409 1742 
Q 1991 1309 1228 531 
z
" transform="scale(0.015625)"/>
       </defs>
       <use xlink:href="#DejaVuSans-32"/>
       <use xlink:href="#DejaVuSans-30" x="63.623047"/>
      </g>
     </g>
    </g>
    <g id="xtick_6">
     <g id="line2d_11">
      <path d="M 269.71649 278.630906 
L 269.71649 12.518906 
" clip-path="url(#p1bb6eccfd5)" style="fill: none; stroke: #ffffff; stroke-linecap: square"/>
     </g>
     <g id="line2d_12">
      <g>
       <use xlink:href="#m56d8182ece" x="269.71649" y="278.630906" style="stroke: #000000; stroke-width: 0.8"/>
      </g>
     </g>
     <g id="text_6">
      <!-- 25 -->
      <g transform="translate(260.80899 296.268719) scale(0.14 -0.14)">
       <use xlink:href="#DejaVuSans-32"/>
       <use xlink:href="#DejaVuSans-35" x="63.623047"/>
      </g>
     </g>
    </g>
    <g id="xtick_7">
     <g id="line2d_13">
      <path d="M 311.338868 278.630906 
L 311.338868 12.518906 
" clip-path="url(#p1bb6eccfd5)" style="fill: none; stroke: #ffffff; stroke-linecap: square"/>
     </g>
     <g id="line2d_14">
      <g>
       <use xlink:href="#m56d8182ece" x="311.338868" y="278.630906" style="stroke: #000000; stroke-width: 0.8"/>
      </g>
     </g>
     <g id="text_7">
      <!-- 30 -->
      <g transform="translate(302.431368 296.268719) scale(0.14 -0.14)">
       <defs>
        <path id="DejaVuSans-33" d="M 2597 2516 
Q 3050 2419 3304 2112 
Q 3559 1806 3559 1356 
Q 3559 666 3084 287 
Q 2609 -91 1734 -91 
Q 1441 -91 1130 -33 
Q 819 25 488 141 
L 488 750 
Q 750 597 1062 519 
Q 1375 441 1716 441 
Q 2309 441 2620 675 
Q 2931 909 2931 1356 
Q 2931 1769 2642 2001 
Q 2353 2234 1838 2234 
L 1294 2234 
L 1294 2753 
L 1863 2753 
Q 2328 2753 2575 2939 
Q 2822 3125 2822 3475 
Q 2822 3834 2567 4026 
Q 2313 4219 1838 4219 
Q 1578 4219 1281 4162 
Q 984 4106 628 3988 
L 628 4550 
Q 988 4650 1302 4700 
Q 1616 4750 1894 4750 
Q 2613 4750 3031 4423 
Q 3450 4097 3450 3541 
Q 3450 3153 3228 2886 
Q 3006 2619 2597 2516 
z
" transform="scale(0.015625)"/>
       </defs>
       <use xlink:href="#DejaVuSans-33"/>
       <use xlink:href="#DejaVuSans-30" x="63.623047"/>
      </g>
     </g>
    </g>
    <g id="xtick_8">
     <g id="line2d_15">
      <path d="M 352.961246 278.630906 
L 352.961246 12.518906 
" clip-path="url(#p1bb6eccfd5)" style="fill: none; stroke: #ffffff; stroke-linecap: square"/>
     </g>
     <g id="line2d_16">
      <g>
       <use xlink:href="#m56d8182ece" x="352.961246" y="278.630906" style="stroke: #000000; stroke-width: 0.8"/>
      </g>
     </g>
     <g id="text_8">
      <!-- 35 -->
      <g transform="translate(344.053746 296.268719) scale(0.14 -0.14)">
       <use xlink:href="#DejaVuSans-33"/>
       <use xlink:href="#DejaVuSans-35" x="63.623047"/>
      </g>
     </g>
    </g>
    <g id="xtick_9">
     <g id="line2d_17">
      <path d="M 394.583623 278.630906 
L 394.583623 12.518906 
" clip-path="url(#p1bb6eccfd5)" style="fill: none; stroke: #ffffff; stroke-linecap: square"/>
     </g>
     <g id="line2d_18">
      <g>
       <use xlink:href="#m56d8182ece" x="394.583623" y="278.630906" style="stroke: #000000; stroke-width: 0.8"/>
      </g>
     </g>
     <g id="text_9">
      <!-- 40 -->
      <g transform="translate(385.676123 296.268719) scale(0.14 -0.14)">
       <defs>
        <path id="DejaVuSans-34" d="M 2419 4116 
L 825 1625 
L 2419 1625 
L 2419 4116 
z
M 2253 4666 
L 3047 4666 
L 3047 1625 
L 3713 1625 
L 3713 1100 
L 3047 1100 
L 3047 0 
L 2419 0 
L 2419 1100 
L 313 1100 
L 313 1709 
L 2253 4666 
z
" transform="scale(0.015625)"/>
       </defs>
       <use xlink:href="#DejaVuSans-34"/>
       <use xlink:href="#DejaVuSans-30" x="63.623047"/>
      </g>
     </g>
    </g>
   </g>
   <g id="matplotlib.axis_2">
    <g id="ytick_1">
     <g id="line2d_19">
      <defs>
       <path id="m3d6d6709f3" d="M 0 0 
L -3.5 0 
" style="stroke: #000000; stroke-width: 0.8"/>
      </defs>
      <g>
       <use xlink:href="#m3d6d6709f3" x="45.371875" y="268.424478" style="stroke: #000000; stroke-width: 0.8"/>
      </g>
     </g>
     <g id="text_10">
      <!-- 0.78 -->
      <g transform="translate(7.2 273.743384) scale(0.14 -0.14)">
       <defs>
        <path id="DejaVuSans-2e" d="M 684 794 
L 1344 794 
L 1344 0 
L 684 0 
L 684 794 
z
" transform="scale(0.015625)"/>
        <path id="DejaVuSans-37" d="M 525 4666 
L 3525 4666 
L 3525 4397 
L 1831 0 
L 1172 0 
L 2766 4134 
L 525 4134 
L 525 4666 
z
" transform="scale(0.015625)"/>
        <path id="DejaVuSans-38" d="M 2034 2216 
Q 1584 2216 1326 1975 
Q 1069 1734 1069 1313 
Q 1069 891 1326 650 
Q 1584 409 2034 409 
Q 2484 409 2743 651 
Q 3003 894 3003 1313 
Q 3003 1734 2745 1975 
Q 2488 2216 2034 2216 
z
M 1403 2484 
Q 997 2584 770 2862 
Q 544 3141 544 3541 
Q 544 4100 942 4425 
Q 1341 4750 2034 4750 
Q 2731 4750 3128 4425 
Q 3525 4100 3525 3541 
Q 3525 3141 3298 2862 
Q 3072 2584 2669 2484 
Q 3125 2378 3379 2068 
Q 3634 1759 3634 1313 
Q 3634 634 3220 271 
Q 2806 -91 2034 -91 
Q 1263 -91 848 271 
Q 434 634 434 1313 
Q 434 1759 690 2068 
Q 947 2378 1403 2484 
z
M 1172 3481 
Q 1172 3119 1398 2916 
Q 1625 2713 2034 2713 
Q 2441 2713 2670 2916 
Q 2900 3119 2900 3481 
Q 2900 3844 2670 4047 
Q 2441 4250 2034 4250 
Q 1625 4250 1398 4047 
Q 1172 3844 1172 3481 
z
" transform="scale(0.015625)"/>
       </defs>
       <use xlink:href="#DejaVuSans-30"/>
       <use xlink:href="#DejaVuSans-2e" x="63.623047"/>
       <use xlink:href="#DejaVuSans-37" x="95.410156"/>
       <use xlink:href="#DejaVuSans-38" x="159.033203"/>
      </g>
     </g>
    </g>
    <g id="ytick_2">
     <g id="line2d_20">
      <g>
       <use xlink:href="#m3d6d6709f3" x="45.371875" y="242.833921" style="stroke: #000000; stroke-width: 0.8"/>
      </g>
     </g>
     <g id="text_11">
      <!-- 0.80 -->
      <g transform="translate(7.2 248.152827) scale(0.14 -0.14)">
       <use xlink:href="#DejaVuSans-30"/>
       <use xlink:href="#DejaVuSans-2e" x="63.623047"/>
       <use xlink:href="#DejaVuSans-38" x="95.410156"/>
       <use xlink:href="#DejaVuSans-30" x="159.033203"/>
      </g>
     </g>
    </g>
    <g id="ytick_3">
     <g id="line2d_21">
      <g>
       <use xlink:href="#m3d6d6709f3" x="45.371875" y="217.243364" style="stroke: #000000; stroke-width: 0.8"/>
      </g>
     </g>
     <g id="text_12">
      <!-- 0.83 -->
      <g transform="translate(7.2 222.56227) scale(0.14 -0.14)">
       <use xlink:href="#DejaVuSans-30"/>
       <use xlink:href="#DejaVuSans-2e" x="63.623047"/>
       <use xlink:href="#DejaVuSans-38" x="95.410156"/>
       <use xlink:href="#DejaVuSans-33" x="159.033203"/>
      </g>
     </g>
    </g>
    <g id="ytick_4">
     <g id="line2d_22">
      <g>
       <use xlink:href="#m3d6d6709f3" x="45.371875" y="191.652806" style="stroke: #000000; stroke-width: 0.8"/>
      </g>
     </g>
     <g id="text_13">
      <!-- 0.85 -->
      <g transform="translate(7.2 196.971713) scale(0.14 -0.14)">
       <use xlink:href="#DejaVuSans-30"/>
       <use xlink:href="#DejaVuSans-2e" x="63.623047"/>
       <use xlink:href="#DejaVuSans-38" x="95.410156"/>
       <use xlink:href="#DejaVuSans-35" x="159.033203"/>
      </g>
     </g>
    </g>
    <g id="ytick_5">
     <g id="line2d_23">
      <g>
       <use xlink:href="#m3d6d6709f3" x="45.371875" y="166.062249" style="stroke: #000000; stroke-width: 0.8"/>
      </g>
     </g>
     <g id="text_14">
      <!-- 0.88 -->
      <g transform="translate(7.2 171.381156) scale(0.14 -0.14)">
       <use xlink:href="#DejaVuSans-30"/>
       <use xlink:href="#DejaVuSans-2e" x="63.623047"/>
       <use xlink:href="#DejaVuSans-38" x="95.410156"/>
       <use xlink:href="#DejaVuSans-38" x="159.033203"/>
      </g>
     </g>
    </g>
    <g id="ytick_6">
     <g id="line2d_24">
      <g>
       <use xlink:href="#m3d6d6709f3" x="45.371875" y="140.471692" style="stroke: #000000; stroke-width: 0.8"/>
      </g>
     </g>
     <g id="text_15">
      <!-- 0.90 -->
      <g transform="translate(7.2 145.790598) scale(0.14 -0.14)">
       <defs>
        <path id="DejaVuSans-39" d="M 703 97 
L 703 672 
Q 941 559 1184 500 
Q 1428 441 1663 441 
Q 2288 441 2617 861 
Q 2947 1281 2994 2138 
Q 2813 1869 2534 1725 
Q 2256 1581 1919 1581 
Q 1219 1581 811 2004 
Q 403 2428 403 3163 
Q 403 3881 828 4315 
Q 1253 4750 1959 4750 
Q 2769 4750 3195 4129 
Q 3622 3509 3622 2328 
Q 3622 1225 3098 567 
Q 2575 -91 1691 -91 
Q 1453 -91 1209 -44 
Q 966 3 703 97 
z
M 1959 2075 
Q 2384 2075 2632 2365 
Q 2881 2656 2881 3163 
Q 2881 3666 2632 3958 
Q 2384 4250 1959 4250 
Q 1534 4250 1286 3958 
Q 1038 3666 1038 3163 
Q 1038 2656 1286 2365 
Q 1534 2075 1959 2075 
z
" transform="scale(0.015625)"/>
       </defs>
       <use xlink:href="#DejaVuSans-30"/>
       <use xlink:href="#DejaVuSans-2e" x="63.623047"/>
       <use xlink:href="#DejaVuSans-39" x="95.410156"/>
       <use xlink:href="#DejaVuSans-30" x="159.033203"/>
      </g>
     </g>
    </g>
    <g id="ytick_7">
     <g id="line2d_25">
      <g>
       <use xlink:href="#m3d6d6709f3" x="45.371875" y="114.881135" style="stroke: #000000; stroke-width: 0.8"/>
      </g>
     </g>
     <g id="text_16">
      <!-- 0.93 -->
      <g transform="translate(7.2 120.200041) scale(0.14 -0.14)">
       <use xlink:href="#DejaVuSans-30"/>
       <use xlink:href="#DejaVuSans-2e" x="63.623047"/>
       <use xlink:href="#DejaVuSans-39" x="95.410156"/>
       <use xlink:href="#DejaVuSans-33" x="159.033203"/>
      </g>
     </g>
    </g>
    <g id="ytick_8">
     <g id="line2d_26">
      <g>
       <use xlink:href="#m3d6d6709f3" x="45.371875" y="89.290578" style="stroke: #000000; stroke-width: 0.8"/>
      </g>
     </g>
     <g id="text_17">
      <!-- 0.95 -->
      <g transform="translate(7.2 94.609484) scale(0.14 -0.14)">
       <use xlink:href="#DejaVuSans-30"/>
       <use xlink:href="#DejaVuSans-2e" x="63.623047"/>
       <use xlink:href="#DejaVuSans-39" x="95.410156"/>
       <use xlink:href="#DejaVuSans-35" x="159.033203"/>
      </g>
     </g>
    </g>
    <g id="ytick_9">
     <g id="line2d_27">
      <g>
       <use xlink:href="#m3d6d6709f3" x="45.371875" y="63.700021" style="stroke: #000000; stroke-width: 0.8"/>
      </g>
     </g>
     <g id="text_18">
      <!-- 0.98 -->
      <g transform="translate(7.2 69.018927) scale(0.14 -0.14)">
       <use xlink:href="#DejaVuSans-30"/>
       <use xlink:href="#DejaVuSans-2e" x="63.623047"/>
       <use xlink:href="#DejaVuSans-39" x="95.410156"/>
       <use xlink:href="#DejaVuSans-38" x="159.033203"/>
      </g>
     </g>
    </g>
    <g id="ytick_10">
     <g id="line2d_28">
      <g>
       <use xlink:href="#m3d6d6709f3" x="45.371875" y="38.109463" style="stroke: #000000; stroke-width: 0.8"/>
      </g>
     </g>
     <g id="text_19">
      <!-- 1.00 -->
      <g transform="translate(7.2 43.42837) scale(0.14 -0.14)">
       <use xlink:href="#DejaVuSans-31"/>
       <use xlink:href="#DejaVuSans-2e" x="63.623047"/>
       <use xlink:href="#DejaVuSans-30" x="95.410156"/>
       <use xlink:href="#DejaVuSans-30" x="159.033203"/>
      </g>
     </g>
    </g>
    <g id="ytick_11">
     <g id="line2d_29">
      <g>
       <use xlink:href="#m3d6d6709f3" x="45.371875" y="12.518906" style="stroke: #000000; stroke-width: 0.8"/>
      </g>
     </g>
     <g id="text_20">
      <!-- 1.02 -->
      <g transform="translate(7.2 17.837812) scale(0.14 -0.14)">
       <use xlink:href="#DejaVuSans-31"/>
       <use xlink:href="#DejaVuSans-2e" x="63.623047"/>
       <use xlink:href="#DejaVuSans-30" x="95.410156"/>
       <use xlink:href="#DejaVuSans-32" x="159.033203"/>
      </g>
     </g>
    </g>
   </g>
   <g id="line2d_30">
    <path d="M 61.604602 50.850984 
L 69.929078 48.657571 
L 78.253553 44.222319 
L 86.578029 51.243062 
L 94.902504 63.56918 
L 103.22698 63.819754 
L 111.551455 74.413401 
L 119.875931 110.344587 
L 128.200406 189.239253 
L 136.524882 177.086181 
L 144.849358 209.23854 
L 153.173833 227.839232 
L 161.498309 245.432073 
L 169.822784 252.936748 
L 178.14726 227.919202 
L 186.471735 203.530868 
L 194.796211 193.721488 
L 203.120686 192.266691 
L 211.445162 174.805467 
L 219.769637 148.16663 
L 228.094113 128.448795 
L 236.418588 105.243025 
L 244.743064 107.601488 
L 253.067539 107.2976 
L 261.392015 110.004157 
L 269.71649 113.794758 
L 278.040966 115.359736 
L 286.365441 121.802137 
L 294.689917 126.556938 
L 303.014392 133.478495 
L 311.338868 140.945184 
L 319.663344 145.946339 
L 327.987819 154.428598 
L 336.312295 158.969422 
L 344.63677 159.937343 
L 352.961246 163.504971 
L 361.285721 149.998732 
L 369.610197 152.577558 
L 377.934672 130.282896 
L 386.259148 115.10483 
" clip-path="url(#p1bb6eccfd5)" style="fill: none; stroke: #443983; stroke-width: 1.5; stroke-linecap: square"/>
   </g>
   <g id="line2d_31">
    <path d="M 61.604602 51.056908 
L 69.929078 49.353981 
L 78.253553 44.528428 
L 86.578029 51.817738 
L 94.902504 64.133861 
L 103.22698 64.373328 
L 111.551455 75.198222 
L 119.875931 112.299421 
L 128.200406 193.756919 
L 136.524882 181.473451 
L 144.849358 213.105113 
L 153.173833 232.968228 
L 161.498309 250.144223 
L 169.822784 257.986663 
L 178.14726 235.395443 
L 186.471735 213.952356 
L 194.796211 207.974562 
L 203.120686 208.797702 
L 211.445162 185.549392 
L 219.769637 166.069691 
L 228.094113 144.272623 
L 236.418588 125.644941 
L 244.743064 128.321731 
L 253.067539 125.631835 
L 261.392015 129.143983 
L 269.71649 134.582643 
L 278.040966 138.316821 
L 286.365441 145.88314 
L 294.689917 155.128673 
L 303.014392 160.636918 
L 311.338868 168.209901 
L 319.663344 178.647939 
L 327.987819 185.127825 
L 336.312295 190.640069 
L 344.63677 190.761524 
L 352.961246 193.778855 
L 361.285721 177.482591 
L 369.610197 177.616541 
L 377.934672 150.193549 
L 386.259148 129.021473 
" clip-path="url(#p1bb6eccfd5)" style="fill: none; stroke: #31688e; stroke-width: 1.5; stroke-linecap: square"/>
   </g>
   <g id="line2d_32">
    <path d="M 61.604602 51.267053 
L 69.929078 49.270456 
L 78.253553 44.444681 
L 86.578029 51.870608 
L 94.902504 64.51372 
L 103.22698 65.008427 
L 111.551455 75.765124 
L 119.875931 114.042778 
L 128.200406 195.550035 
L 136.524882 183.215697 
L 144.849358 217.416855 
L 153.173833 239.524142 
L 161.498309 256.484884 
L 169.822784 267.467609 
L 178.14726 248.941445 
L 186.471735 224.140374 
L 194.796211 219.824522 
L 203.120686 219.042144 
L 211.445162 195.437521 
L 219.769637 172.549744 
L 228.094113 149.467373 
L 236.418588 126.996886 
L 244.743064 129.150647 
L 253.067539 126.161084 
L 261.392015 129.390337 
L 269.71649 138.911101 
L 278.040966 140.758808 
L 286.365441 151.067171 
L 294.689917 155.871621 
L 303.014392 165.436758 
L 311.338868 173.225495 
L 319.663344 180.698793 
L 327.987819 191.772318 
L 336.312295 199.163535 
L 344.63677 200.23625 
L 352.961246 201.86837 
L 361.285721 186.982974 
L 369.610197 189.942771 
L 377.934672 161.942214 
L 386.259148 137.03185 
" clip-path="url(#p1bb6eccfd5)" style="fill: none; stroke: #21918c; stroke-width: 1.5; stroke-linecap: square"/>
   </g>
   <g id="line2d_33">
    <path d="M 61.604602 50.909851 
L 69.929078 48.629804 
L 78.253553 44.20166 
L 86.578029 51.238619 
L 94.902504 63.663367 
L 103.22698 64.017015 
L 111.551455 74.722398 
L 119.875931 112.876097 
L 128.200406 195.216825 
L 136.524882 182.483301 
L 144.849358 214.679199 
L 153.173833 236.232801 
L 161.498309 254.502837 
L 169.822784 262.486447 
L 178.14726 240.584973 
L 186.471735 216.819631 
L 194.796211 209.61851 
L 203.120686 212.210554 
L 211.445162 190.546326 
L 219.769637 168.585429 
L 228.094113 145.551818 
L 236.418588 128.343834 
L 244.743064 133.768832 
L 253.067539 127.470101 
L 261.392015 133.306336 
L 269.71649 141.824304 
L 278.040966 143.971845 
L 286.365441 150.374121 
L 294.689917 161.636771 
L 303.014392 168.725822 
L 311.338868 179.142242 
L 319.663344 187.025056 
L 327.987819 195.882787 
L 336.312295 201.083604 
L 344.63677 200.96151 
L 352.961246 202.702285 
L 361.285721 186.417849 
L 369.610197 185.972458 
L 377.934672 156.481784 
L 386.259148 131.765571 
" clip-path="url(#p1bb6eccfd5)" style="fill: none; stroke: #35b779; stroke-width: 1.5; stroke-linecap: square"/>
   </g>
   <g id="line2d_34">
    <path d="M 61.604602 50.991377 
L 69.929078 48.79752 
L 78.253553 44.223874 
L 86.578029 51.330807 
L 94.902504 63.604056 
L 103.22698 63.89928 
L 111.551455 74.716622 
L 119.875931 113.147997 
L 128.200406 193.214008 
L 136.524882 180.857679 
L 144.849358 212.462905 
L 153.173833 235.406439 
L 161.498309 254.363888 
L 169.822784 266.064127 
L 178.14726 245.950993 
L 186.471735 222.963919 
L 194.796211 218.126482 
L 203.120686 221.002643 
L 211.445162 200.049875 
L 219.769637 180.38352 
L 228.094113 157.096224 
L 236.418588 142.055108 
L 244.743064 143.856165 
L 253.067539 140.613751 
L 261.392015 142.348611 
L 269.71649 152.087017 
L 278.040966 155.584393 
L 286.365441 164.797771 
L 294.689917 174.107614 
L 303.014392 180.371969 
L 311.338868 190.031349 
L 319.663344 198.458101 
L 327.987819 209.48667 
L 336.312295 214.933938 
L 344.63677 215.289862 
L 352.961246 217.239198 
L 361.285721 199.392062 
L 369.610197 197.445891 
L 377.934672 168.248665 
L 386.259148 141.904164 
" clip-path="url(#p1bb6eccfd5)" style="fill: none; stroke: #90d743; stroke-width: 1.5; stroke-linecap: square"/>
   </g>
   <g id="patch_3">
    <path d="M 45.371875 278.630906 
L 45.371875 12.518906 
" style="fill: none; stroke: #000000; stroke-width: 0.8; stroke-linejoin: miter; stroke-linecap: square"/>
   </g>
   <g id="patch_4">
    <path d="M 402.491875 278.630906 
L 402.491875 12.518906 
" style="fill: none; stroke: #000000; stroke-width: 0.8; stroke-linejoin: miter; stroke-linecap: square"/>
   </g>
   <g id="patch_5">
    <path d="M 45.371875 278.630906 
L 402.491875 278.630906 
" style="fill: none; stroke: #000000; stroke-width: 0.8; stroke-linejoin: miter; stroke-linecap: square"/>
   </g>
   <g id="patch_6">
    <path d="M 45.371875 12.518906 
L 402.491875 12.518906 
" style="fill: none; stroke: #000000; stroke-width: 0.8; stroke-linejoin: miter; stroke-linecap: square"/>
   </g>
  </g>
 </g>
 <defs>
  <clipPath id="p1bb6eccfd5">
   <rect x="45.371875" y="12.518906" width="357.12" height="266.112"/>
  </clipPath>
 </defs>
</svg>
